<?xml version="1.0" encoding="utf-8"?>
<!-- Generator: Adobe Illustrator 16.0.3, SVG Export Plug-In . SVG Version: 6.00 Build 0)  -->
<svg version="1.2" baseProfile="tiny" id="Layer_1" xmlns="http://www.w3.org/2000/svg" xmlns:xlink="http://www.w3.org/1999/xlink"
	 x="0px" y="0px" width="100%" height="100%" viewBox="0 0 213.1923828 40.3920898" xml:space="preserve">
<path fill-rule="evenodd" fill="#F58220" d="M83.2324219,31.5361328c-0.9365234,0.7197266-1.9443359,1.3681641-2.9521484,1.9438477
	v-3.0239258c0.5756836-0.2158203,1.2236328-0.5039062,1.7998047-0.7197266
	C83.3759766,29.1601562,84.5283203,30.6000977,83.2324219,31.5361328L83.2324219,31.5361328z M90.0722656,26.4960938
	c0-0.5761719-0.144043-1.0078125-0.2880859-1.2241211c-0.6479492-0.7919922-5.3999023-1.5117188-9.5039062-0.2880859v2.2319336
	C82.800293,27,85.7519531,26.9282227,86.472168,27.8642578c1.0078125,1.2236328-1.1518555,6.5517578-2.0878906,8.855957
	c-0.2880859,0.7197266,0.3598633,1.0078125,1.0078125,0.5039062C88.6323242,34.4882812,90,29.5200195,90.0722656,26.9282227
	V26.4960938z M80.2802734,33.4799805c-7.5600586,4.5361328-17.3520508,6.9121094-25.8481445,6.9121094
	c-13.6801758,0-25.9199219-5.0400391-35.2080078-13.4638672c-0.7919922-0.6479492-0.144043-1.5839844,0.7919922-1.0800781
	c10.0083008,5.8320312,22.3920898,9.3598633,35.2080078,9.3598633c8.0639648,0,16.7758789-1.5117188,25.0561523-4.7519531
	V33.4799805L80.2802734,33.4799805z M80.2802734,24.9838867c-1.1523438,0.3603516-2.1601562,0.8642578-3.0961914,1.512207
	C76.4643555,27,76.6083984,27.6479492,77.328125,27.5761719c0.7919922-0.144043,1.7998047-0.2163086,2.9521484-0.3603516V24.9838867
	z"/>
<path fill-rule="evenodd" d="M211.0322266,4.8959961V4.5361328c1.0078125,0,1.7998047-0.7919922,1.7998047-1.7998047
	c0-1.0083008-0.8637695-1.800293-1.7998047-1.800293V0.5761719l0,0c1.1518555,0,2.1601562,0.9360352,2.1601562,2.1601562
	C213.1923828,3.8881836,212.184082,4.8959961,211.0322266,4.8959961L211.0322266,4.8959961L211.0322266,4.8959961z
	 M211.0322266,2.9521484h0.0717773c0.144043,0,0.2163086,0.0717773,0.2163086,0.2158203
	c0,0.0722656,0.0717773,0.6479492,0.144043,0.7919922h0.5039062c-0.0722656-0.144043-0.144043-0.4316406-0.144043-0.6479492
	c-0.0722656-0.2880859-0.0722656-0.5039062-0.4321289-0.5756836c0.2163086-0.0722656,0.5039062-0.1445312,0.5039062-0.5761719
	c0-0.6479492-0.5756836-0.6479492-0.8637695-0.6479492l0,0v0.3598633l0,0c0.144043,0,0.3598633,0,0.3598633,0.3598633
	c0,0.144043-0.0717773,0.3598633-0.3598633,0.3598633l0,0V2.9521484z M211.0322266,0.5761719v0.3598633l0,0
	c-1.0078125,0-1.8720703,0.7919922-1.8720703,1.800293c0,1.0078125,0.8642578,1.7998047,1.8720703,1.7998047l0,0v0.3598633
	c-1.2241211,0-2.2319336-0.9360352-2.2319336-2.159668C208.800293,1.512207,209.8081055,0.5761719,211.0322266,0.5761719
	L211.0322266,0.5761719z M211.0322266,1.512207h-0.8642578v2.4477539l0,0h0.5043945V2.9521484h0.3598633V2.5917969h-0.3598633
	V1.8720703h0.3598633V1.512207L211.0322266,1.512207z M168.6240234,23.8320312v-2.9521484
	c1.8720703-0.0717773,3.3842773-1.2236328,4.3203125-3.1679688c0.7919922-1.7998047,0.9360352-3.8876953,0.9360352-5.8320312
	c0-2.159668-0.2163086-4.3916016-1.2241211-6.2636719c-0.8642578-1.5839844-2.4482422-2.5922852-4.0322266-2.6640625V0.0722656l0,0
	h0.144043h0.2163086c5.7597656,0,8.6396484,5.8320312,8.6396484,11.8798828
	C177.6240234,18.2158203,174.4560547,23.7602539,168.6240234,23.8320312L168.6240234,23.8320312z M180.6479492,23.3999023
	c-0.4316406-0.0717773-0.7919922-0.3598633-0.7919922-0.7919922V1.3681641
	c0.0722656-0.3603516,0.3603516-0.6479492,0.7919922-0.7202148h1.512207c0.4321289,0,0.7202148,0.3598633,0.7919922,0.7202148
	v3.0957031c1.0800781-2.4477539,3.0961914-4.3916016,5.6162109-4.3916016h0.2158203h0.144043
	c2.6640625,0,4.6801758,2.015625,5.3999023,4.8959961c1.1518555-2.8081055,3.3120117-4.8959961,6.1918945-4.8959961h0.144043
	h0.144043c2.0161133,0,3.9599609,1.2958984,4.9682617,3.3120117c0.9355469,1.871582,0.9355469,4.3916016,0.9355469,6.4799805
	v12.7436523c0,0.4321289-0.3598633,0.7202148-0.7919922,0.7919922h-1.7998047
	c-0.3598633-0.0717773-0.7197266-0.2875977-0.7919922-0.7197266V9.8642578c0-1.512207,0.0722656-3.1679688-0.5039062-4.5361328
	c-0.6479492-1.4399414-1.8720703-2.3041992-3.1679688-2.3759766c-1.4399414,0.0717773-2.7363281,1.1518555-3.6000977,2.5917969
	C194.9042969,7.3442383,194.9760742,9,194.9760742,11.1601562v11.5917969
	c-0.0717773,0.2880859-0.3598633,0.5761719-0.7919922,0.6479492h-1.7998047
	c-0.4321289-0.0717773-0.7919922-0.3598633-0.7919922-0.7919922V9c0-1.2241211-0.0722656-2.7358398-0.6479492-3.815918
	c-0.6484375-1.2958984-1.8720703-2.1601562-3.0961914-2.2319336c-1.3681641,0.0717773-2.6640625,1.0800781-3.4560547,2.2319336
	c-1.0078125,1.512207-1.2241211,3.3120117-1.2241211,5.184082v12.2397461c0,0.4321289-0.2875977,0.7202148-0.7197266,0.7919922
	H180.6479492L180.6479492,23.3999023z M168.6240234,0.0722656v2.8798828h-0.0717773
	c-1.800293,0.0717773-3.4560547,1.2958984-4.3198242,3.2397461c-0.7202148,1.65625-0.9365234,3.815918-0.9365234,5.6879883
	c0,2.0883789,0.2880859,4.4643555,1.1523438,6.2641602c0.7919922,1.5839844,2.3759766,2.7358398,4.1040039,2.7358398h0.0717773
	v2.9521484c-0.0717773,0-0.144043,0-0.144043,0h-0.2158203h-0.144043c-5.9038086,0-8.4960938-5.9760742-8.4960938-11.9521484
	C159.6240234,5.5439453,162.7202148,0.144043,168.6240234,0.0722656L168.6240234,0.0722656z M104.5439453,23.8320312V19.512207
	c3.0961914-0.0722656,3.2402344-4.5361328,3.2402344-7.2001953c0-1.7998047-0.0722656-3.9599609-0.6479492-5.6879883
	c-0.4321289-1.4399414-1.2958984-2.0161133-2.5922852-2.0878906V0.2158203
	c6.0483398,0.0722656,9.3603516,5.328125,9.3603516,12.0244141
	C113.9042969,18.7202148,110.2324219,23.7602539,104.5439453,23.8320312L104.5439453,23.8320312z M149.7602539,20.8081055
	c2.5917969-0.0717773,4.0317383-2.0878906,4.6079102-4.8959961c0.0722656-0.2880859,0.3598633-0.5761719,0.7197266-0.5761719
	h1.7285156c0.4316406,0,0.7919922,0.3603516,0.7919922,0.7202148c-0.7919922,4.6079102-3.6000977,7.7758789-7.6323242,7.7758789
	h-0.144043h-0.2158203c-5.8320312,0-8.3520508-5.8320312-8.3520508-11.8081055
	c0-5.9038086,2.5917969-11.9516602,8.4238281-11.9516602h0.144043h0.144043c4.1040039,0,6.9838867,3.1679688,7.6323242,7.8476562
	c0,0.2880859-0.3603516,0.6479492-0.7202148,0.6479492h-1.8720703c-0.3598633-0.0717773-0.5756836-0.3598633-0.6479492-0.7197266
	c-0.4321289-2.6640625-1.9438477-4.7519531-4.4638672-4.8242188c-3.9599609,0.144043-5.1123047,5.0400391-5.1123047,8.7841797
	C144.7919922,15.4799805,145.7280273,20.6640625,149.7602539,20.8081055L149.7602539,20.8081055z M140.7602539,21.671875
	c0-1.0800781-0.9360352-1.9438477-2.0161133-1.9438477c-1.1518555,0-2.0878906,0.8637695-2.0878906,1.9438477
	s0.9360352,1.9443359,2.0878906,1.9443359C139.8242188,23.6162109,140.7602539,22.7519531,140.7602539,21.671875
	L140.7602539,21.671875z M121.8959961,23.3999023h-4.1040039C117.3603516,23.328125,117,23.0400391,117,22.6079102V1.3681641
	c0.0722656-0.4321289,0.3603516-0.7202148,0.7919922-0.7202148h3.8881836c0.3598633,0,0.6479492,0.2880859,0.7202148,0.6479492
	v3.2402344h0.0717773c1.1518555-2.9521484,2.8081055-4.3203125,5.6879883-4.3203125
	c1.7998047,0,3.671875,0.6484375,4.8242188,2.5205078c1.0795898,1.7275391,1.0795898,4.5356445,1.0795898,6.6235352v13.3203125
	c-0.0717773,0.3598633-0.3598633,0.7197266-0.7919922,0.7197266h-4.1757812
	c-0.3598633-0.0717773-0.7202148-0.3598633-0.7202148-0.7197266V11.2319336c0-2.3759766,0.2880859-5.7597656-2.5917969-5.7597656
	c-1.0078125,0-1.9438477,0.6479492-2.4482422,1.7280273c-0.5756836,1.2958984-0.6479492,2.5917969-0.6479492,4.0317383v11.3759766
	C122.6879883,23.0400391,122.328125,23.3999023,121.8959961,23.3999023z M77.5439453,4.3920898V1.3681641
	c0-0.4321289,0.3603516-0.7919922,0.7919922-0.7919922h13.6083984c0.4316406,0,0.7919922,0.3598633,0.7919922,0.7919922v2.5917969
	c0,0.4321289-0.3603516,1.0083008-1.0083008,1.9443359l-7.0556641,10.0795898
	c2.5917969-0.0717773,5.3999023,0.3603516,7.7758789,1.65625C92.9521484,18,93.0961914,18.4321289,93.1679688,18.8642578v3.1679688
	c0,0.4316406-0.5039062,0.9360352-1.0078125,0.7197266c-4.2480469-2.2319336-9.7919922-2.4477539-14.3999023,0
	c-0.5039062,0.2880859-1.0083008-0.2880859-1.0083008-0.7197266v-3.0244141c0-0.4316406,0-1.2958984,0.5043945-2.0878906
	L85.4643555,5.184082h-7.128418C77.9042969,5.184082,77.5439453,4.8959961,77.5439453,4.3920898L77.5439453,4.3920898z
	 M104.5439453,0.2158203v4.3203125l0,0c-3.0957031,0-3.2397461,4.1757812-3.2397461,6.7680664
	c0,2.6640625-0.0717773,8.2080078,3.1679688,8.2080078c0.0717773,0,0.0717773,0,0.0717773,0v4.3198242c0,0,0,0-0.0717773,0
	c-6.0478516,0-9.3598633-5.2558594-9.3598633-11.8081055c0-6.6240234,3.3837891-11.8081055,9.3598633-11.8081055
	C104.5439453,0.2158203,104.5439453,0.2158203,104.5439453,0.2158203L104.5439453,0.2158203z M63.5761719,23.328125v-3.815918
	c0.9360352-0.2163086,1.7280273-0.8642578,2.3041992-1.8720703c0.7919922-1.4399414,0.7919922-2.7358398,0.7919922-4.3920898
	v-0.8637695c-1.0800781,0-2.1601562,0.0717773-3.0961914,0.2875977V9.3598633
	c1.0800781-0.144043,2.1601562-0.2158203,3.0961914-0.2875977V8.4960938c0-1.0078125,0.0717773-2.1601562-0.5043945-3.0239258
	c-0.5039062-0.7202148-1.5117188-1.0800781-2.3759766-1.0800781c-0.0717773,0-0.144043,0-0.2158203,0V0
	c0.2880859,0,0.5761719,0,0.8642578,0c2.015625,0,4.6079102,0.5761719,6.1918945,2.0878906
	c2.015625,1.8720703,1.871582,4.3920898,1.871582,7.1279297v6.4804688c0,1.9438477,0.7919922,2.8076172,1.512207,3.815918
	c0.2880859,0.3598633,0.3598633,0.7919922,0,1.0795898c-0.7919922,0.7202148-2.3041992,2.0161133-3.1679688,2.7363281l0,0
	c-0.2880859,0.2158203-0.6479492,0.2158203-1.0078125,0.0717773c-1.3681641-1.1518555-1.5839844-1.6557617-2.3759766-2.7358398
	C66.0961914,22.1040039,64.9443359,22.8959961,63.5761719,23.328125z M63.5761719,0v4.3920898
	c-1.512207,0.144043-2.7358398,0.9360352-3.0961914,2.5200195c-0.0717773,0.3598633-0.3598633,0.7197266-0.7197266,0.7919922
	l-4.0322266-0.5039062c-0.3598633-0.0722656-0.7197266-0.2880859-0.5756836-0.8642578
	C56.0161133,1.7998047,59.8320312,0.2158203,63.5761719,0L63.5761719,0z M63.5761719,9.3598633v3.3120117
	c-1.7280273,0.5043945-3.0961914,1.5839844-3.0961914,3.8881836c0,1.7998047,0.9360352,3.0239258,2.5200195,3.0239258
	c0.2163086,0,0.3603516-0.0717773,0.5761719-0.0717773v3.815918c-0.8642578,0.2158203-1.7998047,0.3598633-2.9521484,0.3598633
	c-3.4560547,0-6.1918945-2.159668-6.1918945-6.4077148c0-3.3842773,1.800293-5.6884766,4.3920898-6.7680664
	C60.1923828,9.8642578,61.9199219,9.5761719,63.5761719,9.3598633L63.5761719,9.3598633z M9.144043,23.328125v-3.815918
	c0.9360352-0.2163086,1.800293-0.8642578,2.3041992-1.8720703c0.8637695-1.4399414,0.7919922-2.7358398,0.7919922-4.3920898l0,0
	v-0.8637695c-1.0800781,0-2.1601562,0.0717773-3.0961914,0.2875977V9.3598633
	c1.0800781-0.144043,2.1601562-0.2158203,3.0961914-0.2875977V8.4960938c0-1.0078125,0.0717773-2.1601562-0.5039062-3.0239258
	c-0.5039062-0.7202148-1.4404297-1.0800781-2.3041992-1.0800781c-0.144043,0-0.2158203,0-0.2880859,0V0
	c0.2880859,0,0.5761719,0,0.8642578,0c2.0161133,0,4.6079102,0.5761719,6.2636719,2.0878906
	c2.0161133,1.8720703,1.800293,4.3920898,1.800293,7.1279297v6.4804688c0,1.9438477,0.7919922,2.8076172,1.5839844,3.815918
	c0.2158203,0.3598633,0.2880859,0.7919922-0.0722656,1.0795898c-0.7919922,0.7202148-2.3037109,2.0161133-3.1679688,2.7363281l0,0
	c-0.2880859,0.2158203-0.6479492,0.2158203-1.0078125,0.0717773c-1.3681641-1.1518555-1.5839844-1.6557617-2.3759766-2.7358398
	C11.6640625,22.1040039,10.512207,22.8959961,9.144043,23.328125L9.144043,23.328125z M27.7919922,23.3999023h-4.1757812
	c-0.4321289-0.0717773-0.7202148-0.3598633-0.7202148-0.7197266V1.4399414c0-0.4321289,0.3603516-0.7919922,0.7919922-0.7919922
	h3.815918c0.4321289,0,0.7919922,0.3598633,0.7919922,0.7202148v2.8081055h0.0722656
	c1.0078125-2.7363281,2.8798828-3.9604492,5.472168-3.9604492c2.5917969,0,4.2475586,1.2241211,5.3999023,3.9604492
	c1.0078125-2.7363281,3.2397461-3.9604492,5.6879883-3.9604492c1.7998047,0,3.671875,0.7202148,4.8237305,2.3041992
	c1.2963867,1.800293,1.0800781,4.3920898,1.0800781,6.6958008v13.3920898c0,0.4321289-0.3598633,0.7919922-0.8637695,0.7919922
	h-4.1040039c-0.4321289-0.0717773-0.7202148-0.3598633-0.7202148-0.7919922V11.3759766
	c0-0.8637695,0.0722656-3.1679688-0.144043-3.9599609c-0.2880859-1.4399414-1.2236328-1.8720703-2.4477539-1.8720703
	c-1.0083008,0-2.0161133,0.6479492-2.4482422,1.7280273c-0.4316406,1.0800781-0.4316406,2.8798828-0.4316406,4.1040039v11.2319336
	c0,0.4321289-0.3603516,0.7919922-0.7919922,0.7919922h-4.1762695c-0.3598633-0.0717773-0.7197266-0.3598633-0.7197266-0.7919922
	V11.3759766c0-2.3759766,0.3598633-5.9038086-2.5200195-5.9038086c-3.0239258,0-2.8803711,3.4560547-2.8803711,5.9038086v11.2319336
	C28.5839844,23.0400391,28.2241211,23.3999023,27.7919922,23.3999023z M9.144043,0v4.3920898
	C7.7041016,4.5361328,6.4082031,5.328125,6.0483398,6.9121094C5.9760742,7.2719727,5.7602539,7.6318359,5.328125,7.7041016
	L1.2958984,7.2001953C1.0083008,7.1279297,0.5761719,6.9121094,0.7202148,6.3359375
	C1.5839844,1.7998047,5.472168,0.2158203,9.144043,0L9.144043,0z M9.144043,9.3598633v3.3120117
	c-1.7280273,0.5043945-3.0957031,1.5839844-3.0957031,3.8881836c0,1.7998047,0.9360352,3.0239258,2.5200195,3.0239258
	c0.2158203,0,0.4316406-0.0717773,0.5756836-0.0717773v3.815918c-0.8637695,0.2158203-1.7998047,0.3598633-2.9516602,0.3598633
	C2.7363281,23.6879883,0,21.5283203,0,17.2802734c0-3.3842773,1.800293-5.6884766,4.4643555-6.7680664
	C5.8320312,9.8642578,7.4882812,9.5761719,9.144043,9.3598633z"/>
</svg>
