<?xml version="1.0" encoding="utf-8"?>
<!-- Generator: Adobe Illustrator 16.0.3, SVG Export Plug-In . SVG Version: 6.00 Build 0)  -->
<svg version="1.2" baseProfile="tiny" id="Layer_1" xmlns="http://www.w3.org/2000/svg" xmlns:xlink="http://www.w3.org/1999/xlink"
	 x="0px" y="0px" width="100%" height="100%" viewBox="0 0 213.1923828 70.9360352" xml:space="preserve">
<path display="none" fill-rule="evenodd" fill="#F58220" d="M83.2324219,51.0800781
	c-0.9365234,0.7197266-1.9443359,1.3681641-2.9521484,1.9438477V50c0.5756836-0.2158203,1.2236328-0.5039062,1.7998047-0.7197266
	C83.3759766,48.7041016,84.5283203,50.144043,83.2324219,51.0800781L83.2324219,51.0800781z M90.0722656,46.0400391
	c0-0.5761719-0.144043-1.0078125-0.2880859-1.2241211c-0.6479492-0.7919922-5.3999023-1.5117188-9.5039062-0.2880859v2.2319336
	c2.5200195-0.2158203,5.4716797-0.2875977,6.1918945,0.6484375c1.0078125,1.2236328-1.1518555,6.5517578-2.0878906,8.855957
	c-0.2880859,0.7197266,0.3598633,1.0078125,1.0078125,0.5039062C88.6323242,54.0322266,90,49.0639648,90.0722656,46.472168
	V46.0400391z M80.2802734,53.0239258c-7.5600586,4.5361328-17.3520508,6.9121094-25.8481445,6.9121094
	c-13.6801758,0-25.9199219-5.0400391-35.2080078-13.4638672c-0.7919922-0.6479492-0.144043-1.5839844,0.7919922-1.0800781
	c10.0083008,5.8320312,22.3920898,9.3598633,35.2080078,9.3598633C63.2880859,54.7519531,72,53.2402344,80.2802734,50V53.0239258
	L80.2802734,53.0239258z M80.2802734,44.527832c-1.1523438,0.3603516-2.1601562,0.8642578-3.0961914,1.512207
	c-0.7197266,0.5039062-0.5756836,1.1518555,0.144043,1.0800781c0.7919922-0.144043,1.7998047-0.2163086,2.9521484-0.3603516
	V44.527832z"/>
<path display="none" fill-rule="evenodd" d="M211.0322266,24.4399414v-0.3598633
	c1.0078125,0,1.7998047-0.7919922,1.7998047-1.7998047c0-1.0083008-0.8637695-1.800293-1.7998047-1.800293v-0.3598633l0,0
	c1.1518555,0,2.1601562,0.9360352,2.1601562,2.1601562C213.1923828,23.4321289,212.184082,24.4399414,211.0322266,24.4399414
	L211.0322266,24.4399414L211.0322266,24.4399414z M211.0322266,22.4960938h0.0717773
	c0.144043,0,0.2163086,0.0717773,0.2163086,0.2158203c0,0.0722656,0.0717773,0.6479492,0.144043,0.7919922h0.5039062
	c-0.0722656-0.144043-0.144043-0.4316406-0.144043-0.6479492c-0.0722656-0.2880859-0.0722656-0.5039062-0.4321289-0.5756836
	c0.2163086-0.0722656,0.5039062-0.1445312,0.5039062-0.5761719c0-0.6479492-0.5756836-0.6479492-0.8637695-0.6479492l0,0v0.3598633
	l0,0c0.144043,0,0.3598633,0,0.3598633,0.3598633c0,0.144043-0.0717773,0.3598633-0.3598633,0.3598633l0,0V22.4960938z
	 M211.0322266,20.1201172v0.3598633l0,0c-1.0078125,0-1.8720703,0.7919922-1.8720703,1.800293
	c0,1.0078125,0.8642578,1.7998047,1.8720703,1.7998047l0,0v0.3598633c-1.2241211,0-2.2319336-0.9360352-2.2319336-2.159668
	C208.800293,21.0561523,209.8081055,20.1201172,211.0322266,20.1201172L211.0322266,20.1201172z M211.0322266,21.0561523h-0.8642578
	v2.4477539l0,0h0.5043945v-1.0078125h0.3598633v-0.3603516h-0.3598633v-0.7197266h0.3598633V21.0561523L211.0322266,21.0561523z
	 M168.6240234,43.3759766v-2.9521484c1.8720703-0.0717773,3.3842773-1.2236328,4.3203125-3.1679688
	c0.7919922-1.7998047,0.9360352-3.8876953,0.9360352-5.8320312c0-2.159668-0.2163086-4.3916016-1.2241211-6.2636719
	c-0.8642578-1.5839844-2.4482422-2.5922852-4.0322266-2.6640625v-2.8798828l0,0h0.144043h0.2163086
	c5.7597656,0,8.6396484,5.8320312,8.6396484,11.8798828C177.6240234,37.7597656,174.4560547,43.3041992,168.6240234,43.3759766
	L168.6240234,43.3759766z M180.6479492,42.9438477c-0.4316406-0.0717773-0.7919922-0.3598633-0.7919922-0.7919922V20.9121094
	c0.0722656-0.3603516,0.3603516-0.6479492,0.7919922-0.7202148h1.512207c0.4321289,0,0.7202148,0.3598633,0.7919922,0.7202148
	v3.0957031c1.0800781-2.4477539,3.0961914-4.3916016,5.6162109-4.3916016h0.2158203h0.144043
	c2.6640625,0,4.6801758,2.015625,5.3999023,4.8959961c1.1518555-2.8081055,3.3120117-4.8959961,6.1918945-4.8959961h0.144043
	h0.144043c2.0161133,0,3.9599609,1.2958984,4.9682617,3.3120117c0.9355469,1.871582,0.9355469,4.3916016,0.9355469,6.4799805
	v12.7436523c0,0.4321289-0.3598633,0.7202148-0.7919922,0.7919922h-1.7998047
	c-0.3598633-0.0717773-0.7197266-0.2875977-0.7919922-0.7197266v-12.815918c0-1.512207,0.0722656-3.1679688-0.5039062-4.5361328
	c-0.6479492-1.4399414-1.8720703-2.3041992-3.1679688-2.3759766c-1.4399414,0.0717773-2.7363281,1.1518555-3.6000977,2.5917969
	c-1.1518555,1.800293-1.0800781,3.4560547-1.0800781,5.6162109v11.5917969
	c-0.0717773,0.2880859-0.3598633,0.5761719-0.7919922,0.6479492h-1.7998047
	c-0.4321289-0.0717773-0.7919922-0.3598633-0.7919922-0.7919922V28.5439453c0-1.2241211-0.0722656-2.7358398-0.6479492-3.815918
	c-0.6484375-1.2958984-1.8720703-2.1601562-3.0961914-2.2319336c-1.3681641,0.0717773-2.6640625,1.0800781-3.4560547,2.2319336
	c-1.0078125,1.512207-1.2241211,3.3120117-1.2241211,5.184082v12.2397461c0,0.4321289-0.2875977,0.7202148-0.7197266,0.7919922
	H180.6479492L180.6479492,42.9438477z M168.6240234,19.6162109v2.8798828h-0.0717773
	c-1.800293,0.0717773-3.4560547,1.2958984-4.3198242,3.2397461c-0.7202148,1.65625-0.9365234,3.815918-0.9365234,5.6879883
	c0,2.0883789,0.2880859,4.4643555,1.1523438,6.2641602c0.7919922,1.5839844,2.3759766,2.7358398,4.1040039,2.7358398h0.0717773
	v2.9521484c-0.0717773,0-0.144043,0-0.144043,0h-0.2158203h-0.144043c-5.9038086,0-8.4960938-5.9760742-8.4960938-11.9521484
	C159.6240234,25.0878906,162.7202148,19.6879883,168.6240234,19.6162109L168.6240234,19.6162109z M104.5439453,43.3759766
	v-4.3198242c3.0961914-0.0722656,3.2402344-4.5361328,3.2402344-7.2001953c0-1.7998047-0.0722656-3.9599609-0.6479492-5.6879883
	c-0.4321289-1.4399414-1.2958984-2.0161133-2.5922852-2.0878906v-4.3203125
	c6.0483398,0.0722656,9.3603516,5.328125,9.3603516,12.0244141
	C113.9042969,38.2641602,110.2324219,43.3041992,104.5439453,43.3759766L104.5439453,43.3759766z M149.7602539,40.3520508
	c2.5917969-0.0717773,4.0317383-2.0878906,4.6079102-4.8959961c0.0722656-0.2880859,0.3598633-0.5761719,0.7197266-0.5761719
	h1.7285156c0.4316406,0,0.7919922,0.3603516,0.7919922,0.7202148c-0.7919922,4.6079102-3.6000977,7.7758789-7.6323242,7.7758789
	h-0.144043h-0.2158203c-5.8320312,0-8.3520508-5.8320312-8.3520508-11.8081055
	c0-5.9038086,2.5917969-11.9516602,8.4238281-11.9516602h0.144043h0.144043c4.1040039,0,6.9838867,3.1679688,7.6323242,7.8476562
	c0,0.2880859-0.3603516,0.6479492-0.7202148,0.6479492h-1.8720703c-0.3598633-0.0717773-0.5756836-0.3598633-0.6479492-0.7197266
	c-0.4321289-2.6640625-1.9438477-4.7519531-4.4638672-4.8242188c-3.9599609,0.144043-5.1123047,5.0400391-5.1123047,8.7841797
	C144.7919922,35.0239258,145.7280273,40.2080078,149.7602539,40.3520508L149.7602539,40.3520508z M140.7602539,41.2158203
	c0-1.0800781-0.9360352-1.9438477-2.0161133-1.9438477c-1.1518555,0-2.0878906,0.8637695-2.0878906,1.9438477
	s0.9360352,1.9443359,2.0878906,1.9443359C139.8242188,43.1601562,140.7602539,42.2958984,140.7602539,41.2158203
	L140.7602539,41.2158203z M121.8959961,42.9438477h-4.1040039C117.3603516,42.8720703,117,42.5839844,117,42.1518555V20.9121094
	c0.0722656-0.4321289,0.3603516-0.7202148,0.7919922-0.7202148h3.8881836c0.3598633,0,0.6479492,0.2880859,0.7202148,0.6479492
	v3.2402344h0.0717773c1.1518555-2.9521484,2.8081055-4.3203125,5.6879883-4.3203125
	c1.7998047,0,3.671875,0.6484375,4.8242188,2.5205078c1.0795898,1.7275391,1.0795898,4.5356445,1.0795898,6.6235352v13.3203125
	c-0.0717773,0.3598633-0.3598633,0.7197266-0.7919922,0.7197266h-4.1757812
	c-0.3598633-0.0717773-0.7202148-0.3598633-0.7202148-0.7197266V30.7758789c0-2.3759766,0.2880859-5.7597656-2.5917969-5.7597656
	c-1.0078125,0-1.9438477,0.6479492-2.4482422,1.7280273c-0.5756836,1.2958984-0.6479492,2.5917969-0.6479492,4.0317383v11.3759766
	C122.6879883,42.5839844,122.328125,42.9438477,121.8959961,42.9438477z M77.5439453,23.9360352v-3.0239258
	c0-0.4321289,0.3603516-0.7919922,0.7919922-0.7919922h13.6083984c0.4316406,0,0.7919922,0.3598633,0.7919922,0.7919922v2.5917969
	c0,0.4321289-0.3603516,1.0083008-1.0083008,1.9443359L84.6723633,35.527832
	c2.5917969-0.0717773,5.3999023,0.3603516,7.7758789,1.65625c0.5039062,0.3598633,0.6479492,0.7919922,0.7197266,1.2241211
	v3.1679688c0,0.4316406-0.5039062,0.9360352-1.0078125,0.7197266c-4.2480469-2.2319336-9.7919922-2.4477539-14.3999023,0
	c-0.5039062,0.2880859-1.0083008-0.2880859-1.0083008-0.7197266v-3.0244141c0-0.4316406,0-1.2958984,0.5043945-2.0878906
	l8.2080078-11.7358398h-7.128418C77.9042969,24.7280273,77.5439453,24.4399414,77.5439453,23.9360352L77.5439453,23.9360352z
	 M104.5439453,19.7597656v4.3203125l0,0c-3.0957031,0-3.2397461,4.1757812-3.2397461,6.7680664
	c0,2.6640625-0.0717773,8.2080078,3.1679688,8.2080078c0.0717773,0,0.0717773,0,0.0717773,0v4.3198242c0,0,0,0-0.0717773,0
	c-6.0478516,0-9.3598633-5.2558594-9.3598633-11.8081055c0-6.6240234,3.3837891-11.8081055,9.3598633-11.8081055
	C104.5439453,19.7597656,104.5439453,19.7597656,104.5439453,19.7597656L104.5439453,19.7597656z M63.5761719,42.8720703v-3.815918
	c0.9360352-0.2163086,1.7280273-0.8642578,2.3041992-1.8720703c0.7919922-1.4399414,0.7919922-2.7358398,0.7919922-4.3920898
	v-0.8637695c-1.0800781,0-2.1601562,0.0717773-3.0961914,0.2875977v-3.3120117
	c1.0800781-0.144043,2.1601562-0.2158203,3.0961914-0.2875977v-0.5761719c0-1.0078125,0.0717773-2.1601562-0.5043945-3.0239258
	c-0.5039062-0.7202148-1.5117188-1.0800781-2.3759766-1.0800781c-0.0717773,0-0.144043,0-0.2158203,0v-4.3920898
	c0.2880859,0,0.5761719,0,0.8642578,0c2.015625,0,4.6079102,0.5761719,6.1918945,2.0878906
	c2.015625,1.8720703,1.871582,4.3920898,1.871582,7.1279297v6.4804688c0,1.9438477,0.7919922,2.8076172,1.512207,3.815918
	c0.2880859,0.3598633,0.3598633,0.7919922,0,1.0795898c-0.7919922,0.7202148-2.3041992,2.0161133-3.1679688,2.7363281l0,0
	c-0.2880859,0.2158203-0.6479492,0.2158203-1.0078125,0.0717773c-1.3681641-1.1518555-1.5839844-1.6557617-2.3759766-2.7358398
	C66.0961914,41.6479492,64.9443359,42.4399414,63.5761719,42.8720703z M63.5761719,19.5439453v4.3920898
	c-1.512207,0.144043-2.7358398,0.9360352-3.0961914,2.5200195c-0.0717773,0.3598633-0.3598633,0.7197266-0.7197266,0.7919922
	l-4.0322266-0.5039062c-0.3598633-0.0722656-0.7197266-0.2880859-0.5756836-0.8642578
	C56.0161133,21.34375,59.8320312,19.7597656,63.5761719,19.5439453L63.5761719,19.5439453z M63.5761719,28.9038086v3.3120117
	c-1.7280273,0.5043945-3.0961914,1.5839844-3.0961914,3.8881836c0,1.7998047,0.9360352,3.0239258,2.5200195,3.0239258
	c0.2163086,0,0.3603516-0.0717773,0.5761719-0.0717773v3.815918c-0.8642578,0.2158203-1.7998047,0.3598633-2.9521484,0.3598633
	c-3.4560547,0-6.1918945-2.159668-6.1918945-6.4077148c0-3.3842773,1.800293-5.6884766,4.3920898-6.7680664
	C60.1923828,29.4082031,61.9199219,29.1201172,63.5761719,28.9038086L63.5761719,28.9038086z M9.144043,42.8720703v-3.815918
	c0.9360352-0.2163086,1.800293-0.8642578,2.3041992-1.8720703c0.8637695-1.4399414,0.7919922-2.7358398,0.7919922-4.3920898l0,0
	v-0.8637695c-1.0800781,0-2.1601562,0.0717773-3.0961914,0.2875977v-3.3120117
	c1.0800781-0.144043,2.1601562-0.2158203,3.0961914-0.2875977v-0.5761719c0-1.0078125,0.0717773-2.1601562-0.5039062-3.0239258
	c-0.5039062-0.7202148-1.4404297-1.0800781-2.3041992-1.0800781c-0.144043,0-0.2158203,0-0.2880859,0v-4.3920898
	c0.2880859,0,0.5761719,0,0.8642578,0c2.0161133,0,4.6079102,0.5761719,6.2636719,2.0878906
	c2.0161133,1.8720703,1.800293,4.3920898,1.800293,7.1279297v6.4804688c0,1.9438477,0.7919922,2.8076172,1.5839844,3.815918
	c0.2158203,0.3598633,0.2880859,0.7919922-0.0722656,1.0795898c-0.7919922,0.7202148-2.3037109,2.0161133-3.1679688,2.7363281l0,0
	c-0.2880859,0.2158203-0.6479492,0.2158203-1.0078125,0.0717773c-1.3681641-1.1518555-1.5839844-1.6557617-2.3759766-2.7358398
	C11.6640625,41.6479492,10.512207,42.4399414,9.144043,42.8720703L9.144043,42.8720703z M27.7919922,42.9438477h-4.1757812
	c-0.4321289-0.0717773-0.7202148-0.3598633-0.7202148-0.7197266V20.9838867c0-0.4321289,0.3603516-0.7919922,0.7919922-0.7919922
	h3.815918c0.4321289,0,0.7919922,0.3598633,0.7919922,0.7202148v2.8081055h0.0722656
	c1.0078125-2.7363281,2.8798828-3.9604492,5.472168-3.9604492c2.5917969,0,4.2475586,1.2241211,5.3999023,3.9604492
	c1.0078125-2.7363281,3.2397461-3.9604492,5.6879883-3.9604492c1.7998047,0,3.671875,0.7202148,4.8237305,2.3041992
	c1.2963867,1.800293,1.0800781,4.3920898,1.0800781,6.6958008v13.3920898c0,0.4321289-0.3598633,0.7919922-0.8637695,0.7919922
	h-4.1040039c-0.4321289-0.0717773-0.7202148-0.3598633-0.7202148-0.7919922V30.9199219
	c0-0.8637695,0.0722656-3.1679688-0.144043-3.9599609c-0.2880859-1.4399414-1.2236328-1.8720703-2.4477539-1.8720703
	c-1.0083008,0-2.0161133,0.6479492-2.4482422,1.7280273c-0.4316406,1.0800781-0.4316406,2.8798828-0.4316406,4.1040039v11.2319336
	c0,0.4321289-0.3603516,0.7919922-0.7919922,0.7919922h-4.1762695c-0.3598633-0.0717773-0.7197266-0.3598633-0.7197266-0.7919922
	V30.9199219c0-2.3759766,0.3598633-5.9038086-2.5200195-5.9038086c-3.0239258,0-2.8803711,3.4560547-2.8803711,5.9038086v11.2319336
	C28.5839844,42.5839844,28.2241211,42.9438477,27.7919922,42.9438477z M9.144043,19.5439453v4.3920898
	c-1.4399414,0.144043-2.7358398,0.9360352-3.0957031,2.5200195c-0.0722656,0.3598633-0.2880859,0.7197266-0.7202148,0.7919922
	l-4.0322266-0.5039062c-0.2875977-0.0722656-0.7197266-0.2880859-0.5756836-0.8642578
	C1.5839844,21.34375,5.472168,19.7597656,9.144043,19.5439453L9.144043,19.5439453z M9.144043,28.9038086v3.3120117
	c-1.7280273,0.5043945-3.0957031,1.5839844-3.0957031,3.8881836c0,1.7998047,0.9360352,3.0239258,2.5200195,3.0239258
	c0.2158203,0,0.4316406-0.0717773,0.5756836-0.0717773v3.815918c-0.8637695,0.2158203-1.7998047,0.3598633-2.9516602,0.3598633
	C2.7363281,43.2319336,0,41.0722656,0,36.8242188c0-3.3842773,1.800293-5.6884766,4.4643555-6.7680664
	C5.8320312,29.4082031,7.4882812,29.1201172,9.144043,28.9038086z"/>
<path id="path3" fill="#010101" d="M15.5058594,41.2666016c0,6.3125-2.8203125,8.5947266-7.5205078,8.5947266H1.2705078V19.777832
	h6.7148438c5.2373047,0,6.5805664,3.0893555,6.5805664,8.1928711c0,3.7602539-1.3432617,5.7749023-3.6254883,5.9086914
	C13.4912109,33.8793945,15.5058594,36.4316406,15.5058594,41.2666016L15.5058594,41.2666016z M6.5078125,35.6254883v10.6103516
	h1.3427734c1.6123047,0,2.0146484-0.9418945,2.0146484-5.5063477c0-3.3579102-0.4023438-5.1040039-2.1489258-5.1040039H6.5078125
	L6.5078125,35.6254883z M6.5078125,23.2705078V32h1.3427734c1.3427734,0,1.6123047-1.3427734,1.6123047-3.8955078
	c0-3.4916992-0.269043-4.8339844-2.0151367-4.8339844H6.5078125L6.5078125,23.2705078z"/>
<path id="path5" fill="#010101" d="M45.1855469,34.4169922c3.3569336,0.9399414,3.7602539,4.9697266,3.7602539,8.5952148
	c0,2.8217773,0.1337891,5.371582,0.5375977,6.8481445h-5.5053711c-0.1347656-1.2084961-0.402832-1.7456055-0.402832-4.5673828
	c0-1.0742188,0-2.2807617,0-3.7592773c0-2.4165039-0.8061523-4.1625977-2.5517578-4.7001953h-0.2685547v13.0268555h-5.5053711
	V19.777832h8.0571289c3.7602539,0,6.3125,2.1489258,6.3125,7.6547852
	C49.6176758,32.1337891,47.6030273,34.1484375,45.1855469,34.4169922L45.1855469,34.4169922z M40.753418,23.5385742v8.7294922
	h1.6118164c1.3427734,0,1.7460938-0.9404297,1.7460938-3.6259766c0-4.4321289-0.8061523-5.1035156-2.4169922-5.1035156H40.753418
	L40.753418,23.5385742L40.753418,23.5385742z"/>
<path id="path7" fill="#010101" d="M58.75,33.4775391c0.2680664,4.0283203,0.2680664,5.1030273,0.2680664,8.7290039
	c0,2.2822266,0,7.6542969,0,7.6542969h-4.96875V19.777832h4.96875c0,0,2.2836914,8.8642578,2.8203125,10.7446289
	c0.5375977,1.8793945,0.9399414,3.3564453,1.2084961,4.699707c-0.1342773-2.9541016-0.2685547-6.5800781-0.2685547-9.5351562
	c0-2.2822266,0-5.9091797,0-5.9091797h4.8354492v30.0825195h-4.4321289c0,0-2.6855469-9.2666016-3.2231445-11.1464844
	C59.5556641,37.2368164,59.1523438,35.6254883,58.75,33.4775391L58.75,33.4775391L58.75,33.4775391z"/>
<polygon id="polygon9" fill="#010101" points="77.6860352,45.2939453 84.265625,45.2939453 84.265625,49.8613281
	72.4487305,49.8613281 72.4487305,19.777832 83.4609375,19.777832 83.4609375,24.3442383 77.6860352,24.3442383
	77.6860352,32.4018555 82.7890625,32.4018555 82.7890625,36.5654297 77.6860352,36.5654297 "/>
<path id="path11" fill="#010101" d="M92.0561523,42.8774414c0,3.3583984,0.8056641,3.8955078,2.0141602,3.8955078
	c0.940918,0,1.6113281-0.5371094,1.6113281-3.8955078c0-2.9550781-2.0136719-5.1030273-4.1635742-7.7885742
	c-2.1479492-2.418457-4.4311523-5.7749023-4.4311523-8.5952148c0-4.5664062,2.1489258-7.1176758,6.3120117-7.1176758
	s6.4458008,2.2822266,6.4458008,6.715332c0,0.9389648-0.2680664,1.746582-0.402832,2.4165039h-4.4316406
	c0-0.5371094,0.1342773-1.2084961,0.1342773-2.1484375c0-2.8208008-0.402832-3.7607422-1.6113281-3.7607422
	s-1.3422852,1.2089844-1.3422852,3.3574219c0,2.6860352,2.1489258,4.8354492,3.894043,7.1181641
	c2.5517578,3.2226562,4.5664062,5.7753906,4.5664062,8.8632812c0,4.8359375-2.0151367,8.4599609-6.7148438,8.4599609
	c-4.0292969,0-6.715332-2.1464844-6.715332-7.3842773c0-1.2089844,0-2.2832031,0.2685547-3.2241211l4.8359375-0.1342773
	C92.1894531,40.862793,92.0561523,41.5341797,92.0561523,42.8774414L92.0561523,42.8774414L92.0561523,42.8774414z"/>
<path id="path13" fill="#010101" d="M137.5844727,33.4775391c0.2670898,4.0283203,0.2670898,5.1030273,0.2670898,8.7290039
	c0,2.2822266,0,7.6542969,0,7.6542969h-4.9692383V19.777832h4.9692383c0,0,2.2836914,8.8642578,2.8203125,10.7446289
	c0.5380859,1.8793945,0.9394531,3.3564453,1.074707,4.699707c-0.1347656-2.9541016-0.1347656-6.5800781-0.1347656-9.5351562
	c0-2.2822266,0-5.9091797,0-5.9091797h4.8354492v30.0825195h-4.4311523c0,0-2.6870117-9.2666016-3.2231445-11.1464844
	C138.3881836,37.2368164,137.9863281,35.6254883,137.5844727,33.4775391L137.5844727,33.4775391z"/>
<path id="path15" fill="#010101" d="M164.5766602,34.8203125c0,12.8925781-2.1479492,15.5771484-7.1176758,15.5771484
	c-4.5654297,0-6.9824219-2.0136719-6.9824219-15.5771484c0-13.1621094,1.8793945-15.4443359,6.9824219-15.4443359
	C162.6972656,19.3754883,164.5766602,21.6582031,164.5766602,34.8203125L164.5766602,34.8203125z M158.9345703,34.8203125
	c0-4.7006836,0-7.6552734-0.1328125-9.8041992c-0.1342773-2.1484375-0.5380859-2.5517578-1.3427734-2.5517578
	c-0.8066406,0-1.2084961,0.402832-1.3413086,2.5517578c-0.1347656,2.1494141-0.1347656,5.1035156-0.1347656,9.8041992
	c0,5.5063477,0,7.6542969,0.1347656,9.6694336c0.1328125,2.2827148,0.5361328,2.5522461,1.3413086,2.5522461
	c0.940918,0,1.2089844-0.1347656,1.3427734-2.5522461C158.9345703,42.3408203,158.9345703,40.3266602,158.9345703,34.8203125
	L158.9345703,34.8203125z"/>
<path id="path17" fill="#010101" d="M182.8408203,41.2666016c0,6.3125-2.8203125,8.5947266-7.5205078,8.5947266h-6.7158203
	V19.777832h6.7158203c5.2373047,0,6.5805664,3.0893555,6.5805664,8.1928711c0,3.7602539-1.3432617,5.7749023-3.6264648,5.9086914
	C180.8266602,33.8793945,182.8408203,36.4316406,182.8408203,41.2666016L182.8408203,41.2666016z M173.8427734,35.6254883
	v10.6103516h1.3432617c1.6103516,0,2.0161133-0.9418945,2.0161133-5.5063477c0-3.3579102-0.4042969-5.1040039-2.1494141-5.1040039
	H173.8427734L173.8427734,35.6254883z M173.8427734,23.2705078V32h1.3432617c1.3408203,0,1.6103516-1.3427734,1.6103516-3.8955078
	c0-3.4916992-0.4018555-4.8339844-2.0141602-4.8339844H173.8427734L173.8427734,23.2705078z"/>
<polygon id="polygon19" fill="#010101" points="192.1069336,45.2939453 198.4194336,45.2939453 198.4194336,49.8613281
	186.6020508,49.8613281 186.6020508,19.777832 192.1069336,19.777832 "/>
<polygon id="polygon21" fill="#010101" points="206.6123047,45.2939453 213.1923828,45.2939453 213.1923828,49.8613281
	201.3725586,49.8613281 201.3725586,19.777832 212.387207,19.777832 212.387207,24.3442383 206.6123047,24.3442383
	206.6123047,32.4018555 211.715332,32.4018555 211.715332,36.5654297 206.6123047,36.5654297 "/>
<path id="path23" fill="#010101" d="M17.5200195,49.8613281l4.296875-30.2167969h5.237793l5.1040039,30.2167969h-5.6401367
	l-0.5371094-4.8359375h-3.3574219l-0.5366211,4.8359375H17.5200195L17.5200195,49.8613281z M23.0263672,41.6694336h2.6865234
	c0,0-0.4033203-3.4916992-0.671875-5.7749023c-0.1337891-1.3427734-0.671875-5.7749023-0.8061523-8.5947266
	c-0.1342773,2.9545898-0.5375977,7.2524414-0.671875,8.5947266C23.4296875,38.1772461,23.0263672,41.6694336,23.0263672,41.6694336
	L23.0263672,41.6694336z"/>
<path id="path25" fill="#D05727" d="M126.5708008,34.1484375c-2.1489258,0-3.6264648,1.3427734-4.5664062,3.3574219
	c-0.9404297,2.0146484-2.0151367,4.5654297-2.6865234,5.9082031c-2.2827148-4.0273438-4.0283203-7.1171875-5.1035156-9.9365234
	c1.7451172-1.0742188,4.8344727-2.5522461,6.715332-4.1635742c1.7460938-1.6123047,2.5507812-3.2236328,2.9541016-4.9697266
	c0.5380859-3.3574219-1.3432617-6.3115234-5.6396484-6.3115234c-3.6259766,0-7.9248047,2.8198242-8.7285156,7.5200195
	c-0.4013672,2.2836914,0.1328125,5.371582,1.0732422,7.9243164c-3.222168,2.1479492-6.0424805,4.5654297-6.8476562,8.3261719
	c-0.940918,6.3115234,2.9555664,9.1303711,7.3862305,9.1303711c2.9560547,0,5.2373047-1.3417969,7.1181641-3.3564453
	c1.3413086,1.4775391,3.0888672,3.3564453,5.237793,3.3564453c1.7460938,0,3.6254883-1.074707,5.1035156-2.953125
	l-0.671875-0.9399414c-1.3417969,1.3413086-2.2822266,1.8789062-3.0888672,1.8789062
	c-1.4770508,0-2.8193359-1.3422852-4.1635742-3.2216797c-0.1328125-0.4057617-0.2680664-0.6748047-0.402832-0.9433594
	c0.8066406-1.6098633,1.3422852-3.355957,2.1484375-4.9682617c1.34375-2.9545898,2.1494141-4.0292969,3.359375-4.0292969
	c2.1474609,0,0.4013672,3.4921875,2.6860352,3.4921875c1.0742188,0,1.6108398-0.8051758,1.7446289-1.7456055
	C130.3310547,36.296875,129.5253906,34.1484375,126.5708008,34.1484375L126.5708008,34.1484375L126.5708008,34.1484375z
	 M113.1401367,24.7475586c0.269043-2.1489258,2.1494141-4.4321289,4.9692383-4.4321289
	c2.1479492,0,3.6259766,1.6118164,3.0874023,4.1635742c-0.1328125,0.9399414-0.4008789,1.8803711-1.340332,3.0893555
	c-1.074707,1.2080078-4.5668945,3.3564453-6.1787109,4.296875
	C112.8706055,29.4477539,112.6030273,27.1650391,113.1401367,24.7475586L113.1401367,24.7475586z M112.3359375,48.9213867
	c-4.1635742,0-5.6401367-3.4897461-5.2387695-6.1782227c0.5375977-3.3564453,2.1484375-5.371582,4.1621094-7.2514648
	c1.4785156,3.6264648,3.3588867,7.2514648,6.0449219,11.0136719
	C115.8261719,48.2490234,114.4848633,48.9213867,112.3359375,48.9213867L112.3359375,48.9213867z"/>
<path id="path27" fill="#FFFFFF" d="M112.0664062,23.5385742c0,0-2.8193359,4.4321289,1.2089844,13.1611328
	c3.2231445,7.2524414,7.1176758,11.2822266,7.1176758,11.2822266s-3.8955078-5.371582-6.5805664-11.8168945
	C110.5883789,28.2392578,112.0664062,23.5385742,112.0664062,23.5385742L112.0664062,23.5385742L112.0664062,23.5385742z"/>
</svg>
