<?xml version="1.0" encoding="utf-8"?>
<!-- Generator: Adobe Illustrator 16.0.3, SVG Export Plug-In . SVG Version: 6.00 Build 0)  -->
<svg version="1.2" baseProfile="tiny" id="Layer_1" xmlns="http://www.w3.org/2000/svg" xmlns:xlink="http://www.w3.org/1999/xlink"
	 x="0px" y="0px" width="100%" height="100%" viewBox="0 0 213.1923828 70.9360352" xml:space="preserve">
<path display="none" fill-rule="evenodd" fill="#FAB125" d="M83.2324219,51.0800781
	c-0.9365234,0.7197266-1.9443359,1.3681641-2.9521484,1.9438477V50c0.5756836-0.2158203,1.2236328-0.5039062,1.7998047-0.7197266
	C83.3759766,48.7041016,84.5283203,50.144043,83.2324219,51.0800781L83.2324219,51.0800781z M90.0722656,46.0400391
	c0-0.5761719-0.144043-1.0078125-0.2880859-1.2241211c-0.6479492-0.7919922-5.3999023-1.5117188-9.5039062-0.2880859v2.2319336
	c2.5200195-0.2158203,5.4716797-0.2875977,6.1918945,0.6484375c1.0078125,1.2236328-1.1518555,6.5517578-2.0878906,8.855957
	c-0.2880859,0.7197266,0.3598633,1.0078125,1.0078125,0.5039062C88.6323242,54.0322266,90,49.0639648,90.0722656,46.472168
	V46.0400391z M80.2802734,53.0239258c-7.5600586,4.5361328-17.3520508,6.9121094-25.8481445,6.9121094
	c-13.6801758,0-25.9199219-5.0400391-35.2080078-13.4638672c-0.7919922-0.6479492-0.144043-1.5839844,0.7919922-1.0800781
	c10.0083008,5.8320312,22.3920898,9.3598633,35.2080078,9.3598633C63.2880859,54.7519531,72,53.2402344,80.2802734,50V53.0239258
	L80.2802734,53.0239258z M80.2802734,44.527832c-1.1523438,0.3603516-2.1601562,0.8642578-3.0961914,1.512207
	c-0.7197266,0.5039062-0.5756836,1.1518555,0.144043,1.0800781c0.7919922-0.144043,1.7998047-0.2163086,2.9521484-0.3603516
	V44.527832z"/>
<path display="none" fill-rule="evenodd" d="M211.0322266,24.4399414v-0.3598633
	c1.0078125,0,1.7998047-0.7919922,1.7998047-1.7998047c0-1.0083008-0.8637695-1.800293-1.7998047-1.800293v-0.3598633l0,0
	c1.1518555,0,2.1601562,0.9360352,2.1601562,2.1601562C213.1923828,23.4321289,212.184082,24.4399414,211.0322266,24.4399414
	L211.0322266,24.4399414L211.0322266,24.4399414z M211.0322266,22.4960938h0.0717773
	c0.144043,0,0.2163086,0.0717773,0.2163086,0.2158203c0,0.0722656,0.0717773,0.6479492,0.144043,0.7919922h0.5039062
	c-0.0722656-0.144043-0.144043-0.4316406-0.144043-0.6479492c-0.0722656-0.2880859-0.0722656-0.5039062-0.4321289-0.5756836
	c0.2163086-0.0722656,0.5039062-0.1445312,0.5039062-0.5761719c0-0.6479492-0.5756836-0.6479492-0.8637695-0.6479492l0,0v0.3598633
	l0,0c0.144043,0,0.3598633,0,0.3598633,0.3598633c0,0.144043-0.0717773,0.3598633-0.3598633,0.3598633l0,0V22.4960938z
	 M211.0322266,20.1201172v0.3598633l0,0c-1.0078125,0-1.8720703,0.7919922-1.8720703,1.800293
	c0,1.0078125,0.8642578,1.7998047,1.8720703,1.7998047l0,0v0.3598633c-1.2241211,0-2.2319336-0.9360352-2.2319336-2.159668
	C208.800293,21.0561523,209.8081055,20.1201172,211.0322266,20.1201172L211.0322266,20.1201172z M211.0322266,21.0561523h-0.8642578
	v2.4477539l0,0h0.5043945v-1.0078125h0.3598633v-0.3603516h-0.3598633v-0.7197266h0.3598633V21.0561523L211.0322266,21.0561523z
	 M168.6240234,43.3759766v-2.9521484c1.8720703-0.0717773,3.3842773-1.2236328,4.3203125-3.1679688
	c0.7919922-1.7998047,0.9360352-3.8876953,0.9360352-5.8320312c0-2.159668-0.2163086-4.3916016-1.2241211-6.2636719
	c-0.8642578-1.5839844-2.4482422-2.5922852-4.0322266-2.6640625v-2.8798828l0,0h0.144043h0.2163086
	c5.7597656,0,8.6396484,5.8320312,8.6396484,11.8798828C177.6240234,37.7597656,174.4560547,43.3041992,168.6240234,43.3759766
	L168.6240234,43.3759766z M180.6479492,42.9438477c-0.4316406-0.0717773-0.7919922-0.3598633-0.7919922-0.7919922V20.9121094
	c0.0722656-0.3603516,0.3603516-0.6479492,0.7919922-0.7202148h1.512207c0.4321289,0,0.7202148,0.3598633,0.7919922,0.7202148
	v3.0957031c1.0800781-2.4477539,3.0961914-4.3916016,5.6162109-4.3916016h0.2158203h0.144043
	c2.6640625,0,4.6801758,2.015625,5.3999023,4.8959961c1.1518555-2.8081055,3.3120117-4.8959961,6.1918945-4.8959961h0.144043
	h0.144043c2.0161133,0,3.9599609,1.2958984,4.9682617,3.3120117c0.9355469,1.871582,0.9355469,4.3916016,0.9355469,6.4799805
	v12.7436523c0,0.4321289-0.3598633,0.7202148-0.7919922,0.7919922h-1.7998047
	c-0.3598633-0.0717773-0.7197266-0.2875977-0.7919922-0.7197266v-12.815918c0-1.512207,0.0722656-3.1679688-0.5039062-4.5361328
	c-0.6479492-1.4399414-1.8720703-2.3041992-3.1679688-2.3759766c-1.4399414,0.0717773-2.7363281,1.1518555-3.6000977,2.5917969
	c-1.1518555,1.800293-1.0800781,3.4560547-1.0800781,5.6162109v11.5917969
	c-0.0717773,0.2880859-0.3598633,0.5761719-0.7919922,0.6479492h-1.7998047
	c-0.4321289-0.0717773-0.7919922-0.3598633-0.7919922-0.7919922V28.5439453c0-1.2241211-0.0722656-2.7358398-0.6479492-3.815918
	c-0.6484375-1.2958984-1.8720703-2.1601562-3.0961914-2.2319336c-1.3681641,0.0717773-2.6640625,1.0800781-3.4560547,2.2319336
	c-1.0078125,1.512207-1.2241211,3.3120117-1.2241211,5.184082v12.2397461c0,0.4321289-0.2875977,0.7202148-0.7197266,0.7919922
	H180.6479492L180.6479492,42.9438477z M168.6240234,19.6162109v2.8798828h-0.0717773
	c-1.800293,0.0717773-3.4560547,1.2958984-4.3198242,3.2397461c-0.7202148,1.65625-0.9365234,3.815918-0.9365234,5.6879883
	c0,2.0883789,0.2880859,4.4643555,1.1523438,6.2641602c0.7919922,1.5839844,2.3759766,2.7358398,4.1040039,2.7358398h0.0717773
	v2.9521484c-0.0717773,0-0.144043,0-0.144043,0h-0.2158203h-0.144043c-5.9038086,0-8.4960938-5.9760742-8.4960938-11.9521484
	C159.6240234,25.0878906,162.7202148,19.6879883,168.6240234,19.6162109L168.6240234,19.6162109z M104.5439453,43.3759766
	v-4.3198242c3.0961914-0.0722656,3.2402344-4.5361328,3.2402344-7.2001953c0-1.7998047-0.0722656-3.9599609-0.6479492-5.6879883
	c-0.4321289-1.4399414-1.2958984-2.0161133-2.5922852-2.0878906v-4.3203125
	c6.0483398,0.0722656,9.3603516,5.328125,9.3603516,12.0244141
	C113.9042969,38.2641602,110.2324219,43.3041992,104.5439453,43.3759766L104.5439453,43.3759766z M149.7602539,40.3520508
	c2.5917969-0.0717773,4.0317383-2.0878906,4.6079102-4.8959961c0.0722656-0.2880859,0.3598633-0.5761719,0.7197266-0.5761719
	h1.7285156c0.4316406,0,0.7919922,0.3603516,0.7919922,0.7202148c-0.7919922,4.6079102-3.6000977,7.7758789-7.6323242,7.7758789
	h-0.144043h-0.2158203c-5.8320312,0-8.3520508-5.8320312-8.3520508-11.8081055
	c0-5.9038086,2.5917969-11.9516602,8.4238281-11.9516602h0.144043h0.144043c4.1040039,0,6.9838867,3.1679688,7.6323242,7.8476562
	c0,0.2880859-0.3603516,0.6479492-0.7202148,0.6479492h-1.8720703c-0.3598633-0.0717773-0.5756836-0.3598633-0.6479492-0.7197266
	c-0.4321289-2.6640625-1.9438477-4.7519531-4.4638672-4.8242188c-3.9599609,0.144043-5.1123047,5.0400391-5.1123047,8.7841797
	C144.7919922,35.0239258,145.7280273,40.2080078,149.7602539,40.3520508L149.7602539,40.3520508z M140.7602539,41.2158203
	c0-1.0800781-0.9360352-1.9438477-2.0161133-1.9438477c-1.1518555,0-2.0878906,0.8637695-2.0878906,1.9438477
	s0.9360352,1.9443359,2.0878906,1.9443359C139.8242188,43.1601562,140.7602539,42.2958984,140.7602539,41.2158203
	L140.7602539,41.2158203z M121.8959961,42.9438477h-4.1040039C117.3603516,42.8720703,117,42.5839844,117,42.1518555V20.9121094
	c0.0722656-0.4321289,0.3603516-0.7202148,0.7919922-0.7202148h3.8881836c0.3598633,0,0.6479492,0.2880859,0.7202148,0.6479492
	v3.2402344h0.0717773c1.1518555-2.9521484,2.8081055-4.3203125,5.6879883-4.3203125
	c1.7998047,0,3.671875,0.6484375,4.8242188,2.5205078c1.0795898,1.7275391,1.0795898,4.5356445,1.0795898,6.6235352v13.3203125
	c-0.0717773,0.3598633-0.3598633,0.7197266-0.7919922,0.7197266h-4.1757812
	c-0.3598633-0.0717773-0.7202148-0.3598633-0.7202148-0.7197266V30.7758789c0-2.3759766,0.2880859-5.7597656-2.5917969-5.7597656
	c-1.0078125,0-1.9438477,0.6479492-2.4482422,1.7280273c-0.5756836,1.2958984-0.6479492,2.5917969-0.6479492,4.0317383v11.3759766
	C122.6879883,42.5839844,122.328125,42.9438477,121.8959961,42.9438477z M77.5439453,23.9360352v-3.0239258
	c0-0.4321289,0.3603516-0.7919922,0.7919922-0.7919922h13.6083984c0.4316406,0,0.7919922,0.3598633,0.7919922,0.7919922v2.5917969
	c0,0.4321289-0.3603516,1.0083008-1.0083008,1.9443359L84.6723633,35.527832
	c2.5917969-0.0717773,5.3999023,0.3603516,7.7758789,1.65625c0.5039062,0.3598633,0.6479492,0.7919922,0.7197266,1.2241211
	v3.1679688c0,0.4316406-0.5039062,0.9360352-1.0078125,0.7197266c-4.2480469-2.2319336-9.7919922-2.4477539-14.3999023,0
	c-0.5039062,0.2880859-1.0083008-0.2880859-1.0083008-0.7197266v-3.0244141c0-0.4316406,0-1.2958984,0.5043945-2.0878906
	l8.2080078-11.7358398h-7.128418C77.9042969,24.7280273,77.5439453,24.4399414,77.5439453,23.9360352L77.5439453,23.9360352z
	 M104.5439453,19.7597656v4.3203125l0,0c-3.0957031,0-3.2397461,4.1757812-3.2397461,6.7680664
	c0,2.6640625-0.0717773,8.2080078,3.1679688,8.2080078c0.0717773,0,0.0717773,0,0.0717773,0v4.3198242c0,0,0,0-0.0717773,0
	c-6.0478516,0-9.3598633-5.2558594-9.3598633-11.8081055c0-6.6240234,3.3837891-11.8081055,9.3598633-11.8081055
	C104.5439453,19.7597656,104.5439453,19.7597656,104.5439453,19.7597656L104.5439453,19.7597656z M63.5761719,42.8720703v-3.815918
	c0.9360352-0.2163086,1.7280273-0.8642578,2.3041992-1.8720703c0.7919922-1.4399414,0.7919922-2.7358398,0.7919922-4.3920898
	v-0.8637695c-1.0800781,0-2.1601562,0.0717773-3.0961914,0.2875977v-3.3120117
	c1.0800781-0.144043,2.1601562-0.2158203,3.0961914-0.2875977v-0.5761719c0-1.0078125,0.0717773-2.1601562-0.5043945-3.0239258
	c-0.5039062-0.7202148-1.5117188-1.0800781-2.3759766-1.0800781c-0.0717773,0-0.144043,0-0.2158203,0v-4.3920898
	c0.2880859,0,0.5761719,0,0.8642578,0c2.015625,0,4.6079102,0.5761719,6.1918945,2.0878906
	c2.015625,1.8720703,1.871582,4.3920898,1.871582,7.1279297v6.4804688c0,1.9438477,0.7919922,2.8076172,1.512207,3.815918
	c0.2880859,0.3598633,0.3598633,0.7919922,0,1.0795898c-0.7919922,0.7202148-2.3041992,2.0161133-3.1679688,2.7363281l0,0
	c-0.2880859,0.2158203-0.6479492,0.2158203-1.0078125,0.0717773c-1.3681641-1.1518555-1.5839844-1.6557617-2.3759766-2.7358398
	C66.0961914,41.6479492,64.9443359,42.4399414,63.5761719,42.8720703z M63.5761719,19.5439453v4.3920898
	c-1.512207,0.144043-2.7358398,0.9360352-3.0961914,2.5200195c-0.0717773,0.3598633-0.3598633,0.7197266-0.7197266,0.7919922
	l-4.0322266-0.5039062c-0.3598633-0.0722656-0.7197266-0.2880859-0.5756836-0.8642578
	C56.0161133,21.34375,59.8320312,19.7597656,63.5761719,19.5439453L63.5761719,19.5439453z M63.5761719,28.9038086v3.3120117
	c-1.7280273,0.5043945-3.0961914,1.5839844-3.0961914,3.8881836c0,1.7998047,0.9360352,3.0239258,2.5200195,3.0239258
	c0.2163086,0,0.3603516-0.0717773,0.5761719-0.0717773v3.815918c-0.8642578,0.2158203-1.7998047,0.3598633-2.9521484,0.3598633
	c-3.4560547,0-6.1918945-2.159668-6.1918945-6.4077148c0-3.3842773,1.800293-5.6884766,4.3920898-6.7680664
	C60.1923828,29.4082031,61.9199219,29.1201172,63.5761719,28.9038086L63.5761719,28.9038086z M9.144043,42.8720703v-3.815918
	c0.9360352-0.2163086,1.800293-0.8642578,2.3041992-1.8720703c0.8637695-1.4399414,0.7919922-2.7358398,0.7919922-4.3920898l0,0
	v-0.8637695c-1.0800781,0-2.1601562,0.0717773-3.0961914,0.2875977v-3.3120117
	c1.0800781-0.144043,2.1601562-0.2158203,3.0961914-0.2875977v-0.5761719c0-1.0078125,0.0717773-2.1601562-0.5039062-3.0239258
	c-0.5039062-0.7202148-1.4404297-1.0800781-2.3041992-1.0800781c-0.144043,0-0.2158203,0-0.2880859,0v-4.3920898
	c0.2880859,0,0.5761719,0,0.8642578,0c2.0161133,0,4.6079102,0.5761719,6.2636719,2.0878906
	c2.0161133,1.8720703,1.800293,4.3920898,1.800293,7.1279297v6.4804688c0,1.9438477,0.7919922,2.8076172,1.5839844,3.815918
	c0.2158203,0.3598633,0.2880859,0.7919922-0.0722656,1.0795898c-0.7919922,0.7202148-2.3037109,2.0161133-3.1679688,2.7363281l0,0
	c-0.2880859,0.2158203-0.6479492,0.2158203-1.0078125,0.0717773c-1.3681641-1.1518555-1.5839844-1.6557617-2.3759766-2.7358398
	C11.6640625,41.6479492,10.512207,42.4399414,9.144043,42.8720703L9.144043,42.8720703z M27.7919922,42.9438477h-4.1757812
	c-0.4321289-0.0717773-0.7202148-0.3598633-0.7202148-0.7197266V20.9838867c0-0.4321289,0.3603516-0.7919922,0.7919922-0.7919922
	h3.815918c0.4321289,0,0.7919922,0.3598633,0.7919922,0.7202148v2.8081055h0.0722656
	c1.0078125-2.7363281,2.8798828-3.9604492,5.472168-3.9604492c2.5917969,0,4.2475586,1.2241211,5.3999023,3.9604492
	c1.0078125-2.7363281,3.2397461-3.9604492,5.6879883-3.9604492c1.7998047,0,3.671875,0.7202148,4.8237305,2.3041992
	c1.2963867,1.800293,1.0800781,4.3920898,1.0800781,6.6958008v13.3920898c0,0.4321289-0.3598633,0.7919922-0.8637695,0.7919922
	h-4.1040039c-0.4321289-0.0717773-0.7202148-0.3598633-0.7202148-0.7919922V30.9199219
	c0-0.8637695,0.0722656-3.1679688-0.144043-3.9599609c-0.2880859-1.4399414-1.2236328-1.8720703-2.4477539-1.8720703
	c-1.0083008,0-2.0161133,0.6479492-2.4482422,1.7280273c-0.4316406,1.0800781-0.4316406,2.8798828-0.4316406,4.1040039v11.2319336
	c0,0.4321289-0.3603516,0.7919922-0.7919922,0.7919922h-4.1762695c-0.3598633-0.0717773-0.7197266-0.3598633-0.7197266-0.7919922
	V30.9199219c0-2.3759766,0.3598633-5.9038086-2.5200195-5.9038086c-3.0239258,0-2.8803711,3.4560547-2.8803711,5.9038086v11.2319336
	C28.5839844,42.5839844,28.2241211,42.9438477,27.7919922,42.9438477z M9.144043,19.5439453v4.3920898
	c-1.4399414,0.144043-2.7358398,0.9360352-3.0957031,2.5200195c-0.0722656,0.3598633-0.2880859,0.7197266-0.7202148,0.7919922
	l-4.0322266-0.5039062c-0.2875977-0.0722656-0.7197266-0.2880859-0.5756836-0.8642578
	C1.5839844,21.34375,5.472168,19.7597656,9.144043,19.5439453L9.144043,19.5439453z M9.144043,28.9038086v3.3120117
	c-1.7280273,0.5043945-3.0957031,1.5839844-3.0957031,3.8881836c0,1.7998047,0.9360352,3.0239258,2.5200195,3.0239258
	c0.2158203,0,0.4316406-0.0717773,0.5756836-0.0717773v3.815918c-0.8637695,0.2158203-1.7998047,0.3598633-2.9516602,0.3598633
	C2.7363281,43.2319336,0,41.0722656,0,36.8242188c0-3.3842773,1.800293-5.6884766,4.4643555-6.7680664
	C5.8320312,29.4082031,7.4882812,29.1201172,9.144043,28.9038086z"/>
<path id="path3" display="none" fill="#010101" d="M15.5058594,41.2666016c0,6.3125-2.8203125,8.5947266-7.5205078,8.5947266
	H1.2705078V19.777832h6.7148438c5.2373047,0,6.5805664,3.0893555,6.5805664,8.1928711
	c0,3.7602539-1.3432617,5.7749023-3.6254883,5.9086914C13.4912109,33.8793945,15.5058594,36.4316406,15.5058594,41.2666016
	L15.5058594,41.2666016z M6.5078125,35.6254883v10.6103516h1.3427734c1.6123047,0,2.0146484-0.9418945,2.0146484-5.5063477
	c0-3.3579102-0.4023438-5.1040039-2.1489258-5.1040039H6.5078125L6.5078125,35.6254883z M6.5078125,23.2705078V32h1.3427734
	c1.3427734,0,1.6123047-1.3427734,1.6123047-3.8955078c0-3.4916992-0.269043-4.8339844-2.0151367-4.8339844H6.5078125
	L6.5078125,23.2705078z"/>
<path id="path5" display="none" fill="#010101" d="M45.1855469,34.4169922
	c3.3569336,0.9399414,3.7602539,4.9697266,3.7602539,8.5952148c0,2.8217773,0.1337891,5.371582,0.5375977,6.8481445h-5.5053711
	c-0.1347656-1.2084961-0.402832-1.7456055-0.402832-4.5673828c0-1.0742188,0-2.2807617,0-3.7592773
	c0-2.4165039-0.8061523-4.1625977-2.5517578-4.7001953h-0.2685547v13.0268555h-5.5053711V19.777832h8.0571289
	c3.7602539,0,6.3125,2.1489258,6.3125,7.6547852C49.6176758,32.1337891,47.6030273,34.1484375,45.1855469,34.4169922
	L45.1855469,34.4169922z M40.753418,23.5385742v8.7294922h1.6118164c1.3427734,0,1.7460938-0.9404297,1.7460938-3.6259766
	c0-4.4321289-0.8061523-5.1035156-2.4169922-5.1035156H40.753418L40.753418,23.5385742L40.753418,23.5385742z"/>
<path id="path7" display="none" fill="#010101" d="M58.75,33.4775391c0.2680664,4.0283203,0.2680664,5.1030273,0.2680664,8.7290039
	c0,2.2822266,0,7.6542969,0,7.6542969h-4.96875V19.777832h4.96875c0,0,2.2836914,8.8642578,2.8203125,10.7446289
	c0.5375977,1.8793945,0.9399414,3.3564453,1.2084961,4.699707c-0.1342773-2.9541016-0.2685547-6.5800781-0.2685547-9.5351562
	c0-2.2822266,0-5.9091797,0-5.9091797h4.8354492v30.0825195h-4.4321289c0,0-2.6855469-9.2666016-3.2231445-11.1464844
	C59.5556641,37.2368164,59.1523438,35.6254883,58.75,33.4775391L58.75,33.4775391L58.75,33.4775391z"/>
<polygon id="polygon9" display="none" fill="#010101" points="77.6860352,45.2939453 84.265625,45.2939453 84.265625,49.8613281
	72.4487305,49.8613281 72.4487305,19.777832 83.4609375,19.777832 83.4609375,24.3442383 77.6860352,24.3442383
	77.6860352,32.4018555 82.7890625,32.4018555 82.7890625,36.5654297 77.6860352,36.5654297 "/>
<path id="path11" display="none" fill="#010101" d="M92.0561523,42.8774414c0,3.3583984,0.8056641,3.8955078,2.0141602,3.8955078
	c0.940918,0,1.6113281-0.5371094,1.6113281-3.8955078c0-2.9550781-2.0136719-5.1030273-4.1635742-7.7885742
	c-2.1479492-2.418457-4.4311523-5.7749023-4.4311523-8.5952148c0-4.5664062,2.1489258-7.1176758,6.3120117-7.1176758
	s6.4458008,2.2822266,6.4458008,6.715332c0,0.9389648-0.2680664,1.746582-0.402832,2.4165039h-4.4316406
	c0-0.5371094,0.1342773-1.2084961,0.1342773-2.1484375c0-2.8208008-0.402832-3.7607422-1.6113281-3.7607422
	s-1.3422852,1.2089844-1.3422852,3.3574219c0,2.6860352,2.1489258,4.8354492,3.894043,7.1181641
	c2.5517578,3.2226562,4.5664062,5.7753906,4.5664062,8.8632812c0,4.8359375-2.0151367,8.4599609-6.7148438,8.4599609
	c-4.0292969,0-6.715332-2.1464844-6.715332-7.3842773c0-1.2089844,0-2.2832031,0.2685547-3.2241211l4.8359375-0.1342773
	C92.1894531,40.862793,92.0561523,41.5341797,92.0561523,42.8774414L92.0561523,42.8774414L92.0561523,42.8774414z"/>
<path id="path13" display="none" fill="#010101" d="M137.5844727,33.4775391
	c0.2670898,4.0283203,0.2670898,5.1030273,0.2670898,8.7290039c0,2.2822266,0,7.6542969,0,7.6542969h-4.9692383V19.777832h4.9692383
	c0,0,2.2836914,8.8642578,2.8203125,10.7446289c0.5380859,1.8793945,0.9394531,3.3564453,1.074707,4.699707
	c-0.1347656-2.9541016-0.1347656-6.5800781-0.1347656-9.5351562c0-2.2822266,0-5.9091797,0-5.9091797h4.8354492v30.0825195
	h-4.4311523c0,0-2.6870117-9.2666016-3.2231445-11.1464844C138.3881836,37.2368164,137.9863281,35.6254883,137.5844727,33.4775391
	L137.5844727,33.4775391z"/>
<path id="path15" display="none" fill="#010101" d="M164.5766602,34.8203125
	c0,12.8925781-2.1479492,15.5771484-7.1176758,15.5771484c-4.5654297,0-6.9824219-2.0136719-6.9824219-15.5771484
	c0-13.1621094,1.8793945-15.4443359,6.9824219-15.4443359C162.6972656,19.3754883,164.5766602,21.6582031,164.5766602,34.8203125
	L164.5766602,34.8203125z M158.9345703,34.8203125c0-4.7006836,0-7.6552734-0.1328125-9.8041992
	c-0.1342773-2.1484375-0.5380859-2.5517578-1.3427734-2.5517578c-0.8066406,0-1.2084961,0.402832-1.3413086,2.5517578
	c-0.1347656,2.1494141-0.1347656,5.1035156-0.1347656,9.8041992c0,5.5063477,0,7.6542969,0.1347656,9.6694336
	c0.1328125,2.2827148,0.5361328,2.5522461,1.3413086,2.5522461c0.940918,0,1.2089844-0.1347656,1.3427734-2.5522461
	C158.9345703,42.3408203,158.9345703,40.3266602,158.9345703,34.8203125L158.9345703,34.8203125z"/>
<path id="path17" display="none" fill="#010101" d="M182.8408203,41.2666016c0,6.3125-2.8203125,8.5947266-7.5205078,8.5947266
	h-6.7158203V19.777832h6.7158203c5.2373047,0,6.5805664,3.0893555,6.5805664,8.1928711
	c0,3.7602539-1.3432617,5.7749023-3.6264648,5.9086914C180.8266602,33.8793945,182.8408203,36.4316406,182.8408203,41.2666016
	L182.8408203,41.2666016z M173.8427734,35.6254883v10.6103516h1.3432617c1.6103516,0,2.0161133-0.9418945,2.0161133-5.5063477
	c0-3.3579102-0.4042969-5.1040039-2.1494141-5.1040039H173.8427734L173.8427734,35.6254883z M173.8427734,23.2705078V32h1.3432617
	c1.3408203,0,1.6103516-1.3427734,1.6103516-3.8955078c0-3.4916992-0.4018555-4.8339844-2.0141602-4.8339844H173.8427734
	L173.8427734,23.2705078z"/>
<polygon id="polygon19" display="none" fill="#010101" points="192.1069336,45.2939453 198.4194336,45.2939453
	198.4194336,49.8613281 186.6020508,49.8613281 186.6020508,19.777832 192.1069336,19.777832 "/>
<polygon id="polygon21" display="none" fill="#010101" points="206.6123047,45.2939453 213.1923828,45.2939453
	213.1923828,49.8613281 201.3725586,49.8613281 201.3725586,19.777832 212.387207,19.777832 212.387207,24.3442383
	206.6123047,24.3442383 206.6123047,32.4018555 211.715332,32.4018555 211.715332,36.5654297 206.6123047,36.5654297 "/>
<path id="path23" display="none" fill="#010101" d="M17.5200195,49.8613281l4.296875-30.2167969h5.237793l5.1040039,30.2167969
	h-5.6401367l-0.5371094-4.8359375h-3.3574219l-0.5366211,4.8359375H17.5200195L17.5200195,49.8613281z M23.0263672,41.6694336
	h2.6865234c0,0-0.4033203-3.4916992-0.671875-5.7749023c-0.1337891-1.3427734-0.671875-5.7749023-0.8061523-8.5947266
	c-0.1342773,2.9545898-0.5375977,7.2524414-0.671875,8.5947266C23.4296875,38.1772461,23.0263672,41.6694336,23.0263672,41.6694336
	L23.0263672,41.6694336z"/>
<path id="path25" display="none" fill="#D05727" d="M126.5708008,34.1484375c-2.1489258,0-3.6264648,1.3427734-4.5664062,3.3574219
	c-0.9404297,2.0146484-2.0151367,4.5654297-2.6865234,5.9082031c-2.2827148-4.0273438-4.0283203-7.1171875-5.1035156-9.9365234
	c1.7451172-1.0742188,4.8344727-2.5522461,6.715332-4.1635742c1.7460938-1.6123047,2.5507812-3.2236328,2.9541016-4.9697266
	c0.5380859-3.3574219-1.3432617-6.3115234-5.6396484-6.3115234c-3.6259766,0-7.9248047,2.8198242-8.7285156,7.5200195
	c-0.4013672,2.2836914,0.1328125,5.371582,1.0732422,7.9243164c-3.222168,2.1479492-6.0424805,4.5654297-6.8476562,8.3261719
	c-0.940918,6.3115234,2.9555664,9.1303711,7.3862305,9.1303711c2.9560547,0,5.2373047-1.3417969,7.1181641-3.3564453
	c1.3413086,1.4775391,3.0888672,3.3564453,5.237793,3.3564453c1.7460938,0,3.6254883-1.074707,5.1035156-2.953125
	l-0.671875-0.9399414c-1.3417969,1.3413086-2.2822266,1.8789062-3.0888672,1.8789062
	c-1.4770508,0-2.8193359-1.3422852-4.1635742-3.2216797c-0.1328125-0.4057617-0.2680664-0.6748047-0.402832-0.9433594
	c0.8066406-1.6098633,1.3422852-3.355957,2.1484375-4.9682617c1.34375-2.9545898,2.1494141-4.0292969,3.359375-4.0292969
	c2.1474609,0,0.4013672,3.4921875,2.6860352,3.4921875c1.0742188,0,1.6108398-0.8051758,1.7446289-1.7456055
	C130.3310547,36.296875,129.5253906,34.1484375,126.5708008,34.1484375L126.5708008,34.1484375L126.5708008,34.1484375z
	 M113.1401367,24.7475586c0.269043-2.1489258,2.1494141-4.4321289,4.9692383-4.4321289
	c2.1479492,0,3.6259766,1.6118164,3.0874023,4.1635742c-0.1328125,0.9399414-0.4008789,1.8803711-1.340332,3.0893555
	c-1.074707,1.2080078-4.5668945,3.3564453-6.1787109,4.296875
	C112.8706055,29.4477539,112.6030273,27.1650391,113.1401367,24.7475586L113.1401367,24.7475586z M112.3359375,48.9213867
	c-4.1635742,0-5.6401367-3.4897461-5.2387695-6.1782227c0.5375977-3.3564453,2.1484375-5.371582,4.1621094-7.2514648
	c1.4785156,3.6264648,3.3588867,7.2514648,6.0449219,11.0136719
	C115.8261719,48.2490234,114.4848633,48.9213867,112.3359375,48.9213867L112.3359375,48.9213867z"/>
<path id="path27" display="none" fill="#FFFFFF" d="M112.0664062,23.5385742c0,0-2.8193359,4.4321289,1.2089844,13.1611328
	c3.2231445,7.2524414,7.1176758,11.2822266,7.1176758,11.2822266s-3.8955078-5.371582-6.5805664-11.8168945
	C110.5883789,28.2392578,112.0664062,23.5385742,112.0664062,23.5385742L112.0664062,23.5385742L112.0664062,23.5385742z"/>
<g display="none">
	<g display="inline">
		<path fill="#010101" d="M49.128418,24.1020508c0-3.972168-8.1645508-6.668457-10.7890625-0.7651367
			c-2.0410156-4.5927734-8.4926758-4.4399414-10.25,0.0366211l0.0014648-2.3447266
			c0-0.3549805-0.3251953-0.6806641-0.6806641-0.6806641h-3.6630859c-0.355957,0-0.6801758,0.3256836-0.6801758,0.6806641v19.815918
			c0,0.3554688,0.3242188,0.6811523,0.6801758,0.6811523h3.9370117c0.3564453,0,0.6704102-0.3256836,0.6704102-0.6811523V28.2792969
			c0-1.418457,0.5986328-3.0195312,2.1010742-3.3500977c1.6523438-0.3676758,2.9995117,0.5458984,2.9995117,2.4545898
			l-0.0014648,13.4609375c0,0.3554688,0.3242188,0.6811523,0.6806641,0.6811523h4.003418
			c0.355957,0,0.6806641-0.3256836,0.6806641-0.6811523l0.0004883-13.3510742c0-3.027832,5.0371094-3.8095703,5.0371094,0
			v13.3510742c0,0.3554688,0.324707,0.6811523,0.6806641,0.6811523h3.9116211c0.355957,0,0.6801758-0.3256836,0.6801758-0.6811523
			V24.1020508z"/>
		<path fill="#010101" d="M88.2802734,21.0615234c0-0.3549805-0.324707-0.6782227-0.6801758-0.6782227H74.6494141
			c-0.1791992,0-0.3574219,0.0756836-0.4833984,0.2011719c-0.1254883,0.1279297-0.1821289,0.3041992-0.1821289,0.4829102v2.7539062
			c0,0.3520508,0.34375,0.6689453,0.6972656,0.6689453h6.8076172l-7.7563477,11.3554688
			c-0.4433594,0.6484375-0.3666992,1.0517578-0.3666992,1.1855469l0.0068359,3.1591797
			c0,0.6777344,0.2514648,0.9799805,1.027832,0.6513672c4.7426758-2.003418,9.7958984-2.1235352,13.6049805,0.1552734
			c0.3115234,0.1884766,0.6884766-0.0146484,0.6884766-0.5463867l0.0009766-3.5473633
			c0-0.2304688-0.1245117-0.4541016-0.3178711-0.5737305c-2.2006836-1.3881836-4.9990234-1.7583008-7.7138672-1.7167969
			l7.25-10.078125c0.3476562-0.4838867,0.3676758-1.0004883,0.3676758-1.140625L88.2802734,21.0615234z"/>
		<path fill="#010101" d="M102.4165039,30.9638672c0,3.840332-0.1381836,6.9526367-3.0302734,6.9526367
			c-2.7529297,0-3.0283203-3.1123047-3.0283203-6.9526367s0.2299805-7,3.0283203-6.9550781
			C102.0942383,24.0537109,102.4165039,27.1235352,102.4165039,30.9638672z M108.2441406,30.8945312
			c-0.0029297-6.3178711-3.7114258-11.1191406-8.8579102-11.0605469c-5.1743164,0.0605469-8.8637695,4.9155273-8.8564453,11.1064453
			c0.0068359,6.3447266,3.769043,11.2001953,8.9492188,11.0600586
			C104.6342773,41.8603516,108.2470703,37.03125,108.2441406,30.8945312z"/>
		<path fill="#010101" d="M127.0800781,25.5712891c0-3.1416016-1.9013672-5.7373047-6.3530273-5.5996094
			c-2.0649414,0.0625-3.6748047,1.6337891-4.5688477,3.8554688v-2.8554688c0-0.3574219-0.3251953-0.6806641-0.6806641-0.6806641
			h-3.7998047c-0.355957,0-0.6806641,0.3232422-0.6806641,0.6806641v19.890625c0,0.355957,0.324707,0.6787109,0.6806641,0.6787109
			h3.9736328c0.3564453,0,0.6811523-0.3227539,0.6811523-0.6787109V28.3691406c0-1.8613281,1.59375-3.4316406,3.0634766-3.487793
			c1.2124023-0.0449219,2.4257812,1.1191406,2.4257812,2.4335938v13.5473633c0,0.355957,0.3237305,0.6787109,0.6791992,0.6787109
			h3.8999023c0.355957,0,0.6801758-0.3227539,0.6801758-0.6787109L127.0800781,25.5712891z"/>
		<path fill="#010101" d="M64.0053711,31.2563477v2.5766602c0,1.9985352-1.3261719,3.7001953-2.4213867,4.0292969
			c-2.1601562,0.6503906-3.5625-1.0268555-3.5087891-2.8164062c0.0664062-2.2607422,2.0546875-3.6396484,3.7338867-3.7026367
			L64.0053711,31.2563477z M69.3540039,25.1499023c0-3.3417969-2.8916016-5.4707031-8.4946289-5.2734375
			c-3.4204102,0.1191406-6.6743164,1.3911133-7.5131836,5.5249023c-0.0380859,0.1850586,0.0053711,0.3847656,0.1152344,0.5371094
			c0.1108398,0.1518555,0.2866211,0.2529297,0.4741211,0.2744141l3.4882812,0.3999023
			c0.3344727,0.0361328,0.6767578-0.2119141,0.7441406-0.5405273c0.2514648-1.3022461,1.2392578-2.2661133,2.6914062-2.2661133
			c2.1630859,0,3.0991211,1.1137695,3.0991211,2.5883789v1.9326172l-4.3105469,0.328125
			c-3.6459961,0.277832-7.0385742,2.6552734-7.1098633,7.2089844c-0.0649414,4.1923828,2.7192383,6.1904297,6.5200195,5.9960938
			c2.2631836-0.1191406,4.2373047-1.0864258,5.7333984-2.7529297l2.1518555,2.3945312
			c0.1210938,0.1342773,0.2988281,0.2177734,0.4799805,0.2241211c0.1816406,0.0058594,0.3647461-0.0625,0.4960938-0.1879883
			l2.7998047-2.6757812c0.2353516-0.2270508,0.2719727-0.6274414,0.0825195-0.8901367l-1.0307617-1.355957
			c-0.2084961-0.2744141-0.4169922-1.4990234-0.4169922-2.1943359V25.1499023z"/>
		<path fill="#010101" d="M13.0449219,31.253418v2.5742188c0,1.9975586-1.3251953,3.7001953-2.4208984,4.027832
			c-2.1601562,0.6513672-3.5620117-1.0268555-3.5087891-2.8164062c0.0664062-2.2597656,2.0556641-3.6357422,3.7333984-3.7021484
			L13.0449219,31.253418z M18.3935547,25.1435547c0-3.3413086-2.8916016-5.4702148-8.4936523-5.2734375
			c-3.4208984,0.1201172-6.6757812,1.3916016-7.5141602,5.527832c-0.0380859,0.1821289,0.0053711,0.3813477,0.1157227,0.534668
			c0.1103516,0.1513672,0.2866211,0.2568359,0.4726562,0.2773438l3.4897461,0.3964844
			c0.3339844,0.0395508,0.6767578-0.2084961,0.7436523-0.5400391c0.2519531-1.3027344,1.2407227-2.2631836,2.6923828-2.2631836
			c2.1616211,0,3.0981445,1.1108398,3.0981445,2.5854492v1.9355469L8.6875,28.6494141
			c-3.6450195,0.277832-7.0375977,2.6552734-7.109375,7.2084961c-0.0654297,4.1958008,2.71875,6.1938477,6.519043,5.9960938
			c2.2641602-0.1157227,4.237793-1.0839844,5.7338867-2.7529297l2.1523438,2.3950195
			c0.1206055,0.1337891,0.2983398,0.2177734,0.4799805,0.2270508c0.1811523,0.0058594,0.3642578-0.0629883,0.4956055-0.1884766
			l2.8007812-2.6777344c0.2348633-0.2246094,0.2714844-0.628418,0.0810547-0.8911133l-1.0292969-1.3525391
			c-0.2099609-0.277832-0.4179688-1.5019531-0.4179688-2.1977539V25.1435547z"/>
	</g>
	<g display="inline">
		<path fill="#010101" d="M133.3193359,40.0537109c0-1.0571289-0.8564453-1.9140625-1.9130859-1.9140625
			c-1.0571289,0-1.9135742,0.8569336-1.9135742,1.9140625s0.8564453,1.9111328,1.9135742,1.9111328
			C132.4628906,41.9648438,133.3193359,41.1108398,133.3193359,40.0537109z"/>
		<path fill="#010101" d="M148.5063477,27.4970703c0.1157227,0,0.230957-0.0483398,0.3105469-0.1337891
			c0.0791016-0.0844727,0.1210938-0.2036133,0.1132812-0.3198242c-0.2851562-3.9892578-2.8164062-7.2983398-7.4599609-7.2094727
			c-5.5991211,0.1049805-7.6816406,6.1459961-7.7558594,10.8310547c-0.0800781,5.0708008,1.6982422,11.0131836,7.7558594,11.3354492
			c4.3481445,0.2299805,7.2651367-3.5229492,7.4658203-7.4951172c0.0048828-0.1137695-0.0371094-0.2299805-0.1147461-0.3134766
			c-0.0795898-0.0834961-0.1918945-0.1411133-0.3066406-0.1411133h-1.9868164c-0.2036133,0-0.3935547,0.152832-0.4238281,0.3564453
			c-0.3745117,2.5380859-2.2949219,4.8134766-4.2661133,4.8398438c-3.5800781,0.0449219-4.8564453-4.9589844-4.9106445-8.3999023
			c-0.0454102-2.8901367,1.284668-8.1669922,4.7729492-8.215332c2.581543-0.0317383,4.0776367,2.0019531,4.40625,4.4980469
			c0.0268555,0.199707,0.2167969,0.3671875,0.4208984,0.3671875H148.5063477z"/>
		<path fill="#010101" d="M172.4365234,40.0537109c0-1.0571289-0.8564453-1.9140625-1.9130859-1.9140625
			c-1.0571289,0-1.9130859,0.8569336-1.9130859,1.9140625s0.855957,1.9111328,1.9130859,1.9111328
			C171.5800781,41.9648438,172.4365234,41.1108398,172.4365234,40.0537109z"/>
		<path fill="#010101" d="M164.2451172,30.9223633c0,4.6489258-1.4736328,8.4174805-4.9580078,8.4174805
			c-3.4389648-0.2207031-4.9580078-3.7685547-4.9580078-8.4174805c0-4.6494141,1.6083984-8.4658203,4.9580078-8.4208984
			C162.5917969,22.5458984,164.2451172,26.2729492,164.2451172,30.9223633z M167.7729492,30.8984375
			c0-6.1425781-2.9472656-11.0761719-8.4643555-11.1201172c-5.4711914,0.0439453-8.3735352,4.8461914-8.3735352,10.9882812
			c-0.0454102,6.8320312,2.5009766,10.9414062,8.3071289,11.2099609
			C164.2890625,42.0214844,167.7729492,37.6889648,167.7729492,30.8984375z"/>
		<path fill="#010101" d="M188.9902344,20.7392578c0-0.2211914-0.2026367-0.4238281-0.4257812-0.4238281h-2.2314453
			c-0.2231445,0-0.425293,0.2026367-0.425293,0.4238281l-0.0004883,12.5268555c0,1.1616211-1.1166992,5.4042969-4.6000977,5.8974609
			c-2.9282227,0.4125977-3.8989258-2.9501953-3.8989258-5.0488281V20.7392578c0-0.2211914-0.203125-0.4238281-0.425293-0.4238281
			h-2.3530273c-0.2231445,0-0.425293,0.2026367-0.425293,0.4238281l0.0004883,13.8671875
			c0,3.8852539,2.0927734,7.46875,6.0737305,7.5039062c2.621582,0.0214844,4.6591797-1.4624023,5.8271484-3.6186523v2.6308594
			c0,0.2241211,0.2016602,0.4272461,0.4248047,0.4272461h2.034668c0.222168,0,0.4248047-0.203125,0.4248047-0.4272461V20.7392578z"
			/>
		<path fill="#010101" d="M206.8544922,21.3457031c0.3291016-0.4306641,0.6699219-0.9433594-0.0883789-0.9433594
			l-2.3881836-0.003418c-0.1269531,0-0.2509766,0.0654297-0.3295898,0.1635742l-8.046875,10.3505859V13.2387695
			c0-0.2246094-0.2021484-0.4277344-0.4248047-0.4277344h-2.3208008c-0.2231445,0-0.4262695,0.203125-0.4262695,0.4277344
			v27.8925781c0,0.2241211,0.203125,0.4277344,0.4262695,0.4277344h2.3525391c0.2226562,0,0.425293-0.2036133,0.425293-0.4277344
			v-5.9389648c0-0.0957031,0.0317383-0.1879883,0.0878906-0.2626953l3.6762695-4.7807617l5.0683594,11.1621094
			c0.0673828,0.1459961,0.2250977,0.2480469,0.3867188,0.2480469h2.5322266c0.1435547,0,0.2841797-0.078125,0.3613281-0.2006836
			c0.0756836-0.1225586,0.0834961-0.2836914,0.0209961-0.4116211l-6.3144531-13.0883789L206.8544922,21.3457031z"/>
	</g>
	<g display="inline">
		<path fill="#010101" d="M211.7685547,21.6831055c0,0.0566406-0.0126953,0.1074219-0.0332031,0.1518555
			c-0.0234375,0.0483398-0.0571289,0.0898438-0.1030273,0.1254883c-0.0454102,0.0327148-0.1049805,0.0629883-0.1743164,0.0805664
			c-0.0693359,0.0214844-0.1508789,0.0273438-0.246582,0.0273438h-0.3515625v-0.7705078h0.3032227
			c0.0712891,0,0.128418,0.0029297,0.1743164,0.0058594c0.043457,0.0029297,0.0825195,0.0117188,0.1181641,0.0175781
			c0.112793,0.027832,0.1928711,0.0722656,0.2407227,0.1347656C211.7431641,21.515625,211.7685547,21.59375,211.7685547,21.6831055z
			 M212.3129883,23.2890625c0-0.0087891-0.0053711-0.0209961-0.0102539-0.0385742
			c-0.0058594-0.0175781-0.0185547-0.0473633-0.0366211-0.0893555l-0.2426758-0.5043945
			c-0.03125-0.0566406-0.0600586-0.1079102-0.0859375-0.1552734c-0.0302734-0.0449219-0.0585938-0.0869141-0.0898438-0.1235352
			c-0.0297852-0.0322266-0.0654297-0.0620117-0.1030273-0.0888672c-0.0356445-0.0268555-0.0756836-0.0444336-0.1196289-0.0625
			c0.0761719-0.0244141,0.1494141-0.0541992,0.2158203-0.0869141c0.0639648-0.0327148,0.1201172-0.0737305,0.1665039-0.1225586
			c0.0458984-0.0449219,0.0795898-0.0986328,0.1049805-0.1582031c0.0258789-0.0625,0.0395508-0.1313477,0.0395508-0.2084961
			c0-0.0786133-0.0161133-0.1494141-0.0415039-0.2148438c-0.0283203-0.0664062-0.0703125-0.1230469-0.1230469-0.1738281
			c-0.0571289-0.0507812-0.1240234-0.0922852-0.203125-0.1254883c-0.0830078-0.0327148-0.1772461-0.0571289-0.2802734-0.074707
			c-0.0356445-0.0029297-0.0756836-0.0029297-0.1230469-0.0078125c-0.0458984-0.003418-0.1049805-0.0063477-0.171875-0.0063477
			h-0.5771484c-0.0336914,0-0.0654297,0.0112305-0.0917969,0.0258789c-0.0292969,0.0214844-0.0419922,0.0541992-0.0419922,0.0991211
			v2.1166992c0,0.0092773,0.0029297,0.0185547,0.0078125,0.0244141c0.0048828,0.0087891,0.0131836,0.0141602,0.0288086,0.0180664
			c0.0131836,0.0024414,0.0297852,0.0053711,0.0561523,0.0083008c0.0224609,0.003418,0.0507812,0.003418,0.0878906,0.003418
			c0.0356445,0,0.0634766,0,0.0859375-0.003418c0.0229492-0.0029297,0.0410156-0.0058594,0.0541992-0.0083008
			c0.0131836-0.0039062,0.0229492-0.0092773,0.0307617-0.0180664c0.0043945-0.0058594,0.0102539-0.0151367,0.0102539-0.0244141
			V22.315918h0.2416992c0.0820312,0,0.1508789,0.0087891,0.2104492,0.0327148
			c0.0585938,0.0214844,0.1098633,0.0478516,0.1538086,0.0864258c0.043457,0.0395508,0.0825195,0.0805664,0.1132812,0.1313477
			c0.0307617,0.0517578,0.0610352,0.1074219,0.0917969,0.1669922l0.2490234,0.5410156
			c0.0048828,0.0146484,0.0126953,0.0239258,0.0205078,0.0332031c0.0083008,0.0112305,0.0180664,0.0200195,0.0332031,0.0239258
			c0.0136719,0.0053711,0.0307617,0.0053711,0.0537109,0.0117188c0.0234375,0,0.0546875,0,0.0908203,0
			c0.0405273,0,0.0761719,0,0.1015625,0c0.0234375-0.0063477,0.0415039-0.0063477,0.0595703-0.0117188
			c0.0126953-0.0039062,0.0205078-0.0092773,0.0253906-0.0180664
			C212.3100586,23.3076172,212.3129883,23.2983398,212.3129883,23.2890625z"/>
		<path fill="#010101" d="M210.7607422,23.7075195c-0.8066406-0.3222656-1.1992188-1.2363281-0.8759766-2.0429688
			c0.3212891-0.8056641,1.2368164-1.1967773,2.0415039-0.8745117c0.8056641,0.3222656,1.1977539,1.2358398,0.8754883,2.0424805
			C212.4799805,23.6381836,211.5654297,24.0302734,210.7607422,23.7075195z M213.1923828,22.25
			c0-0.2807617-0.0644531-0.5576172-0.1855469-0.8085938c-0.1635742-0.3378906-0.4331055-0.6245117-0.7607422-0.8066406
			c-0.6347656-0.3549805-1.4853516-0.2924805-2.050293,0.1640625c-0.5405273,0.4365234-0.8193359,1.1889648-0.6547852,1.8671875
			c0.0874023,0.3520508,0.2700195,0.6860352,0.5380859,0.934082c0.5136719,0.4658203,1.2973633,0.6298828,1.9404297,0.3706055
			c0.5219727-0.215332,0.9433594-0.6660156,1.0996094-1.2099609C213.1669922,22.59375,213.1923828,22.4208984,213.1923828,22.25z"/>
	</g>
</g>
<g display="none">
	<g display="inline">
		<path fill="#FCB129" d="M80.7827148,53.5209961c-0.796875,1.9052734,1.144043,0.6630859,1.3833008,0.4448242
			c2.6191406-2.3706055,4.5458984-9.4858398,3.3598633-10.5742188c-1.4946289-1.3666992-8.4365234-1.3549805-11.512207,0.890625
			c-1.284668,0.9404297-0.5649414,1.1225586,0.7915039,1.0390625c2.3701172-0.1494141,4.5014648-0.3046875,6.3242188-0.1494141
			c1.7285156,0.1494141,1.8266602,0.9912109,1.3823242,2.8154297C81.996582,50.1074219,81.6723633,51.3974609,80.7827148,53.5209961
			z"/>
		<path fill="#FCB129" d="M77.9384766,47.7905273c-17.9067383,7.3129883-38.5678711,6.2978516-55.5644531-2.6635742
			c-0.234375-0.1220703-1.0668945-0.6005859-2.0161133-1.074707c-0.7412109-0.3706055-0.8813477-0.2485352-1.0019531-0.1162109
			c-0.1665039,0.1787109-0.1040039,0.5039062,0.1601562,0.7426758c9.9804688,8.9912109,21.9794922,13.3154297,35.0795898,12.7480469
			c10.0009766-0.4355469,19.3193359-4.1025391,24.6552734-8.0053711c0.7871094-0.5766602,1.0693359-1.3256836,0.7416992-1.6782227
			C79.6567383,47.3818359,78.7700195,47.4506836,77.9384766,47.7905273z"/>
	</g>
</g>
<path fill="none" d="z"/>
<g>
	<path fill="#010101" d="M174.6142578,58.9116211V13.1235352h-8.7880859v2.9770508h4.762207v39.8349609h-4.762207v2.9760742
		H174.6142578L174.6142578,58.9116211z"/>
	<path fill="#010101" d="M39.2836914,58.9116211V13.1235352h8.7885742v2.9770508h-4.7626953v39.8349609h4.7626953v2.9760742
		H39.2836914L39.2836914,58.9116211z"/>
	<path fill="#F79420" d="M59.9404297,35.7333984h2.0136719c2.2167969,0,3.8583984-0.4736328,4.9233398-1.4228516
		c1.0649414-0.9482422,1.5976562-2.4433594,1.5976562-4.4848633v-0.7446289c0-0.2050781,0-0.3652344,0-0.480957
		c-0.1469727-1.6938477-0.6611328-2.9326172-1.5405273-3.7211914c-0.8789062-0.7871094-2.1850586-1.1811523-3.9140625-1.1811523
		h-3.0800781V35.7333984L59.9404297,35.7333984z M55.3447266,51.7529297V20.2402344h7.5717773
		c3.034668,0,5.3613281,0.597168,6.9804688,1.7949219c1.6196289,1.1967773,2.5532227,2.5888672,2.8012695,4.1787109
		c0.2475586,1.590332,0.3710938,2.8085938,0.3710938,3.6542969c0,2.8608398-0.9179688,5.0634766-2.7558594,6.6103516
		c-1.8383789,1.5458984-4.4511719,2.3173828-7.8349609,2.3173828h-2.5380859v12.9570312H55.3447266L55.3447266,51.7529297z"/>
	<path fill="#F79420" d="M81.9443359,37.625l6.6958008-0.0185547l-2.8291016-10.6269531
		c-0.0883789-0.409668-0.1689453-0.824707-0.2421875-1.2475586c-0.0742188-0.4223633-0.1396484-0.8969727-0.1977539-1.4223633
		L85.237793,23.128418c0,0.3520508-0.0263672,0.7382812-0.081543,1.1625977
		c-0.0561523,0.4238281-0.1230469,0.8852539-0.2060547,1.3818359l-0.1494141,0.6938477L84.671875,26.980957L81.9443359,37.625
		L81.9443359,37.625z M73.5957031,51.7529297l8.8847656-31.5126953h5.5161133l8.9272461,31.5126953l-4.7719727,0.0102539
		l-2.8632812-10.9042969l-8.0727539-0.0039062l-2.8916016,10.8979492H73.5957031L73.5957031,51.7529297z"/>
	<path fill="#F79420" d="M115.7436523,21.2026367l-0.7001953,3.1503906
		c-0.1469727-0.0854492-0.409668-0.2021484-0.7890625-0.3496094c-0.378418-0.1455078-0.9345703-0.3129883-1.6621094-0.5039062
		c-0.7319336-0.1879883-1.5332031-0.2836914-2.4082031-0.2836914c-2.3344727,0-4.0844727,1.0136719-5.2519531,3.0419922
		c-1.1669922,2.0283203-1.7504883,5.2451172-1.7504883,9.6508789c0,0.7885742,0.0151367,1.5742188,0.0439453,2.3623047
		c0.0283203,0.7880859,0.1318359,2.0512695,0.3071289,3.7866211c0.1743164,1.7363281,0.8671875,3.3120117,2.0791016,4.7270508
		c1.2104492,1.4150391,2.7773438,2.1235352,4.703125,2.1235352c1.4882812,0,3.1079102-0.4394531,4.8583984-1.3149414
		l0.6586914-0.3486328l0.6557617,3.2807617c-0.6425781,0.293457-1.0800781,0.4892578-1.3144531,0.5913086
		c-0.2319336,0.1020508-0.8818359,0.3217773-1.9462891,0.6572266c-1.065918,0.3349609-2.3857422,0.5048828-3.9614258,0.5048828
		c-3.2675781,0-5.8950195-1.1464844-7.8769531-3.4384766c-1.9858398-2.2880859-2.9770508-5.5649414-2.9770508-9.824707
		c0-6.3896484,0.9633789-11.1821289,2.887207-14.3774414c1.9267578-3.1948242,4.684082-4.7924805,8.2719727-4.7924805
		c0.671875,0,1.2705078,0.0292969,1.7944336,0.0874023c0.5263672,0.059082,1.152832,0.1904297,1.8833008,0.3950195
		l1.3129883,0.3930664l0.6118164,0.2182617L115.7436523,21.2026367L115.7436523,21.2026367z"/>
	<path fill="#F79420" d="M120.7749023,51.7529297V20.2402344h4.5087891V32.1875v1.0068359v1.0517578l0.1240234-0.3564453
		l0.206543-0.5341797c0.1665039-0.4165039,0.3330078-0.7426758,0.4990234-0.980957l8.5869141-12.1611328l4.9873047,0.0268555
		l-10.378418,14.6616211l11.9916992,16.8510742l-5.4750977,0.003418l-9.5395508-13.4814453
		c-0.3212891-0.4956055-0.5976562-1.0371094-0.8266602-1.621582l-0.1757812-0.5263672v0.612793v0.6132812v1.2255859v13.1743164
		H120.7749023L120.7749023,51.7529297z"/>
	<path fill="#F79420" d="M140.9956055,23.3046875v-3.0644531h19.8266602v3.1074219l-7.6586914,0.5688477v27.8364258h-4.5532227
		V23.9599609L140.9956055,23.3046875L140.9956055,23.3046875z"/>
	<path fill="#010101" d="M57.4189453,64.8017578c0.3012695,0,0.5771484-0.0634766,0.840332-0.1757812
		c0.2636719-0.112793,0.4892578-0.2636719,0.6899414-0.4516602c0.1884766-0.1879883,0.3510742-0.4262695,0.4638672-0.6899414
		s0.1635742-0.5390625,0.1635742-0.8276367s-0.0507812-0.5644531-0.1635742-0.8276367
		c-0.112793-0.2636719-0.2753906-0.4892578-0.4638672-0.6904297c-0.2006836-0.1875-0.4262695-0.3505859-0.6899414-0.4633789
		c-0.2631836-0.112793-0.5390625-0.1635742-0.840332-0.1635742H55.375c-0.112793,0-0.2011719,0.0380859-0.2758789,0.1132812
		c-0.0751953,0.0874023-0.112793,0.1757812-0.112793,0.2885742v7.2241211c0,0.112793,0.0375977,0.2001953,0.112793,0.2758789
		c0.074707,0.0751953,0.1630859,0.112793,0.2758789,0.112793s0.2006836-0.0375977,0.2758789-0.112793
		c0.0751953-0.0756836,0.112793-0.1630859,0.112793-0.2758789v-3.3359375H57.4189453L57.4189453,64.8017578z M55.7636719,64.0239258
		v-2.7338867h1.6552734c0.1884766,0,0.3637695,0.0371094,0.5273438,0.0996094
		c0.1625977,0.0756836,0.3129883,0.1757812,0.4384766,0.3012695s0.2255859,0.2758789,0.3007812,0.4389648
		c0.0629883,0.1630859,0.1000977,0.3383789,0.1000977,0.5268555c0.0004883,0.1879883-0.0371094,0.3637695-0.1000977,0.5268555
		c-0.0751953,0.1625977-0.175293,0.3134766-0.3007812,0.4389648s-0.2758789,0.2255859-0.4384766,0.2885742
		c-0.1635742,0.0751953-0.3388672,0.112793-0.5273438,0.112793H55.7636719L55.7636719,64.0239258z"/>
	<path fill="#010101" d="M66.2109375,66.8203125c0.1381836,0.3388672,0.3388672,0.6396484,0.5898438,0.890625
		c0.2504883,0.2509766,0.5512695,0.4511719,0.8901367,0.5893555c0.3388672,0.1508789,0.6899414,0.2260742,1.0786133,0.2260742
		c0.3891602,0,0.7529297-0.0751953,1.0913086-0.2260742c0.3383789-0.1381836,0.6274414-0.3383789,0.8779297-0.5893555
		c0.2509766-0.2509766,0.4511719-0.5517578,0.6020508-0.890625c0.1503906-0.3378906,0.2255859-0.6894531,0.2255859-1.078125
		v-4.815918c0-0.0878906-0.0371094-0.1884766-0.1005859-0.2768555c-0.0620117-0.0869141-0.1625977-0.1376953-0.2758789-0.1376953
		c-0.112793,0-0.2128906,0.0380859-0.2880859,0.1254883c-0.0756836,0.0878906-0.112793,0.1884766-0.112793,0.2763672v4.8286133
		c0,0.2758789-0.050293,0.5390625-0.1630859,0.7773438s-0.2504883,0.4516602-0.4389648,0.6269531
		c-0.1879883,0.1884766-0.4018555,0.3261719-0.6401367,0.4394531c-0.2382812,0.1123047-0.5019531,0.1630859-0.7773438,0.1630859
		c-0.2753906-0.0004883-0.5395508-0.0507812-0.7773438-0.1630859c-0.2509766-0.1132812-0.4643555-0.2509766-0.6401367-0.4394531
		c-0.1879883-0.175293-0.3256836-0.3886719-0.4262695-0.6269531c-0.112793-0.2382812-0.1630859-0.5014648-0.1630859-0.7773438
		v-4.815918c0-0.1132812-0.0375977-0.2011719-0.1000977-0.2890625c-0.0629883-0.0874023-0.1630859-0.1254883-0.2758789-0.1254883
		c-0.1123047,0-0.2133789,0.0380859-0.2885742,0.1254883c-0.074707,0.0878906-0.112793,0.1884766-0.112793,0.2763672v4.8286133
		C65.9853516,66.1308594,66.0605469,66.4824219,66.2109375,66.8203125L66.2109375,66.8203125L66.2109375,66.8203125z"/>
	<path fill="#010101" d="M82.4785156,61.690918c-0.1132812-0.2382812-0.2509766-0.4389648-0.4267578-0.6147461
		s-0.3759766-0.3134766-0.6147461-0.4135742c-0.2382812-0.1000977-0.4887695-0.1508789-0.7524414-0.1508789h-2.2324219
		c-0.112793,0-0.2001953,0.0380859-0.2753906,0.1132812s-0.1132812,0.1630859-0.1132812,0.2753906v7.2373047
		c0,0.112793,0.0375977,0.2001953,0.1132812,0.2758789c0.0751953,0.0751953,0.1625977,0.112793,0.2753906,0.112793h2.2324219
		c0.3388672,0,0.6518555-0.0625,0.953125-0.2011719c0.2885742-0.125,0.5517578-0.300293,0.7783203-0.5263672
		c0.2124023-0.2128906,0.3881836-0.4765625,0.5136719-0.777832c0.1254883-0.2875977,0.1879883-0.6015625,0.1879883-0.9404297
		c0-0.4643555-0.112793-0.8779297-0.3256836-1.2543945c-0.2260742-0.3637695-0.5273438-0.6518555-0.890625-0.8652344
		c0.2128906-0.1879883,0.3891602-0.4008789,0.5268555-0.6645508c0.1376953-0.2631836,0.2001953-0.5395508,0.2001953-0.840332
		C82.628418,62.1923828,82.5786133,61.9291992,82.4785156,61.690918L82.4785156,61.690918L82.4785156,61.690918z
		 M82.2148438,66.7202148c-0.0878906,0.2006836-0.2133789,0.3764648-0.3637695,0.5268555s-0.3261719,0.2758789-0.5263672,0.3637695
		c-0.2011719,0.0874023-0.4145508,0.1381836-0.6401367,0.1381836l-1.8432617-0.0004883v-3.3359375h1.8432617
		c0.2255859,0,0.4389648,0.0375977,0.6401367,0.1254883c0.2001953,0.0878906,0.3759766,0.2128906,0.5263672,0.3637695
		c0.1503906,0.1503906,0.2758789,0.3256836,0.3637695,0.5263672c0.0878906,0.2138672,0.1254883,0.4262695,0.1254883,0.6523438
		C82.340332,66.3061523,82.3027344,66.5195312,82.2148438,66.7202148L82.2148438,66.7202148L82.2148438,66.7202148z
		 M78.8413086,61.2900391h1.8432617c0.1630859,0,0.3134766,0.0244141,0.4516602,0.0869141
		c0.1381836,0.0634766,0.2631836,0.1508789,0.3759766,0.2509766c0.1005859,0.112793,0.1757812,0.2382812,0.2382812,0.3764648
		c0.0629883,0.1381836,0.0878906,0.2885742,0.0878906,0.4516602s-0.0249023,0.3134766-0.0878906,0.4516602
		c-0.0625,0.1376953-0.1376953,0.2631836-0.2382812,0.3637695c-0.112793,0.1123047-0.237793,0.2001953-0.3759766,0.2631836
		c-0.1381836,0.0625-0.2885742,0.1000977-0.4516602,0.1000977h-1.8432617V61.2900391L78.8413086,61.2900391z"/>
	<path fill="#010101" d="M89.4765625,68.1376953c0,0.112793,0.0375977,0.2001953,0.1132812,0.2758789
		c0.0751953,0.0751953,0.1625977,0.112793,0.2753906,0.112793h3.574707c0.112793,0,0.2006836-0.0375977,0.2758789-0.112793
		c0.0751953-0.0756836,0.112793-0.1630859,0.112793-0.2758789s-0.0375977-0.2011719-0.112793-0.2758789
		c-0.0751953-0.0756836-0.1630859-0.112793-0.2758789-0.112793l-3.1855469-0.0004883v-6.8481445
		c0-0.1123047-0.0375977-0.2001953-0.1132812-0.2753906c-0.0751953-0.0751953-0.1630859-0.1132812-0.2758789-0.1132812
		S89.6645508,60.5498047,89.5898438,60.625c-0.0756836,0.0751953-0.1132812,0.1630859-0.1132812,0.2753906V68.1376953
		L89.4765625,68.1376953z"/>
	<path fill="#010101" d="M100.2626953,68.1376953c0,0.112793,0.0375977,0.2001953,0.1123047,0.2758789
		c0.0756836,0.0751953,0.1635742,0.112793,0.2768555,0.112793c0.1123047,0,0.199707-0.0375977,0.2753906-0.112793
		c0.0756836-0.0756836,0.112793-0.1630859,0.112793-0.2758789v-7.2373047c0-0.1123047-0.0371094-0.2001953-0.112793-0.2753906
		s-0.1630859-0.1132812-0.2753906-0.1132812c-0.1132812,0-0.2011719,0.0380859-0.2768555,0.1132812
		c-0.074707,0.0751953-0.1123047,0.1630859-0.1123047,0.2753906V68.1376953L100.2626953,68.1376953z"/>
	<path fill="#010101" d="M111.0488281,68.3378906c0.3129883-0.1123047,0.5888672-0.2880859,0.8276367-0.5014648
		c0.237793-0.2133789,0.4257812-0.4638672,0.5639648-0.7524414s0.2133789-0.6015625,0.2133789-0.940918
		c0-0.3383789-0.050293-0.6269531-0.1503906-0.8652344c-0.1132812-0.237793-0.2514648-0.4516602-0.4389648-0.6391602
		c-0.1879883-0.1884766-0.4140625-0.3388672-0.6777344-0.4765625c-0.2631836-0.1381836-0.5512695-0.2636719-0.8652344-0.3764648
		c-0.1625977-0.0629883-0.3505859-0.1254883-0.5766602-0.2006836s-0.4389648-0.1630859-0.652832-0.2636719
		c-0.2124023-0.1005859-0.3881836-0.2133789-0.5263672-0.3510742c-0.1503906-0.1381836-0.2255859-0.2885742-0.2255859-0.4516602
		c0-0.237793,0.050293-0.4262695,0.1503906-0.5893555c0.1000977-0.1503906,0.2255859-0.2758789,0.3891602-0.3637695
		c0.1499023-0.0874023,0.3134766-0.1630859,0.5014648-0.2011719c0.1879883-0.0371094,0.3637695-0.0620117,0.5268555-0.0620117
		c0.112793,0,0.2382812,0,0.3759766,0.012207c0.1381836,0.0126953,0.2763672,0.0498047,0.4140625,0.1005859
		c0.1376953,0.050293,0.2631836,0.1254883,0.4018555,0.2128906c0.1376953,0.1000977,0.2504883,0.2382812,0.3505859,0.4018555
		c0.0625,0.0874023,0.1381836,0.1503906,0.2509766,0.1879883c0.1123047,0.0371094,0.2128906,0.012207,0.3129883-0.050293
		c0.1005859-0.0629883,0.1630859-0.1508789,0.1757812-0.2885742c0.0131836-0.125-0.0126953-0.2382812-0.0751953-0.3256836
		c-0.1499023-0.2133789-0.3134766-0.3759766-0.4887695-0.5141602c-0.1879883-0.1386719-0.3759766-0.2382812-0.5644531-0.3139648
		c-0.1879883-0.0756836-0.3891602-0.1254883-0.5766602-0.1625977c-0.2011719-0.0253906-0.3891602-0.0380859-0.5771484-0.0380859
		c-0.2758789,0-0.5522461,0.0380859-0.8286133,0.125c-0.2875977,0.0883789-0.5380859,0.2260742-0.7646484,0.3896484
		c-0.2255859,0.175293-0.4135742,0.3886719-0.5512695,0.6269531C107.8251953,61.9169922,107.75,62.2050781,107.75,62.5185547
		c0,0.2763672,0.0751953,0.5146484,0.2255859,0.7275391c0.1508789,0.2133789,0.3388672,0.4013672,0.5771484,0.5644531
		c0.2255859,0.1630859,0.4760742,0.2880859,0.7651367,0.4008789c0.2753906,0.1137695,0.5390625,0.2138672,0.7900391,0.2895508
		c0.2509766,0.0869141,0.4892578,0.175293,0.7021484,0.2753906c0.2133789,0.1005859,0.4018555,0.2128906,0.5639648,0.3388672
		c0.1640625,0.125,0.2890625,0.2758789,0.3764648,0.4384766c0.0878906,0.1630859,0.1259766,0.3637695,0.1259766,0.5893555
		c0,0.2260742-0.050293,0.4389648-0.1508789,0.6274414c-0.1000977,0.2006836-0.2255859,0.3759766-0.3891602,0.5136719
		c-0.1625977,0.1381836-0.362793,0.2509766-0.5761719,0.3388672s-0.4389648,0.1259766-0.6650391,0.1259766
		c-0.1381836-0.0004883-0.3012695-0.0253906-0.4765625-0.0629883c-0.1879883-0.0375977-0.3637695-0.0883789-0.5390625-0.1757812
		c-0.1757812-0.0751953-0.3383789-0.175293-0.4765625-0.2885742c-0.1508789-0.1123047-0.2636719-0.2382812-0.3393555-0.3886719
		c-0.0625-0.0996094-0.137207-0.1625977-0.2382812-0.2006836c-0.112793-0.0249023-0.2128906-0.012207-0.3129883,0.050293
		c-0.1005859,0.0625-0.1635742,0.1376953-0.1889648,0.2382812c-0.0371094,0.1132812-0.0244141,0.2133789,0.0380859,0.3134766
		c0.1000977,0.1879883,0.2509766,0.3632812,0.4394531,0.5268555c0.1879883,0.1630859,0.3886719,0.2885742,0.6264648,0.4008789
		c0.2260742,0.1132812,0.4643555,0.2011719,0.7280273,0.2636719c0.2504883,0.0629883,0.4887695,0.1005859,0.7275391,0.1005859
		C110.421875,68.5263672,110.7353516,68.4638672,111.0488281,68.3378906L111.0488281,68.3378906L111.0488281,68.3378906z"/>
	<path fill="#010101" d="M119.1005859,68.1376953c0,0.112793,0.0375977,0.2001953,0.1123047,0.2758789
		c0.0756836,0.0751953,0.1640625,0.112793,0.2763672,0.112793c0.1132812,0,0.2006836-0.0375977,0.2758789-0.112793
		c0.0751953-0.0756836,0.1132812-0.1630859,0.1132812-0.2758789v-2.9350586h4.0004883v2.9350586
		c0,0.112793,0.0375977,0.2001953,0.1132812,0.2758789c0.0751953,0.0751953,0.1625977,0.112793,0.2758789,0.112793
		c0.112793,0,0.2001953-0.0375977,0.2753906-0.112793c0.0756836-0.0756836,0.112793-0.1630859,0.112793-0.2758789v-7.2373047
		c0-0.1123047-0.0371094-0.2001953-0.112793-0.2753906c-0.0751953-0.0751953-0.1625977-0.1132812-0.2753906-0.1132812
		c-0.1132812,0-0.2006836,0.0380859-0.2758789,0.1132812c-0.0756836,0.0751953-0.1132812,0.1630859-0.1132812,0.2753906v3.5249023
		h-4.0004883v-3.5249023c0-0.1123047-0.0380859-0.2001953-0.1132812-0.2753906s-0.1625977-0.1132812-0.2758789-0.1132812
		c-0.1123047,0-0.2006836,0.0380859-0.2763672,0.1132812c-0.074707,0.0751953-0.1123047,0.1630859-0.1123047,0.2753906V68.1376953
		L119.1005859,68.1376953z"/>
	<path fill="#010101" d="M131.2666016,68.1376953c0,0.112793,0.0375977,0.2001953,0.1123047,0.2758789
		c0.0751953,0.0751953,0.1635742,0.112793,0.2758789,0.112793c0.1132812,0,0.2006836-0.0375977,0.2763672-0.112793
		c0.074707-0.0756836,0.112793-0.1630859,0.112793-0.2758789v-7.2373047c0-0.1123047-0.0380859-0.2001953-0.112793-0.2753906
		c-0.0756836-0.0751953-0.1630859-0.1132812-0.2763672-0.1132812c-0.1123047,0-0.2006836,0.0380859-0.2758789,0.1132812
		c-0.074707,0.0751953-0.1123047,0.1630859-0.1123047,0.2753906V68.1376953L131.2666016,68.1376953z"/>
	<path fill="#010101" d="M138.6660156,68.1376953c0,0.112793,0.0371094,0.2001953,0.1123047,0.2758789
		c0.0756836,0.0751953,0.1635742,0.112793,0.2758789,0.112793c0.1132812,0,0.2011719-0.0375977,0.2768555-0.112793
		c0.074707-0.0756836,0.1123047-0.1630859,0.1123047-0.2758789v-5.9453125l4.2890625,6.0708008
		c0.0507812,0.0620117,0.1005859,0.1254883,0.1630859,0.175293c0.0507812,0.0629883,0.1254883,0.0878906,0.2133789,0.0878906
		c0.112793,0,0.2006836-0.0375977,0.2758789-0.112793c0.0751953-0.0756836,0.1132812-0.1630859,0.1132812-0.2758789v-7.2373047
		c0-0.1123047-0.0380859-0.2001953-0.1132812-0.2753906s-0.1630859-0.1132812-0.2758789-0.1132812
		s-0.2006836,0.0380859-0.2758789,0.1132812s-0.1123047,0.1630859-0.1123047,0.2753906v5.9326172l-4.3149414-6.1079102
		c-0.0498047-0.0625-0.1010742-0.1254883-0.1376953-0.1625977c-0.050293-0.0380859-0.1259766-0.0507812-0.2138672-0.0507812
		c-0.1123047,0-0.2001953,0.0380859-0.2758789,0.1132812c-0.0751953,0.0751953-0.1123047,0.1630859-0.1123047,0.2753906V68.1376953
		L138.6660156,68.1376953z"/>
	<path fill="#010101" d="M157.8544922,62.8198242c0.1132812,0.012207,0.2011719-0.0126953,0.2763672-0.0756836
		c0.0878906-0.0751953,0.1376953-0.1625977,0.1503906-0.2631836c0.0126953-0.1000977-0.0253906-0.2001953-0.0874023-0.2885742
		c-0.3637695-0.5014648-0.815918-0.9023438-1.3798828-1.2036133c-0.5644531-0.3007812-1.1918945-0.4516602-1.855957-0.4516602
		c-0.5522461,0-1.0664062,0.1000977-1.5556641,0.3134766s-0.902832,0.4892578-1.2666016,0.8530273
		s-0.6401367,0.7900391-0.8530273,1.2788086c-0.2133789,0.4892578-0.3139648,1.0039062-0.3139648,1.5556641
		c0.0004883,0.5517578,0.1005859,1.0654297,0.3139648,1.5546875c0.2138672,0.4892578,0.4892578,0.9033203,0.8530273,1.2670898
		s0.7773438,0.6396484,1.2666016,0.8530273c0.4892578,0.2128906,1.003418,0.3134766,1.5556641,0.3134766
		c0.4760742,0,0.9277344-0.0751953,1.3666992-0.2382812s0.8276367-0.3764648,1.1787109-0.6650391
		c0.3388672-0.2758789,0.6396484-0.6142578,0.8779297-1.0029297s0.4018555-0.8027344,0.4887695-1.2539062
		c0.0253906-0.1259766,0-0.2387695-0.0625-0.3515625c-0.0625-0.1005859-0.1630859-0.1503906-0.300293-0.1503906h-2.2705078
		c-0.112793,0-0.2006836,0.0375977-0.2758789,0.1123047c-0.074707,0.0756836-0.1123047,0.1635742-0.1123047,0.2763672
		c0,0.1132812,0.0371094,0.2006836,0.1123047,0.2758789c0.0751953,0.074707,0.1630859,0.1132812,0.2758789,0.1132812h1.7436523
		c-0.1132812,0.3129883-0.2758789,0.5893555-0.4643555,0.8525391c-0.2006836,0.2631836-0.4262695,0.4765625-0.6899414,0.6645508
		c-0.2631836,0.1879883-0.5522461,0.3261719-0.8652344,0.4267578c-0.3134766,0.1123047-0.6523438,0.1630859-1.0029297,0.1630859
		c-0.4394531-0.0004883-0.8652344-0.0883789-1.2548828-0.2509766c-0.3886719-0.1630859-0.7270508-0.4013672-1.0161133-0.6899414
		c-0.2875977-0.2885742-0.5263672-0.6269531-0.6894531-1.0161133c-0.1630859-0.3881836-0.2504883-0.8154297-0.2504883-1.2539062
		c0-0.4394531,0.0874023-0.8652344,0.2504883-1.2543945c0.1630859-0.3886719,0.4018555-0.7397461,0.6894531-1.0288086
		c0.2890625-0.2880859,0.6274414-0.5268555,1.0161133-0.6894531c0.3896484-0.1630859,0.8154297-0.2509766,1.2548828-0.2509766
		c0.4384766,0,0.890625,0.1005859,1.3417969,0.3134766c0.4389648,0.2133789,0.8652344,0.5522461,1.2539062,1.0166016
		C157.6416016,62.7568359,157.7416992,62.8071289,157.8544922,62.8198242L157.8544922,62.8198242L157.8544922,62.8198242z"/>
	<path fill="none" stroke="#010101" stroke-width="2" d="M57.4189453,64.8017578
		c0.3012695,0,0.5771484-0.0634766,0.840332-0.1757812c0.2636719-0.112793,0.4892578-0.2636719,0.6899414-0.4516602
		c0.1884766-0.1879883,0.3510742-0.4262695,0.4638672-0.6899414s0.1635742-0.5390625,0.1635742-0.8276367
		s-0.0507812-0.5644531-0.1635742-0.8276367c-0.112793-0.2636719-0.2753906-0.4892578-0.4638672-0.6904297
		c-0.2006836-0.1875-0.4262695-0.3505859-0.6899414-0.4633789c-0.2631836-0.112793-0.5390625-0.1635742-0.840332-0.1635742H55.375
		c-0.112793,0-0.2011719,0.0380859-0.2758789,0.1132812c-0.0751953,0.0874023-0.112793,0.1757812-0.112793,0.2885742v7.2241211
		c0,0.112793,0.0375977,0.2001953,0.112793,0.2758789c0.074707,0.0751953,0.1630859,0.112793,0.2758789,0.112793
		s0.2006836-0.0375977,0.2758789-0.112793c0.0751953-0.0756836,0.112793-0.1630859,0.112793-0.2758789v-3.3359375H57.4189453
		L57.4189453,64.8017578z M55.7636719,64.0239258v-2.7338867h1.6552734c0.1884766,0,0.3637695,0.0371094,0.5273438,0.0996094
		c0.1625977,0.0756836,0.3129883,0.1757812,0.4384766,0.3012695s0.2255859,0.2758789,0.3007812,0.4389648
		c0.0629883,0.1630859,0.1000977,0.3383789,0.1000977,0.5268555c0,0.1879883-0.0371094,0.3637695-0.1000977,0.5268555
		c-0.0751953,0.1625977-0.175293,0.3134766-0.3007812,0.4389648s-0.2758789,0.2255859-0.4384766,0.2885742
		c-0.1635742,0.0751953-0.3388672,0.112793-0.5273438,0.112793H55.7636719L55.7636719,64.0239258z M66.2109375,66.8203125
		c0.1381836,0.3388672,0.3388672,0.6396484,0.5898438,0.890625c0.2504883,0.2509766,0.5512695,0.4511719,0.8901367,0.5893555
		c0.3388672,0.1508789,0.6899414,0.2260742,1.0786133,0.2260742c0.3891602,0,0.7529297-0.0751953,1.0913086-0.2260742
		c0.3383789-0.1381836,0.6274414-0.3383789,0.8779297-0.5893555c0.2509766-0.2509766,0.4511719-0.5517578,0.6020508-0.890625
		c0.1503906-0.3378906,0.2255859-0.6894531,0.2255859-1.078125v-4.815918c0-0.0878906-0.0371094-0.1884766-0.1005859-0.2768555
		c-0.0620117-0.0869141-0.1625977-0.1376953-0.2758789-0.1376953c-0.112793,0-0.2128906,0.0380859-0.2880859,0.1254883
		c-0.0756836,0.0878906-0.112793,0.1884766-0.112793,0.2763672v4.8286133c0,0.2758789-0.050293,0.5390625-0.1630859,0.7773438
		s-0.2504883,0.4516602-0.4389648,0.6269531c-0.1879883,0.1884766-0.4018555,0.3261719-0.6401367,0.4394531
		c-0.2382812,0.1123047-0.5019531,0.1630859-0.7773438,0.1630859c-0.2753906-0.0004883-0.5395508-0.0507812-0.7773438-0.1630859
		c-0.2509766-0.1132812-0.4643555-0.2509766-0.6401367-0.4394531c-0.1879883-0.175293-0.3256836-0.3886719-0.4262695-0.6269531
		c-0.112793-0.2382812-0.1630859-0.5014648-0.1630859-0.7773438v-4.815918c0-0.1132812-0.0375977-0.2011719-0.1000977-0.2890625
		c-0.0629883-0.0874023-0.1630859-0.1254883-0.2758789-0.1254883c-0.1123047,0-0.2133789,0.0380859-0.2885742,0.1254883
		c-0.074707,0.0878906-0.112793,0.1884766-0.112793,0.2763672v4.8286133
		C65.9853516,66.1308594,66.0605469,66.4824219,66.2109375,66.8203125L66.2109375,66.8203125L66.2109375,66.8203125z
		 M82.4785156,61.690918c-0.1132812-0.2382812-0.2509766-0.4389648-0.4267578-0.6147461s-0.3759766-0.3134766-0.6147461-0.4135742
		c-0.2382812-0.1000977-0.4887695-0.1508789-0.7519531-0.1508789h-2.2324219c-0.1132812,0-0.2006836,0.0380859-0.2758789,0.1132812
		s-0.1132812,0.1630859-0.1132812,0.2753906v7.2373047c0,0.112793,0.0380859,0.2001953,0.1132812,0.2758789
		c0.0751953,0.0751953,0.1625977,0.112793,0.2758789,0.112793h2.2324219c0.3383789,0,0.6518555-0.0625,0.9526367-0.2011719
		c0.2885742-0.125,0.5517578-0.300293,0.7783203-0.5263672c0.2124023-0.2128906,0.3881836-0.4765625,0.5136719-0.777832
		c0.1254883-0.2875977,0.1879883-0.6015625,0.1879883-0.9404297c0-0.4643555-0.112793-0.8779297-0.3256836-1.2543945
		c-0.2260742-0.3637695-0.5273438-0.6518555-0.890625-0.8652344c0.2128906-0.1879883,0.3891602-0.4008789,0.5268555-0.6645508
		c0.1376953-0.2631836,0.2001953-0.5395508,0.2001953-0.840332C82.628418,62.1923828,82.5786133,61.9291992,82.4785156,61.690918
		L82.4785156,61.690918L82.4785156,61.690918z M82.2148438,66.7202148
		c-0.0878906,0.2006836-0.2133789,0.3764648-0.3637695,0.5268555s-0.3261719,0.2758789-0.5263672,0.3637695
		c-0.2011719,0.0874023-0.4145508,0.1381836-0.6396484,0.1381836l-1.84375-0.0004883v-3.3359375h1.84375
		c0.2255859,0,0.4384766,0.0375977,0.6396484,0.1254883c0.2001953,0.0878906,0.3759766,0.2128906,0.5263672,0.3637695
		c0.1503906,0.1503906,0.2758789,0.3256836,0.3637695,0.5263672c0.0878906,0.2138672,0.1254883,0.4262695,0.1254883,0.6523438
		C82.340332,66.3061523,82.3027344,66.5195312,82.2148438,66.7202148L82.2148438,66.7202148L82.2148438,66.7202148z
		 M78.8413086,61.2900391h1.84375c0.1625977,0,0.3129883,0.0244141,0.4511719,0.0869141
		c0.1381836,0.0634766,0.2631836,0.1508789,0.3759766,0.2509766c0.1005859,0.112793,0.1757812,0.2382812,0.2382812,0.3764648
		c0.0629883,0.1381836,0.0878906,0.2885742,0.0878906,0.4516602s-0.0249023,0.3134766-0.0878906,0.4516602
		c-0.0625,0.1376953-0.1376953,0.2631836-0.2382812,0.3637695c-0.112793,0.1123047-0.237793,0.2001953-0.3759766,0.2631836
		c-0.1381836,0.0625-0.2885742,0.1000977-0.4511719,0.1000977h-1.84375V61.2900391L78.8413086,61.2900391z M89.4765625,68.1376953
		c0,0.112793,0.0375977,0.2001953,0.1132812,0.2758789c0.074707,0.0751953,0.1625977,0.112793,0.2753906,0.112793h3.574707
		c0.112793,0,0.2006836-0.0375977,0.2758789-0.112793c0.0751953-0.0756836,0.112793-0.1630859,0.112793-0.2758789
		s-0.0375977-0.2011719-0.112793-0.2758789c-0.0751953-0.0756836-0.1630859-0.112793-0.2758789-0.112793l-3.1855469-0.0004883
		v-6.8481445c0-0.1123047-0.0380859-0.2001953-0.1132812-0.2753906s-0.1630859-0.1132812-0.2758789-0.1132812
		S89.6645508,60.5498047,89.5898438,60.625c-0.0756836,0.0751953-0.1132812,0.1630859-0.1132812,0.2753906V68.1376953
		L89.4765625,68.1376953z M100.2626953,68.1376953c0,0.112793,0.0380859,0.2001953,0.112793,0.2758789
		c0.0751953,0.0751953,0.1630859,0.112793,0.2763672,0.112793c0.112793,0,0.2001953-0.0375977,0.2753906-0.112793
		c0.0756836-0.0756836,0.1132812-0.1630859,0.1132812-0.2758789v-7.2373047c0-0.1123047-0.0375977-0.2001953-0.1132812-0.2753906
		c-0.0751953-0.0751953-0.1625977-0.1132812-0.2753906-0.1132812c-0.1132812,0-0.2011719,0.0380859-0.2763672,0.1132812
		c-0.074707,0.0751953-0.112793,0.1630859-0.112793,0.2753906V68.1376953L100.2626953,68.1376953z M111.0483398,68.3378906
		c0.3134766-0.1123047,0.5893555-0.2880859,0.8271484-0.5014648c0.2387695-0.2133789,0.4267578-0.4638672,0.5649414-0.7524414
		s0.2133789-0.6015625,0.2133789-0.940918c0-0.3383789-0.050293-0.6269531-0.1508789-0.8652344
		c-0.112793-0.237793-0.2509766-0.4516602-0.4384766-0.6391602c-0.1889648-0.1884766-0.4140625-0.3388672-0.6777344-0.4765625
		c-0.2631836-0.1381836-0.5512695-0.2636719-0.8652344-0.3764648c-0.1625977-0.0629883-0.3505859-0.1254883-0.5766602-0.2006836
		s-0.4394531-0.1630859-0.652832-0.2636719c-0.2124023-0.1005859-0.3886719-0.2133789-0.5263672-0.3510742
		c-0.1503906-0.1381836-0.2255859-0.2885742-0.2255859-0.4516602c0-0.237793,0.0498047-0.4262695,0.1503906-0.5893555
		c0.1000977-0.1503906,0.2255859-0.2758789,0.3891602-0.3637695c0.1499023-0.0874023,0.3134766-0.1630859,0.5014648-0.2011719
		c0.1879883-0.0371094,0.3637695-0.0620117,0.5268555-0.0620117c0.112793,0,0.237793,0,0.3759766,0.012207
		c0.1381836,0.0126953,0.2758789,0.0498047,0.4140625,0.1005859c0.1376953,0.050293,0.2631836,0.1254883,0.4013672,0.2128906
		c0.1381836,0.1000977,0.2509766,0.2382812,0.3510742,0.4018555c0.0625,0.0874023,0.1381836,0.1503906,0.2509766,0.1879883
		c0.1123047,0.0371094,0.2128906,0.012207,0.3129883-0.050293c0.1005859-0.0629883,0.1630859-0.1508789,0.1757812-0.2885742
		c0.0131836-0.125-0.0126953-0.2382812-0.0751953-0.3256836c-0.1499023-0.2133789-0.3134766-0.3759766-0.4892578-0.5141602
		c-0.1879883-0.1386719-0.3754883-0.2382812-0.5644531-0.3139648c-0.1875-0.0756836-0.3886719-0.1254883-0.5766602-0.1625977
		c-0.2006836-0.0253906-0.3886719-0.0380859-0.5766602-0.0380859c-0.2758789,0-0.5522461,0.0380859-0.8286133,0.125
		c-0.2880859,0.0883789-0.5390625,0.2260742-0.7646484,0.3896484c-0.2255859,0.175293-0.4135742,0.3886719-0.5512695,0.6269531
		c-0.1381836,0.2509766-0.2138672,0.5390625-0.2138672,0.8525391c0,0.2763672,0.0756836,0.5146484,0.2260742,0.7275391
		c0.1499023,0.2133789,0.3388672,0.4013672,0.5771484,0.5644531c0.2255859,0.1630859,0.4760742,0.2880859,0.7651367,0.4008789
		c0.2753906,0.1137695,0.5390625,0.2138672,0.7900391,0.2895508c0.2509766,0.0869141,0.4892578,0.175293,0.7021484,0.2753906
		c0.2133789,0.1005859,0.4008789,0.2128906,0.5639648,0.3388672c0.1635742,0.125,0.2890625,0.2758789,0.3764648,0.4384766
		c0.0878906,0.1630859,0.125,0.3637695,0.125,0.5893555c0,0.2260742-0.0498047,0.4389648-0.1499023,0.6274414
		C111.625,66.9711914,111.5,67.1464844,111.3364258,67.2841797c-0.1625977,0.1381836-0.362793,0.2509766-0.5766602,0.3388672
		c-0.2128906,0.0878906-0.4384766,0.1259766-0.6645508,0.1259766c-0.1381836-0.0004883-0.3012695-0.0253906-0.4765625-0.0629883
		c-0.1879883-0.0375977-0.3637695-0.0883789-0.5390625-0.1757812c-0.1762695-0.0751953-0.3393555-0.175293-0.4765625-0.2885742
		c-0.1508789-0.1123047-0.2636719-0.2382812-0.3393555-0.3886719c-0.0625-0.0996094-0.1381836-0.1625977-0.2382812-0.2006836
		c-0.112793-0.0249023-0.2128906-0.012207-0.3134766,0.050293c-0.1000977,0.0625-0.1630859,0.1376953-0.1884766,0.2382812
		c-0.0371094,0.1132812-0.0244141,0.2133789,0.0380859,0.3134766c0.1000977,0.1879883,0.2509766,0.3632812,0.4394531,0.5268555
		c0.1879883,0.1630859,0.3881836,0.2885742,0.6264648,0.4008789c0.2260742,0.1132812,0.4643555,0.2011719,0.7275391,0.2636719
		c0.2509766,0.0629883,0.4892578,0.1005859,0.7275391,0.1005859
		C110.421875,68.5263672,110.734375,68.4638672,111.0483398,68.3378906L111.0483398,68.3378906L111.0483398,68.3378906z
		 M119.1005859,68.1376953c0,0.112793,0.0371094,0.2001953,0.1123047,0.2758789
		c0.0751953,0.0751953,0.1635742,0.112793,0.2758789,0.112793c0.1132812,0,0.2006836-0.0375977,0.2763672-0.112793
		c0.074707-0.0756836,0.112793-0.1630859,0.112793-0.2758789v-2.9350586h4.0009766v2.9350586
		c0,0.112793,0.0371094,0.2001953,0.112793,0.2758789c0.0751953,0.0751953,0.1630859,0.112793,0.2753906,0.112793
		c0.1132812,0,0.2011719-0.0375977,0.2763672-0.112793c0.0756836-0.0756836,0.112793-0.1630859,0.112793-0.2758789v-7.2373047
		c0-0.1123047-0.0371094-0.2001953-0.112793-0.2753906c-0.0751953-0.0751953-0.1630859-0.1132812-0.2763672-0.1132812
		c-0.1123047,0-0.2001953,0.0380859-0.2753906,0.1132812c-0.0756836,0.0751953-0.112793,0.1630859-0.112793,0.2753906v3.5249023
		h-4.0009766v-3.5249023c0-0.1123047-0.0380859-0.2001953-0.112793-0.2753906
		c-0.0756836-0.0751953-0.1630859-0.1132812-0.2763672-0.1132812c-0.1123047,0-0.2006836,0.0380859-0.2758789,0.1132812
		c-0.074707,0.0751953-0.1123047,0.1630859-0.1123047,0.2753906V68.1376953L119.1005859,68.1376953z M131.2661133,68.1376953
		c0,0.112793,0.0375977,0.2001953,0.112793,0.2758789c0.074707,0.0751953,0.1630859,0.112793,0.2758789,0.112793
		s0.2006836-0.0375977,0.2763672-0.112793c0.074707-0.0756836,0.112793-0.1630859,0.112793-0.2758789v-7.2373047
		c0-0.1123047-0.0380859-0.2001953-0.112793-0.2753906c-0.0756836-0.0751953-0.1635742-0.1132812-0.2763672-0.1132812
		s-0.2011719,0.0380859-0.2758789,0.1132812c-0.0751953,0.0751953-0.112793,0.1630859-0.112793,0.2753906V68.1376953
		L131.2661133,68.1376953z M138.6655273,68.1376953c0,0.112793,0.0375977,0.2001953,0.1123047,0.2758789
		c0.0756836,0.0751953,0.1635742,0.112793,0.2758789,0.112793c0.1132812,0,0.2011719-0.0375977,0.2763672-0.112793
		c0.074707-0.0756836,0.112793-0.1630859,0.112793-0.2758789v-5.9453125l4.2890625,6.0708008
		c0.0507812,0.0620117,0.1005859,0.1254883,0.1635742,0.175293c0.050293,0.0629883,0.125,0.0878906,0.2128906,0.0878906
		c0.1132812,0,0.2011719-0.0375977,0.2763672-0.112793c0.0751953-0.0756836,0.1123047-0.1630859,0.1123047-0.2758789v-7.2373047
		c0-0.1123047-0.0371094-0.2001953-0.1123047-0.2753906s-0.1630859-0.1132812-0.2763672-0.1132812
		c-0.1123047,0-0.2001953,0.0380859-0.2758789,0.1132812c-0.074707,0.0751953-0.112793,0.1630859-0.112793,0.2753906v5.9326172
		l-4.3149414-6.1079102c-0.0498047-0.0625-0.1000977-0.1254883-0.137207-0.1625977
		c-0.050293-0.0380859-0.1259766-0.0507812-0.2138672-0.0507812c-0.1123047,0-0.2001953,0.0380859-0.2758789,0.1132812
		c-0.074707,0.0751953-0.1123047,0.1630859-0.1123047,0.2753906V68.1376953L138.6655273,68.1376953z M157.8544922,62.8198242
		c0.112793,0.012207,0.2006836-0.0126953,0.2753906-0.0756836c0.0883789-0.0751953,0.1381836-0.1625977,0.1513672-0.2631836
		c0.012207-0.1000977-0.0253906-0.2001953-0.0883789-0.2885742c-0.3637695-0.5014648-0.8149414-0.9023438-1.3789062-1.2036133
		c-0.5644531-0.3007812-1.1918945-0.4516602-1.8564453-0.4516602c-0.5517578,0-1.0664062,0.1000977-1.5556641,0.3134766
		c-0.4887695,0.2133789-0.902832,0.4892578-1.2670898,0.8530273c-0.362793,0.3637695-0.6391602,0.7900391-0.8525391,1.2788086
		c-0.2128906,0.4892578-0.3134766,1.0039062-0.3134766,1.5556641s0.1005859,1.0654297,0.3134766,1.5546875
		c0.2133789,0.4892578,0.4897461,0.9033203,0.8525391,1.2670898c0.3642578,0.3637695,0.7783203,0.6396484,1.2670898,0.8530273
		c0.4897461,0.2128906,1.003418,0.3134766,1.5556641,0.3134766c0.4760742,0,0.9282227-0.0751953,1.3666992-0.2382812
		c0.4389648-0.1630859,0.8276367-0.3764648,1.1787109-0.6650391c0.3388672-0.2758789,0.6396484-0.6142578,0.8779297-1.0029297
		c0.2387695-0.3886719,0.4023438-0.8027344,0.4892578-1.2539062c0.0253906-0.1259766,0-0.2387695-0.0625-0.3515625
		c-0.0629883-0.1005859-0.1630859-0.1503906-0.3012695-0.1503906h-2.2695312c-0.112793,0-0.2011719,0.0375977-0.2763672,0.1123047
		c-0.074707,0.0756836-0.112793,0.1635742-0.112793,0.2763672c0,0.1132812,0.0380859,0.2006836,0.112793,0.2758789
		c0.0751953,0.074707,0.1635742,0.1132812,0.2763672,0.1132812h1.7431641
		c-0.1132812,0.3129883-0.2763672,0.5893555-0.4643555,0.8525391c-0.2001953,0.2631836-0.4267578,0.4765625-0.6894531,0.6645508
		c-0.2631836,0.1879883-0.5522461,0.3261719-0.8657227,0.4267578c-0.3139648,0.1123047-0.6518555,0.1630859-1.0029297,0.1630859
		c-0.4394531-0.0004883-0.8652344-0.0883789-1.2543945-0.2509766c-0.3886719-0.1630859-0.7275391-0.4013672-1.0161133-0.6899414
		c-0.2880859-0.2885742-0.5268555-0.6269531-0.6894531-1.0161133c-0.1630859-0.3881836-0.2509766-0.8154297-0.2509766-1.2539062
		c0-0.4394531,0.0874023-0.8652344,0.2509766-1.2543945c0.1625977-0.3886719,0.4008789-0.7397461,0.6894531-1.0288086
		c0.2885742-0.2880859,0.6274414-0.5268555,1.0161133-0.6894531c0.3891602-0.1630859,0.8149414-0.2509766,1.2543945-0.2509766
		c0.4384766,0,0.8901367,0.1005859,1.3417969,0.3134766c0.4389648,0.2133789,0.8652344,0.5522461,1.2543945,1.0166016
		C157.6411133,62.7568359,157.7412109,62.8071289,157.8544922,62.8198242L157.8544922,62.8198242L157.8544922,62.8198242z"/>
</g>
<path fill="none" d="z"/>
</svg>
