<?xml version="1.0" encoding="utf-8"?>
<!-- Generator: Adobe Illustrator 16.0.4, SVG Export Plug-In . SVG Version: 6.00 Build 0)  -->
<!DOCTYPE svg PUBLIC "-//W3C//DTD SVG 1.1//EN" "http://www.w3.org/Graphics/SVG/1.1/DTD/svg11.dtd">
<svg version="1.1" id="Layer_1" xmlns="http://www.w3.org/2000/svg" xmlns:xlink="http://www.w3.org/1999/xlink" x="0px" y="0px"
	 width="960px" height="560px" viewBox="0 0 960 560" enable-background="new 0 0 960 560" xml:space="preserve">
<g id="Layer_1_1_" display="none">
	<path fill="#F58220" d="M374.793,350.3008c-4.2168,3.2412-8.7549,6.1611-13.293,8.7529v-13.6162
		c2.5918-0.9727,5.5098-2.2695,8.104-3.2393C375.4399,339.6016,380.6289,346.0859,374.793,350.3008L374.793,350.3008z
		 M405.5928,327.6055c0-2.5967-0.6489-4.5381-1.2969-5.5137c-2.917-3.5645-24.3149-6.8076-42.7959-1.2979v10.0508
		c11.3481-0.9717,24.6392-1.2949,27.8818,2.9199c4.5391,5.5117-5.187,29.502-9.4009,39.8779
		c-1.2969,3.2412,1.6201,4.5381,4.5381,2.2715c14.5908-12.3203,20.749-34.6914,21.0747-46.3623L405.5928,327.6055L405.5928,327.6055
		z M361.5,359.0537c-34.042,20.4277-78.1357,31.125-116.394,31.125c-61.6021,0-116.7168-22.6934-158.541-60.627
		c-3.5659-2.918-0.6489-7.1328,3.5659-4.8643c45.0674,26.2637,100.8311,42.1475,158.541,42.1475
		c36.312,0,75.542-6.8076,112.8271-21.3975L361.5,359.0537L361.5,359.0537z M361.5,320.7959
		c-5.189,1.623-9.7271,3.8916-13.9419,6.8115c-3.2412,2.2695-2.5923,5.1865,0.6479,4.8613c3.5659-0.6465,8.104-0.9736,13.293-1.6221
		L361.5,320.7959L361.5,320.7959z"/>
	<path d="M950.2715,230.3408v-1.6206c4.5371,0,8.1035-3.5664,8.1035-8.104c0-4.54-3.8887-8.1064-8.1035-8.1064v-1.6206l0,0
		c5.1875,0,9.7285,4.2148,9.7285,9.7271C960,225.8027,955.46,230.3408,950.2715,230.3408L950.2715,230.3408L950.2715,230.3408z
		 M950.2715,221.5879h0.3223c0.6494,0,0.9766,0.3232,0.9766,0.9722c0,0.3247,0.3213,2.917,0.6465,3.5659h2.2715
		c-0.3262-0.6489-0.6494-1.9438-0.6494-2.918c-0.3252-1.2969-0.3252-2.269-1.9453-2.5918c0.9756-0.3252,2.2705-0.6514,2.2705-2.5942
		c0-2.918-2.5918-2.918-3.8896-2.918l0,0v1.6211l0,0c0.6475,0,1.6191,0,1.6191,1.6211c0,0.6479-0.3213,1.6196-1.6191,1.6196l0,0
		v1.6221H950.2715z M950.2715,210.8892v1.6206l0,0c-4.5371,0-8.4307,3.5664-8.4307,8.1064c0,4.5391,3.8936,8.104,8.4307,8.104l0,0
		v1.6206c-5.5127,0-10.0508-4.2148-10.0508-9.7246C940.2227,215.104,944.7607,210.8892,950.2715,210.8892L950.2715,210.8892z
		 M950.2715,215.104h-3.8926v11.022l0,0h2.2715v-4.5381h1.6182v-1.623h-1.6182v-3.2407h1.6182L950.2715,215.104L950.2715,215.104z
		 M759.3096,315.6094v-13.2939c8.4316-0.3232,15.2393-5.5107,19.4541-14.2666c3.5664-8.104,4.2148-17.5059,4.2148-26.2617
		c0-9.7251-0.9736-19.7749-5.5117-28.2051c-3.8916-7.1328-11.0225-11.6729-18.1572-11.9961v-12.9658l0,0h0.6484h0.9746
		c25.9375,0,38.9043,26.2617,38.9043,53.4951C799.8369,290.3203,785.5713,315.2861,759.3096,315.6094L759.3096,315.6094z
		 M813.4531,313.6631c-1.9434-0.3232-3.5664-1.6201-3.5664-3.5664v-95.6416c0.3252-1.623,1.623-2.917,3.5664-3.2432h6.8096
		c1.9463,0,3.2432,1.6211,3.5664,3.2432v13.9399c4.8633-11.022,13.9424-19.7749,25.29-19.7749h0.9717h0.6484
		c11.9961,0,21.0723,9.0757,24.3135,22.0459c5.1885-12.645,14.9141-22.0459,27.8818-22.0459h0.6484h0.6494
		c9.0762,0,17.8301,5.835,22.3691,14.9141c4.2148,8.4277,4.2148,19.7749,4.2148,29.1787v57.3838
		c0,1.9463-1.6201,3.2432-3.5664,3.5664h-8.1035c-1.6191-0.3232-3.2393-1.2949-3.5645-3.2402v-57.71
		c0-6.8101,0.3252-14.2656-2.2715-20.4258c-2.918-6.4839-8.4297-10.375-14.2656-10.6992
		c-6.4824,0.3232-12.3213,5.187-16.2109,11.6709c-5.1875,8.1064-4.8633,15.562-4.8633,25.29v52.1982
		c-0.3213,1.2969-1.6211,2.5938-3.5645,2.917h-8.1045c-1.9443-0.3232-3.5645-1.6201-3.5645-3.5664v-61.2734
		c0-5.5122-0.3252-12.3203-2.918-17.1831c-2.9199-5.835-8.4316-9.7271-13.9424-10.0503
		c-6.1602,0.3232-11.9961,4.8633-15.5625,10.0503c-4.5361,6.8091-5.5127,14.9141-5.5127,23.3438v55.1147
		c0,1.9463-1.2949,3.2432-3.2412,3.5664h-8.1064v-0.0029H813.4531z M759.3096,208.6201v12.9678h-0.3213
		c-8.1064,0.3232-15.5625,5.835-19.4521,14.5879c-3.2432,7.458-4.2168,17.1831-4.2168,25.6133
		c0,9.4038,1.2969,20.1035,5.1875,28.207c3.5664,7.1328,10.6992,12.3193,18.4805,12.3193h0.3213v13.2939
		c-0.3213,0-0.6465,0-0.6465,0h-0.9717h-0.6484c-26.585,0-38.2578-26.9102-38.2578-53.8203
		C718.7832,233.2588,732.7246,208.9429,759.3096,208.6201L759.3096,208.6201z M470.7588,315.6094v-19.4521
		c13.9424-0.3252,14.5908-20.4263,14.5908-32.4224c0-8.104-0.3232-17.832-2.918-25.6128c-1.9434-6.4839-5.835-9.0791-11.6729-9.4019
		v-19.4541c27.2354,0.3247,42.1494,23.9927,42.1494,54.146C512.9082,292.5908,496.374,315.2861,470.7588,315.6094L470.7588,315.6094
		z M674.3672,301.9922c11.6699-0.3223,18.1543-9.4014,20.749-22.0464c0.3252-1.2969,1.6201-2.5947,3.2412-2.5947h7.7812
		c1.9434,0,3.5664,1.623,3.5664,3.2427c-3.5664,20.749-16.2109,35.0166-34.3682,35.0166h-0.6475h-0.9736
		c-26.2607,0-37.6064-26.2627-37.6064-53.1724c0-26.584,11.6699-53.8179,37.9316-53.8179h0.6484h0.6475
		c18.4795,0,31.4482,14.2646,34.3682,35.3379c0,1.2969-1.623,2.917-3.2432,2.917h-8.4307c-1.6201-0.3228-2.5918-1.6201-2.917-3.2412
		c-1.9463-11.9956-8.7529-21.3979-20.1025-21.7227c-17.832,0.6479-23.0205,22.6948-23.0205,39.5547
		C651.9951,278,656.21,301.3438,674.3672,301.9922L674.3672,301.9922z M633.8398,305.8818c0-4.8633-4.2148-8.7529-9.0781-8.7529
		c-5.1875,0-9.4004,3.8896-9.4004,8.7529c0,4.8643,4.2148,8.7559,9.4004,8.7559
		C629.625,314.6377,633.8398,310.7461,633.8398,305.8818L633.8398,305.8818z M548.8945,313.6631H530.416
		c-1.9434-0.3232-3.5664-1.6201-3.5664-3.5664v-95.6416c0.3262-1.9463,1.623-3.2432,3.5664-3.2432h17.5088
		c1.6201,0,2.918,1.2969,3.2432,2.918v14.5898h0.3232c5.1865-13.293,12.6445-19.4536,25.6104-19.4536
		c8.1055,0,16.5352,2.9199,21.7256,11.3501c4.8604,7.7788,4.8604,20.4238,4.8604,29.8257v59.981
		c-0.3223,1.6201-1.6191,3.2402-3.5654,3.2402h-18.8037c-1.6201-0.3232-3.2422-1.6201-3.2422-3.2402v-51.5508
		c0-10.6992,1.2969-25.936-11.6709-25.936c-4.5381,0-8.7529,2.917-11.0244,7.7808c-2.5928,5.835-2.918,11.6704-2.918,18.1553
		v51.2246C552.4609,312.043,550.8408,313.6631,548.8945,313.6631z M349.1792,228.0723v-13.6172
		c0-1.9463,1.6226-3.5659,3.5659-3.5659h61.2778c1.9438,0,3.5659,1.6206,3.5659,3.5659v11.6709c0,1.9463-1.623,4.54-4.541,8.7549
		l-31.771,45.3882c11.6714-0.3232,24.3164,1.6235,35.0151,7.4575c2.269,1.6211,2.918,3.5664,3.2412,5.5146v14.2646
		c0,1.9434-2.269,4.2148-4.5381,3.2412c-19.1289-10.0508-44.0933-11.0225-64.8433,0c-2.269,1.2969-4.54-1.2979-4.54-3.2412v-13.6172
		c0-1.9434,0-5.8359,2.271-9.4023l36.96-52.8452h-32.0986C350.8008,231.6382,349.1792,230.3408,349.1792,228.0723L349.1792,228.0723
		z M470.7588,209.2661v19.4541l0,0c-13.9375,0-14.5889,18.8037-14.5889,30.4766c0,11.9961-0.3232,36.9604,14.2656,36.9604
		c0.3232,0,0.3232,0,0.3232,0v19.4521c0,0,0,0-0.3232,0c-27.2314,0-42.1455-23.668-42.1455-53.1724
		c0-29.8281,15.2373-53.1709,42.1455-53.1709C470.7588,209.2661,470.7588,209.2661,470.7588,209.2661L470.7588,209.2661z
		 M286.2822,313.3398v-17.1826c4.2148-0.9736,7.7808-3.8916,10.376-8.4307c3.5659-6.4834,3.5659-12.3184,3.5659-19.7773v-3.8892
		c-4.8643,0-9.7271,0.3228-13.9419,1.2949v-14.9141c4.8638-0.6479,9.728-0.9722,13.9419-1.2949v-2.5952
		c0-4.5376,0.3228-9.7266-2.271-13.6157c-2.269-3.2432-6.8071-4.8643-10.6992-4.8643c-0.3228,0-0.6489,0-0.9717,0v-19.7769
		c1.2969,0,2.5947,0,3.8916,0c9.0762,0,20.749,2.5942,27.8823,9.4009c9.0757,8.4302,8.4277,19.7783,8.4277,32.0972v29.1812
		c0,8.7534,3.5659,12.6431,6.8101,17.1831c1.2969,1.6201,1.6201,3.5645,0,4.8594c-3.5659,3.2432-10.376,9.0781-14.2661,12.3213l0,0
		c-1.2969,0.9727-2.917,0.9727-4.5376,0.3232c-6.1611-5.1885-7.1333-7.4551-10.6992-12.3193
		C297.6289,307.8281,292.4429,311.3945,286.2822,313.3398z M286.2822,208.2939v19.7769
		c-6.8091,0.6479-12.3193,4.2153-13.9424,11.3481c-0.3228,1.6211-1.6206,3.2412-3.2407,3.5659l-18.1572-2.269
		c-1.6206-0.3257-3.2407-1.2969-2.5918-3.8916C252.2393,216.3989,269.4219,209.2661,286.2822,208.2939L286.2822,208.2939z
		 M286.2822,250.4409v14.9141c-7.7812,2.271-13.9424,7.1328-13.9424,17.5083c0,8.1035,4.2153,13.6172,11.3481,13.6172
		c0.9741,0,1.623-0.3232,2.5942-0.3232v17.1826c-3.8921,0.9727-8.104,1.6211-13.293,1.6211
		c-15.5625,0-27.8823-9.7256-27.8823-28.8535c0-15.2402,8.1069-25.6162,19.7769-30.4785
		C271.0449,252.7129,278.8242,251.416,286.2822,250.4409L286.2822,250.4409z M41.1748,313.3398v-17.1826
		c4.2153-0.9736,8.1074-3.8916,10.376-8.4307c3.8901-6.4834,3.5664-12.3184,3.5664-19.7773l0,0v-3.8892
		c-4.8643,0-9.728,0.3228-13.9424,1.2949v-14.9141c4.8643-0.6479,9.7271-0.9722,13.9424-1.2949v-2.5952
		c0-4.5376,0.3228-9.7266-2.269-13.6157c-2.27-3.2432-6.4863-4.8643-10.376-4.8643c-0.6479,0-0.9722,0-1.2974,0v-19.7769
		c1.2974,0,2.5952,0,3.8921,0c9.0781,0,20.749,2.5942,28.2051,9.4009c9.0781,8.4302,8.106,19.7783,8.106,32.0972v29.1812
		c0,8.7534,3.5659,12.6431,7.1333,17.1831c0.9717,1.6201,1.2969,3.5645-0.3262,4.8594c-3.5659,3.2432-10.374,9.0781-14.2651,12.3213
		l0,0c-1.2969,0.9727-2.917,0.9727-4.5381,0.3232c-6.1606-5.1885-7.1328-7.4551-10.6987-12.3193
		C52.5229,307.8281,47.3359,311.3945,41.1748,313.3398L41.1748,313.3398z M125.146,313.6631h-18.8032
		c-1.9458-0.3232-3.2427-1.6201-3.2427-3.2402v-95.645c0-1.9458,1.623-3.5659,3.5659-3.5659h17.1831
		c1.9458,0,3.5659,1.6211,3.5659,3.2432v12.645h0.3262c4.5376-12.3223,12.9678-17.834,24.6406-17.834
		c11.6714,0,19.126,5.5117,24.3149,17.834c4.5381-12.3223,14.5884-17.834,25.6133-17.834c8.104,0,16.5352,3.2427,21.7212,10.376
		c5.8379,8.106,4.8638,19.7769,4.8638,30.1509v60.3037c0,1.9463-1.6211,3.5664-3.8901,3.5664h-18.48
		c-1.9458-0.3232-3.2427-1.6201-3.2427-3.5664V259.52c0-3.8901,0.3247-14.2651-0.6494-17.832
		c-1.2969-6.4839-5.5098-8.4302-11.022-8.4302c-4.541,0-9.0786,2.917-11.0239,7.7812c-1.9438,4.8628-1.9438,12.9678-1.9438,18.48
		v50.5767c0,1.9463-1.623,3.5664-3.5659,3.5664H156.271c-1.6201-0.3232-3.2412-1.6201-3.2412-3.5664V259.52
		c0-10.6992,1.6211-26.584-11.3477-26.584c-13.6172,0-12.9702,15.562-12.9702,26.584v50.5767
		C128.7129,312.043,127.0928,313.6631,125.146,313.6631z M41.1748,208.2939v19.7769c-6.4839,0.6479-12.3188,4.2153-13.9399,11.3481
		c-0.3247,1.6211-1.2969,3.2412-3.2427,3.5659l-18.1572-2.269c-1.2949-0.3257-3.2407-1.2969-2.5918-3.8916
		C7.1328,216.3989,24.6411,209.2661,41.1748,208.2939L41.1748,208.2939z M41.1748,250.4409v14.9141
		c-7.7808,2.271-13.9399,7.1328-13.9399,17.5083c0,8.1035,4.2153,13.6172,11.3481,13.6172c0.9722,0,1.9438-0.3232,2.5918-0.3232
		v17.1826c-3.8887,0.9727-8.104,1.6211-13.291,1.6211C12.3218,314.9609,0,305.2354,0,286.1074
		c0-15.2402,8.1069-25.6162,20.103-30.4785C26.2622,252.7129,33.7202,251.416,41.1748,250.4409z"/>
	<path id="path3" fill="#010101" d="M69.8232,306.1113c0,28.4248-12.7002,38.6992-33.8652,38.6992H5.7212V209.3481H35.958
		c23.583,0,29.6318,13.9106,29.6318,36.8921c0,16.9316-6.0479,26.0039-16.3247,26.6069
		C60.75,272.8472,69.8232,284.3398,69.8232,306.1113L69.8232,306.1113z M29.3052,280.709v47.7783h6.0459
		c7.2598,0,9.0718-4.2412,9.0718-24.7949c0-15.1201-1.812-22.9834-9.6758-22.9834H29.3052L29.3052,280.709z M29.3052,225.0752
		v39.3086h6.0459c6.0459,0,7.2598-6.0469,7.2598-17.542c0-15.7227-1.2109-21.7676-9.0737-21.7676L29.3052,225.0752L29.3052,225.0752
		z"/>
	<path id="path5" fill="#010101" d="M203.4688,275.2671c15.1162,4.2329,16.9331,22.3765,16.9331,38.7046
		c0,12.7061,0.603,24.1885,2.4214,30.8369h-24.791c-0.6074-5.4404-1.8145-7.8584-1.8145-20.5654c0-4.8369,0-10.2715,0-16.9277
		c0-10.8838-3.6299-18.7451-11.4907-21.167h-1.209v58.6602h-24.791V209.3491h36.2808c16.9321,0,28.4253,9.6758,28.4253,34.4688
		C223.4268,264.9858,214.355,274.0581,203.4688,275.2671L203.4688,275.2671z M183.5122,226.2822v39.3086h7.2578
		c6.0459,0,7.8628-4.2349,7.8628-16.3276c0-19.958-3.6299-22.981-10.8838-22.981H183.5122L183.5122,226.2822L183.5122,226.2822z"/>
	<path id="path7" fill="#010101" d="M264.5498,271.0371c1.207,18.1387,1.207,22.9785,1.207,39.3066c0,10.2764,0,34.4668,0,34.4668
		h-22.374V209.3481h22.374c0,0,10.2842,39.916,12.7002,48.3828c2.4209,8.4629,4.2329,15.1143,5.4419,21.1631
		c-0.604-13.3022-1.209-29.6299-1.209-42.937c0-10.2769,0-26.6089,0-26.6089h21.7729v135.4595h-19.958
		c0,0-12.0928-41.7275-14.5137-50.1904C268.1782,287.9648,266.3608,280.709,264.5498,271.0371L264.5498,271.0371L264.5498,271.0371z
		"/>
	<polygon id="polygon9" fill="#010101" points="349.8179,324.2461 379.4458,324.2461 379.4458,344.8125 326.2349,344.8125 
		326.2349,209.3481 375.8232,209.3481 375.8232,229.9102 349.8179,229.9102 349.8179,266.1929 372.7969,266.1929 372.7969,284.9414 
		349.8179,284.9414 	"/>
	<path id="path11" fill="#010101" d="M414.5259,313.3643c0,15.123,3.6279,17.542,9.0698,17.542
		c4.2363,0,7.2549-2.4189,7.2549-17.542c0-13.3086-9.0654-22.9795-18.7476-35.0723c-9.6719-10.8901-19.9531-26.0039-19.9531-38.7041
		c0-20.562,9.6763-32.0508,28.4233-32.0508c18.7461,0,29.0234,10.2769,29.0234,30.2388c0,4.228-1.207,7.8652-1.8125,10.8813
		h-19.9551c0-2.418,0.6035-5.4424,0.6035-9.6743c0-12.7017-1.8125-16.9351-7.2559-16.9351c-5.4419,0-6.0439,5.4443-6.0439,15.1191
		c0,12.0952,9.6758,21.7739,17.5352,32.0532c11.4912,14.5122,20.5625,26.0063,20.5625,39.9106
		c0,21.7764-9.0742,38.0947-30.2363,38.0947c-18.144,0-30.2393-9.665-30.2393-33.251c0-5.4424,0-10.2793,1.209-14.5176
		l21.7764-0.6055C415.127,304.293,414.5259,307.3154,414.5259,313.3643L414.5259,313.3643L414.5259,313.3643z"/>
	<path id="path13" fill="#010101" d="M619.5391,271.0371c1.2031,18.1387,1.2031,22.9785,1.2031,39.3066
		c0,10.2764,0,34.4668,0,34.4668h-22.376V209.3481h22.376c0,0,10.2832,39.916,12.7002,48.3828
		c2.4229,8.4629,4.2285,15.1143,4.8389,21.1631c-0.6064-13.3022-0.6064-29.6299-0.6064-42.937c0-10.2769,0-26.6089,0-26.6089
		h21.7734v135.4595h-19.9531c0,0-12.1016-41.7275-14.5137-50.1904C623.1582,287.9648,621.3486,280.709,619.5391,271.0371
		L619.5391,271.0371z"/>
	<path id="path15" fill="#010101" d="M741.085,277.083c0,58.0547-9.6729,70.1426-32.0508,70.1426
		c-20.5605,0-31.4424-9.0654-31.4424-70.1426c0-59.269,8.4629-69.5449,31.4424-69.5449
		C732.6221,207.5361,741.085,217.8149,741.085,277.083L741.085,277.083z M715.6787,277.083c0-21.167,0-34.4722-0.5986-44.1479
		c-0.6045-9.6753-2.4229-11.4912-6.0459-11.4912c-3.6328,0-5.4424,1.814-6.04,11.4912c-0.6074,9.6792-0.6074,22.981-0.6074,44.1479
		c0,24.7939,0,34.4668,0.6074,43.542c0.5977,10.2783,2.4141,11.4922,6.04,11.4922c4.2344,0,5.4414-0.6064,6.0459-11.4922
		C715.6787,310.9482,715.6787,301.8779,715.6787,277.083L715.6787,277.083z"/>
	<path id="path17" fill="#010101" d="M823.3281,306.1113c0,28.4248-12.7002,38.6992-33.8652,38.6992h-30.2412V209.3481h30.2412
		c23.584,0,29.6318,13.9106,29.6318,36.8921c0,16.9316-6.0479,26.0039-16.3291,26.6069
		C814.2578,272.8472,823.3281,284.3398,823.3281,306.1113L823.3281,306.1113z M782.8096,280.709v47.7783h6.0508
		c7.251,0,9.0771-4.2412,9.0771-24.7949c0-15.1201-1.8193-22.9834-9.6797-22.9834H782.8096L782.8096,280.709z M782.8096,225.0752
		v39.3086h6.0508c6.0381,0,7.251-6.0469,7.251-17.542c0-15.7227-1.8115-21.7676-9.0693-21.7676L782.8096,225.0752L782.8096,225.0752
		z"/>
	<polygon id="polygon19" fill="#010101" points="865.0527,324.2461 893.4785,324.2461 893.4785,344.8125 840.2646,344.8125 
		840.2646,209.3481 865.0527,209.3481 	"/>
	<polygon id="polygon21" fill="#010101" points="930.3701,324.2461 960,324.2461 960,344.8125 906.7754,344.8125 906.7754,209.3481 
		956.374,209.3481 956.374,229.9102 930.3701,229.9102 930.3701,266.1929 953.3486,266.1929 953.3486,284.9414 930.3701,284.9414 	
		"/>
	<path id="path23" fill="#010101" d="M78.8921,344.8125l19.3491-136.0654h23.585l22.9829,136.0654h-25.397l-2.4189-21.7764H101.875
		l-2.417,21.7764H78.8921L78.8921,344.8125z M103.687,307.9248h12.0981c0,0-1.8164-15.7236-3.0254-26.0049
		c-0.6025-6.0459-3.0249-26.0029-3.6299-38.7012c-0.604,13.3052-2.4209,32.6582-3.0249,38.7012
		C105.5029,292.1992,103.687,307.9248,103.687,307.9248L103.687,307.9248z"/>
	<path id="path25" fill="#D05727" d="M569.9453,274.0581c-9.6787,0-16.3301,6.0459-20.5625,15.1177
		c-4.2324,9.0723-9.0742,20.5605-12.0977,26.6055c-10.2783-18.1357-18.1387-32.0488-22.9805-44.7441
		c7.8574-4.8369,21.7715-11.4932,30.2383-18.749c7.8633-7.2598,11.4863-14.5161,13.3027-22.3789
		c2.4229-15.1182-6.0488-28.4199-25.3955-28.4199c-16.3271,0-35.6865,12.6978-39.3057,33.8618
		c-1.8076,10.2842,0.5996,24.188,4.832,35.6831c-14.5088,9.6719-27.209,20.5576-30.834,37.4932
		c-4.2354,28.4209,13.3105,41.1113,33.2617,41.1113c13.3105,0,23.583-6.042,32.0527-15.1113
		c6.04,6.6514,13.9092,15.1113,23.5859,15.1113c7.8623,0,16.3252-4.8389,22.9785-13.2979l-3.0234-4.2305
		c-6.042,6.04-10.2764,8.4609-13.9092,8.4609c-6.6514,0-12.6953-6.0439-18.748-14.5068c-0.5986-1.8271-1.207-3.0391-1.8125-4.248
		c3.6328-7.249,6.0449-15.1123,9.6748-22.3721c6.0508-13.3057,9.6787-18.1436,15.127-18.1436
		c9.6699,0,1.8076,15.7246,12.0957,15.7246c4.8369,0,7.2529-3.625,7.8555-7.8594
		C586.8779,283.7324,583.25,274.0581,569.9453,274.0581L569.9453,274.0581L569.9453,274.0581z M509.4668,231.7261
		c1.2119-9.6772,9.6816-19.958,22.377-19.958c9.6719,0,16.3271,7.2578,13.9023,18.749c-0.5977,4.2319-1.8047,8.4668-6.0352,13.9121
		c-4.8398,5.439-20.5645,15.1138-27.8232,19.3486C508.2539,252.8911,507.0488,242.6118,509.4668,231.7261L509.4668,231.7261z
		 M505.8457,340.5801c-18.748,0-25.3955-15.7139-23.5898-27.8203c2.4209-15.1143,9.6748-24.1875,18.7422-32.6528
		c6.6572,16.3306,15.125,32.6528,27.2197,49.5952C521.5625,337.5527,515.5215,340.5801,505.8457,340.5801L505.8457,340.5801z"/>
	<path id="path27" fill="#FFFFFF" d="M504.6318,226.2822c0,0-12.6943,19.958,5.4443,59.2646
		c14.5137,32.6572,32.0508,50.8027,32.0508,50.8027s-17.541-24.1875-29.6318-53.2109
		C497.9766,247.4492,504.6318,226.2822,504.6318,226.2822L504.6318,226.2822L504.6318,226.2822z"/>
	<g display="inline">
		<g>
			<path fill="#010101" d="M221.2241,228.8188c0-17.8867-36.7651-30.0278-48.583-3.4448
				c-9.1899-20.6812-38.2422-19.9932-46.1553,0.165l0.0063-10.5591c0-1.5981-1.4644-3.0649-3.0654-3.0649h-16.4946
				c-1.603,0-3.063,1.4668-3.063,3.0649v89.23c0,1.6006,1.46,3.0674,3.063,3.0674h17.728c1.605,0,3.019-1.4688,3.019-3.0674v-56.582
				c0-6.3867,2.6948-13.5967,9.4609-15.085c7.4399-1.6562,13.5068,2.458,13.5068,11.0532l-0.0068,60.6138
				c0,1.6006,1.46,3.0674,3.0649,3.0674h18.0269c1.603,0,3.0649-1.4688,3.0649-3.0674l0.002-60.1191
				c0-13.6338,22.6821-17.1548,22.6821,0V304.21c0,1.6006,1.4619,3.0674,3.0649,3.0674h17.6143c1.603,0,3.063-1.4688,3.063-3.0674
				L221.2241,228.8188L221.2241,228.8188z"/>
			<path fill="#010101" d="M397.5239,215.1279c0-1.5991-1.4619-3.0537-3.063-3.0537H336.145c-0.8071,0-1.6089,0.3408-2.1772,0.9058
				c-0.5649,0.5762-0.8198,1.3701-0.8198,2.1738v12.4014c0,1.585,1.5479,3.0117,3.1401,3.0117h30.6538l-34.9268,51.1343
				c-1.9961,2.9199-1.6514,4.7344-1.6514,5.3379l0.0312,14.2256c0,3.0537,1.1318,4.4131,4.6279,2.9355
				c21.356-9.0205,44.1108-9.5615,61.2632,0.6992c1.4028,0.8486,3.0996-0.0664,3.0996-2.4609l0.0044-15.9756
				c0-1.0371-0.561-2.0449-1.4321-2.583c-9.9092-6.251-22.5103-7.918-34.7349-7.731l32.647-45.3809
				c1.5649-2.1792,1.6548-4.5049,1.6548-5.1362L397.5239,215.1279z"/>
			<path fill="#010101" d="M461.1787,259.7178c0,17.293-0.6221,31.3076-13.6445,31.3076c-12.3965,0-13.6367-14.0146-13.6367-31.3076
				s1.0332-31.521,13.6367-31.3179C459.7285,228.6021,461.1787,242.4248,461.1787,259.7178z M487.4209,259.4062
				c-0.0137-28.4492-16.7129-50.0693-39.8867-49.8052c-23.2998,0.272-39.9141,22.1338-39.8813,50.0117
				c0.0312,28.5708,16.9722,50.4351,40.2983,49.8042C471.166,308.7842,487.4336,287.0391,487.4209,259.4062z"/>
			<path fill="#010101" d="M572.2383,235.4351c0-14.146-8.5625-25.834-28.6074-25.2148
				c-9.2988,0.2817-16.5479,7.3569-20.5732,17.3608v-12.8579c0-1.6089-1.4648-3.0649-3.0635-3.0649h-17.1104
				c-1.6025,0-3.0625,1.4556-3.0625,3.0649V304.29c0,1.6035,1.4619,3.0566,3.0625,3.0566h17.8955
				c1.6035,0,3.0654-1.4531,3.0654-3.0566v-56.2559c0-8.3823,7.1787-15.4531,13.7939-15.7061
				c5.46-0.2031,10.9258,5.04,10.9258,10.958v61.0029c0,1.6035,1.4561,3.0566,3.0586,3.0566h17.5605
				c1.6045,0,3.0635-1.4531,3.0635-3.0566L572.2383,235.4351z"/>
			<path fill="#010101" d="M288.2148,261.0352v11.603c0,8.9985-5.9717,16.6606-10.9038,18.144
				c-9.7271,2.9287-16.042-4.623-15.7998-12.6821c0.2988-10.1802,9.252-16.3892,16.813-16.6733L288.2148,261.0352z
				 M312.2988,233.5381c0-15.0479-13.021-24.6343-38.251-23.7461c-15.4019,0.5371-30.0537,6.2642-33.832,24.8779
				c-0.1719,0.833,0.0244,1.7329,0.519,2.4189c0.499,0.6841,1.291,1.1392,2.1353,1.2354l15.708,1.8008
				c1.5059,0.1631,3.0469-0.9541,3.3511-2.4341c1.1328-5.8638,5.5806-10.2051,12.1196-10.2051
				c9.7402,0,13.9551,5.0151,13.9551,11.6553v8.7026l-19.4102,1.478c-16.418,1.2515-31.6938,11.957-32.0156,32.4624
				c-0.292,18.8779,12.2451,27.875,29.3589,27c10.1909-0.5361,19.0811-4.8936,25.8169-12.3955l9.6899,10.7803
				c0.5454,0.6045,1.3462,0.9805,2.1611,1.0088c0.8179,0.0264,1.6431-0.2793,2.2339-0.8467l12.6069-12.0488
				c1.0601-1.0205,1.2251-2.8252,0.3721-4.0088l-4.6406-6.1055c-0.939-1.2344-1.8784-6.75-1.8784-9.8809V233.5381L312.2988,233.5381
				z"/>
			<path fill="#010101" d="M58.7412,261.021v11.5918c0,8.9946-5.9683,16.6626-10.9014,18.1372
				c-9.7271,2.9336-16.04-4.623-15.7998-12.6821c0.2988-10.1758,9.2568-16.3721,16.812-16.6699L58.7412,261.021z M82.8262,233.5088
				c0-15.0459-13.021-24.6318-38.2471-23.7456c-15.4043,0.541-30.061,6.2656-33.8359,24.8916
				c-0.1724,0.8203,0.0239,1.7173,0.521,2.4082c0.4971,0.6821,1.291,1.1558,2.1279,1.249l15.7139,1.7861
				c1.5039,0.1777,3.0479-0.939,3.3491-2.4321c1.1348-5.8662,5.5869-10.1909,12.124-10.1909c9.7339,0,13.9507,5.002,13.9507,11.6421
				v8.7158l-19.4097,1.4639c-16.4141,1.251-31.6899,11.957-32.0132,32.46c-0.2949,18.8955,12.2422,27.8926,29.355,27
				c10.1953-0.5205,19.083-4.8809,25.8188-12.3955l9.6924,10.7852c0.543,0.6025,1.3438,0.9785,2.1616,1.0205
				c0.8154,0.0264,1.6401-0.2842,2.2314-0.8486l12.6118-12.0605c1.0581-1.0107,1.2231-2.8281,0.3647-4.0117l-4.6348-6.0918
				c-0.9458-1.25-1.8818-6.7622-1.8818-9.8955V233.5088z"/>
		</g>
		<g>
			<path fill="#010101" d="M600.334,300.6494c0-4.7607-3.8564-8.6201-8.6152-8.6201c-4.7598,0-8.6162,3.8594-8.6162,8.6201
				c0,4.7598,3.8564,8.6035,8.6162,8.6035C596.4785,309.2549,600.334,305.4092,600.334,300.6494z"/>
			<path fill="#010101" d="M668.7207,244.1069c0.5215,0,1.04-0.2178,1.3984-0.603c0.3535-0.3799,0.5449-0.917,0.5098-1.4399
				c-1.2842-17.9629-12.6826-32.8638-33.5918-32.4639c-25.2129,0.4731-34.5908,27.6748-34.9248,48.771
				c-0.3604,22.834,7.6455,49.5928,34.9248,51.0439c19.5791,1.0352,32.7148-15.8643,33.6182-33.751
				c0.0205-0.5122-0.167-1.0352-0.5186-1.4121c-0.3564-0.376-0.8623-0.6348-1.3809-0.6348h-8.9453
				c-0.916,0-1.7715,0.688-1.9082,1.605c-1.6875,11.4282-10.334,21.6743-19.21,21.7935
				c-16.1211,0.2002-21.8682-22.3315-22.1123-37.8257c-0.2051-13.0142,5.7852-36.7759,21.4922-36.9927
				c11.625-0.1431,18.3594,9.0146,19.8418,20.2539c0.1211,0.8989,0.9756,1.6528,1.8945,1.6528h8.9121V244.1069z"/>
			<path fill="#010101" d="M776.4785,300.6494c0-4.7607-3.8555-8.6201-8.6133-8.6201c-4.7617,0-8.6152,3.8594-8.6152,8.6201
				c0,4.7598,3.8535,8.6035,8.6152,8.6035C772.6211,309.2549,776.4785,305.4092,776.4785,300.6494z"/>
			<path fill="#010101" d="M739.5918,259.5312c0,20.9336-6.6357,37.9023-22.3262,37.9023
				c-15.4834-0.9922-22.3232-16.9707-22.3232-37.9023c0-20.9385,7.2402-38.1221,22.3232-37.9194
				C732.1465,221.812,739.5918,238.5952,739.5918,259.5312z M755.4785,259.4229c0-27.6597-13.2705-49.876-38.1143-50.0737
				c-24.6387,0.1978-37.7051,21.8218-37.7051,49.48c-0.2051,30.7637,11.2617,49.2686,37.4062,50.4775
				C739.7891,309.5098,755.4785,290.001,755.4785,259.4229z"/>
			<path fill="#010101" d="M851.0186,213.6768c0-0.9956-0.9131-1.9087-1.917-1.9087h-10.0488c-1.0049,0-1.915,0.9131-1.915,1.9087
				l-0.002,56.4082c0,5.23-5.0264,24.335-20.7139,26.5557c-13.1855,1.8584-17.5566-13.2832-17.5566-22.7324v-60.229
				c0-0.9961-0.915-1.9092-1.916-1.9092h-10.5977c-1.0039,0-1.9121,0.9131-1.9121,1.9092l0.002,62.4429
				c0,17.4951,9.4238,33.6318,27.3496,33.79c11.8047,0.0967,20.9785-6.585,26.2393-16.2949v11.8467
				c0,1.0098,0.9062,1.9238,1.9131,1.9238h9.1621c1,0,1.9111-0.9141,1.9111-1.9238L851.0186,213.6768L851.0186,213.6768z"/>
			<path fill="#010101" d="M931.4609,216.4082c1.4814-1.9395,3.0176-4.248-0.3984-4.248l-10.7539-0.0161
				c-0.5693,0-1.1299,0.2949-1.4824,0.7368l-36.2344,46.6084v-79.5874c0-1.0117-0.9102-1.9258-1.9131-1.9258h-10.4502
				c-1.0049,0-1.9199,0.915-1.9199,1.9258V305.502c0,1.0088,0.915,1.9258,1.9199,1.9258h10.5947c1.0029,0,1.915-0.917,1.915-1.9258
				v-26.7432c0-0.4307,0.1436-0.8467,0.3955-1.1826l16.5537-21.5273l22.8232,50.2617c0.3027,0.6582,1.0146,1.1172,1.7412,1.1172
				h11.4023c0.6455,0,1.2773-0.3516,1.627-0.9014c0.3408-0.5537,0.376-1.2773,0.0947-1.8545l-28.4346-58.937L931.4609,216.4082z"/>
		</g>
		<g>
			<path fill="#010101" d="M953.5889,217.9268c0,0.2554-0.0576,0.4844-0.1475,0.6841c-0.1055,0.2173-0.2598,0.4043-0.4668,0.5649
				c-0.2031,0.1475-0.4727,0.2842-0.7822,0.3633c-0.3125,0.0972-0.6816,0.123-1.1104,0.123h-1.583v-3.4702h1.3652
				c0.3193,0,0.5781,0.0132,0.7842,0.0259c0.1943,0.0132,0.3701,0.0532,0.5312,0.0801c0.5078,0.125,0.8682,0.3252,1.084,0.606
				C953.4746,217.1729,953.5889,217.5239,953.5889,217.9268z M956.04,225.1582c0-0.0391-0.0244-0.0942-0.0459-0.1733
				c-0.0264-0.0786-0.084-0.2129-0.165-0.4019l-1.0928-2.271c-0.1426-0.2549-0.2715-0.4858-0.3887-0.6992
				c-0.1367-0.2017-0.2637-0.3906-0.4033-0.5557c-0.1357-0.145-0.2939-0.2793-0.4658-0.3999
				c-0.1582-0.1211-0.3408-0.2002-0.5371-0.2812c0.3438-0.1099,0.6738-0.2441,0.9727-0.3921c0.2881-0.147,0.541-0.332,0.75-0.5518
				c0.2061-0.2021,0.3564-0.4443,0.4727-0.7119c0.1162-0.2812,0.1777-0.5913,0.1777-0.939c0-0.3545-0.0703-0.6724-0.1865-0.9673
				c-0.1279-0.2988-0.3174-0.5542-0.5547-0.7827c-0.2588-0.2295-0.5596-0.416-0.9141-0.5654
				c-0.374-0.147-0.7998-0.2568-1.2646-0.3359c-0.1582-0.0127-0.3408-0.0127-0.5537-0.0347
				c-0.207-0.0161-0.4727-0.0293-0.7725-0.0293h-2.6006c-0.1494,0-0.2939,0.0513-0.4131,0.1172
				c-0.1318,0.0967-0.1875,0.2437-0.1875,0.4458v9.5312c0,0.042,0.0137,0.084,0.0342,0.1099c0.0215,0.04,0.0605,0.063,0.1309,0.0811
				c0.0596,0.0107,0.1338,0.0239,0.2529,0.0381c0.1016,0.0146,0.2285,0.0146,0.3955,0.0146c0.1611,0,0.2861,0,0.3887-0.0146
				c0.1035-0.0132,0.1855-0.0264,0.2432-0.0381c0.0605-0.0181,0.1045-0.042,0.1396-0.0811
				c0.0205-0.0259,0.0469-0.0679,0.0469-0.1099v-4.3823h1.0879c0.3691,0,0.6797,0.04,0.9482,0.147
				c0.2637,0.0972,0.4932,0.2153,0.6904,0.3892c0.1953,0.1782,0.3711,0.3628,0.5117,0.5913
				c0.1387,0.2329,0.2725,0.4839,0.4111,0.752l1.1221,2.4355c0.0215,0.0664,0.0586,0.1084,0.0938,0.1504
				c0.0361,0.0498,0.0801,0.0898,0.1475,0.1069c0.0625,0.0239,0.1387,0.0239,0.2422,0.0527c0.1035,0,0.2461,0,0.4092,0
				c0.1826,0,0.3428,0,0.457,0c0.1035-0.0278,0.1865-0.0278,0.2686-0.0527c0.0576-0.0181,0.0918-0.042,0.1143-0.0811
				C956.0273,225.2422,956.04,225.2002,956.04,225.1582z"/>
			<path fill="#010101" d="M949.0508,227.043c-3.6328-1.4512-5.3984-5.5669-3.9434-9.2002c1.4453-3.6279,5.5684-5.3887,9.1914-3.938
				c3.6279,1.4512,5.3955,5.5654,3.9424,9.1973C956.792,226.73,952.6738,228.4961,949.0508,227.043z M960,220.479
				c0-1.2642-0.29-2.5112-0.8359-3.6411c-0.7363-1.521-1.9502-2.812-3.4248-3.6318c-2.8584-1.5981-6.6885-1.3169-9.2324,0.7388
				c-2.4346,1.9663-3.6875,5.354-2.9492,8.4082c0.3955,1.585,1.2178,3.0889,2.4248,4.2061
				c2.3115,2.0981,5.8428,2.8359,8.7363,1.6689c2.3525-0.9702,4.248-2.999,4.9512-5.4492C959.8857,222.0269,960,221.249,960,220.479
				z"/>
		</g>
	</g>
	<g display="inline">
		<g>
			<path fill="#FCB129" d="M363.7632,361.292c-3.5884,8.5791,5.1509,2.9863,6.229,2.0029
				c11.7939-10.6748,20.4697-42.7139,15.1289-47.6152c-6.73-6.1523-37.9902-6.1016-51.8389,4.0127
				c-5.7852,4.2324-2.5444,5.0547,3.564,4.6787c10.6729-0.6729,20.27-1.3721,28.478-0.6729
				c7.7827,0.6729,8.2246,4.4629,6.2246,12.6777C369.229,345.9209,367.769,351.7285,363.7632,361.292z"/>
			<path fill="#FCB129" d="M350.9551,335.4883c-80.6343,32.9297-173.6699,28.3564-250.2061-11.9941
				c-1.0552-0.5498-4.8042-2.7051-9.0781-4.8398c-3.3379-1.6689-3.9688-1.1191-4.5117-0.5234
				c-0.75,0.8047-0.4683,2.2715,0.7207,3.3447c44.9419,40.4873,98.9731,59.959,157.9629,57.4043
				c45.0342-1.9619,86.9941-18.4736,111.0225-36.0479c3.5439-2.5967,4.8149-5.9697,3.3398-7.5576
				C358.6919,333.6475,354.6992,333.958,350.9551,335.4883z"/>
		</g>
	</g>
</g>
<g id="Layer_2" display="none">
	<path display="inline" fill="#F58220" d="M361.959,344.5371c-4.062,3.1201-8.4331,5.9326-12.8027,8.4297v-13.1152
		c2.4966-0.9355,5.3066-2.1846,7.8057-3.1182C362.5811,334.2324,367.5791,340.4775,361.959,344.5371L361.959,344.5371z
		 M391.6211,322.6787c0-2.499-0.625-4.3701-1.249-5.3086c-2.8101-3.4375-23.418-6.5586-41.2158-1.25v9.6787
		c10.9287-0.9346,23.7285-1.2461,26.8525,2.8135c4.3711,5.3066-4.9946,28.4131-9.0547,38.4043
		c-1.25,3.1211,1.5601,4.3701,4.3711,2.1865c14.0518-11.8643,19.9829-33.4111,20.2959-44.6504V322.6787z M349.1562,352.9668
		c-32.7861,19.6719-75.2515,29.9775-112.0972,29.9775c-59.3271,0-112.4082-21.8574-152.688-58.3916
		c-3.4351-2.8096-0.625-6.8691,3.4341-4.6846c43.4038,25.293,97.1089,40.5928,152.689,40.5928
		c34.9717,0,72.7529-6.5576,108.6621-20.6094V352.9668L349.1562,352.9668z M349.1562,316.1201
		c-4.9971,1.5615-9.3682,3.748-13.4272,6.5586c-3.1221,2.1875-2.4971,4.9951,0.625,4.6855
		c3.4351-0.624,7.8062-0.9385,12.8032-1.5635L349.1562,316.1201L349.1562,316.1201z"/>
	<path display="inline" d="M916.1953,229.0039v-1.561c4.3701,0,7.8047-3.4351,7.8047-7.8047c0-4.373-3.7451-7.8081-7.8047-7.8081
		v-1.561l0,0c4.9951,0,9.3672,4.0601,9.3672,9.3682C925.5625,224.6338,921.1904,229.0039,916.1953,229.0039L916.1953,229.0039
		L916.1953,229.0039z M916.1953,220.5742h0.3105c0.625,0,0.9385,0.3115,0.9385,0.9365c0,0.3135,0.3115,2.8101,0.625,3.4341h2.1855
		c-0.3115-0.624-0.625-1.8716-0.625-2.8101c-0.3115-1.2485-0.3115-2.1846-1.873-2.4956c0.9385-0.313,2.1865-0.627,2.1865-2.5
		c0-2.8091-2.4971-2.8091-3.7461-2.8091l0,0v1.561l0,0c0.625,0,1.5615,0,1.5615,1.561c0,0.625-0.3115,1.561-1.5615,1.561l0,0
		L916.1953,220.5742L916.1953,220.5742z M916.1953,210.271v1.561l0,0c-4.3711,0-8.1191,3.4351-8.1191,7.8081
		c0,4.3696,3.748,7.8047,8.1191,7.8047l0,0v1.561c-5.3105,0-9.6816-4.0601-9.6816-9.3657
		C906.5156,214.3301,910.8867,210.271,916.1953,210.271L916.1953,210.271z M916.1953,214.3301h-3.748v10.6147l0,0h2.1875v-4.3706
		h1.5625v-1.562h-1.5625v-3.1211h1.5625L916.1953,214.3301L916.1953,214.3301z M732.2803,311.126v-12.8027
		c8.1191-0.3125,14.6777-5.3076,18.7354-13.7383c3.4365-7.8071,4.0605-16.8608,4.0605-25.293
		c0-9.3662-0.9385-19.0449-5.3105-27.1641c-3.7461-6.8691-10.6152-11.2422-17.4854-11.5537V208.085l0,0h0.626h0.9375
		c24.9795,0,37.4688,25.292,37.4688,51.52C771.3125,286.7695,757.5732,310.8125,732.2803,311.126L732.2803,311.126z
		 M784.4258,309.251c-1.8711-0.3105-3.4346-1.5605-3.4346-3.4346v-92.1113c0.3115-1.563,1.5615-2.8101,3.4346-3.123h6.5605
		c1.874,0,3.123,1.5601,3.4346,3.123v13.4248c4.6855-10.6147,13.4277-19.0449,24.3564-19.0449h0.9355h0.625
		c11.5527,0,20.2959,8.7412,23.417,21.2329c4.9961-12.1787,14.3643-21.2329,26.8545-21.2329h0.624h0.626
		c8.7412,0,17.1729,5.6201,21.5449,14.3633c4.0566,8.1167,4.0566,19.0449,4.0566,28.1016v55.2676
		c0,1.874-1.5596,3.124-3.4336,3.4346h-7.8076c-1.5605-0.3105-3.1211-1.2471-3.4336-3.1221v-55.5801
		c0-6.5576,0.3115-13.7388-2.1875-19.6719c-2.8115-6.2451-8.1191-9.9932-13.7373-10.3037
		c-6.2441,0.3115-11.8672,4.9956-15.6133,11.2397c-4.9941,7.8071-4.6826,14.9878-4.6826,24.356v50.2725
		c-0.3125,1.248-1.5625,2.498-3.4375,2.8086h-7.8057c-1.874-0.3105-3.4365-1.5605-3.4365-3.4346v-59.0156
		c0-5.3086-0.3115-11.8647-2.8096-16.5479c-2.8125-5.6201-8.1191-9.3682-13.4297-9.6797
		c-5.9336,0.3115-11.5527,4.6846-14.9863,9.6797c-4.3691,6.5581-5.3105,14.3633-5.3105,22.481v53.0825
		c0,1.874-1.2471,3.124-3.1191,3.4346H784.4258L784.4258,309.251z M732.2803,208.085v12.4893h-0.3125
		c-7.8076,0.3115-14.9863,5.6196-18.7324,14.0498c-3.123,7.1831-4.0625,16.5488-4.0625,24.668c0,9.0571,1.248,19.3599,4.9961,27.165
		c3.4375,6.8701,10.3047,11.8662,17.7988,11.8662h0.3125v12.8027c-0.3125,0-0.624,0-0.624,0h-0.9375h-0.625
		c-25.6035,0-36.8447-25.917-36.8447-51.834C693.251,231.814,706.6777,208.396,732.2803,208.085L732.2803,208.085z
		 M454.3818,311.126v-18.7334c13.4277-0.3125,14.0518-19.6714,14.0518-31.2266c0-7.8052-0.3115-17.1729-2.8105-24.667
		c-1.874-6.2451-5.6201-8.7441-11.2422-9.0552V208.708c26.2295,0.313,40.5928,23.1069,40.5928,52.147
		C494.9746,288.957,479.0508,310.8125,454.3818,311.126L454.3818,311.126z M650.4736,298.0107
		c11.2393-0.3115,17.4844-9.0537,19.9834-21.2319c0.3115-1.25,1.5605-2.4976,3.1221-2.4976h7.4961
		c1.8711,0,3.4336,1.5615,3.4336,3.1226c-3.4336,19.9829-15.6094,33.7231-33.0986,33.7231h-0.625h-0.9385
		c-25.292,0-36.2197-25.293-36.2197-51.209c0-25.604,11.2383-51.832,36.5312-51.832h0.625h0.625
		c17.7969,0,30.2871,13.7393,33.0986,34.0332c0,1.25-1.5615,2.8096-3.123,2.8096h-8.1191
		c-1.5605-0.3105-2.4961-1.5605-2.8096-3.1216c-1.875-11.5532-8.4297-20.6069-19.3584-20.9214
		c-17.1738,0.625-22.1699,21.8574-22.1699,38.0952C628.9287,274.9048,632.9873,297.3867,650.4736,298.0107L650.4736,298.0107z
		 M611.4434,301.7568c0-4.6836-4.0615-8.4297-8.7441-8.4297c-4.9951,0-9.0566,3.7461-9.0566,8.4297
		c0,4.6875,4.0615,8.4336,9.0566,8.4336C607.3838,310.1875,611.4434,306.4424,611.4434,301.7568L611.4434,301.7568z
		 M529.6338,309.251H511.835c-1.8711-0.3105-3.4346-1.5605-3.4346-3.4346v-92.1113c0.3115-1.874,1.5615-3.123,3.4346-3.123h16.8623
		c1.5605,0,2.8105,1.249,3.124,2.8101v14.0518h0.3105c4.9951-12.8027,12.1777-18.7358,24.667-18.7358
		c7.8066,0,15.9248,2.812,20.9219,10.9312c4.6836,7.4917,4.6836,19.6699,4.6836,28.7251v57.7656
		c-0.3125,1.5625-1.5625,3.1221-3.4365,3.1221h-18.1084c-1.5615-0.3105-3.1211-1.5605-3.1211-3.1221v-49.647
		c0-10.3037,1.248-24.979-11.2412-24.979c-4.3701,0-8.4297,2.8101-10.6172,7.4941c-2.4961,5.6201-2.8105,11.2397-2.8105,17.4849
		v49.3345C533.0674,307.6904,531.5078,309.251,529.6338,309.251z M337.29,226.8188v-13.1138c0-1.874,1.562-3.4351,3.4341-3.4351
		h59.0171c1.8716,0,3.4346,1.561,3.4346,3.4351v11.2397c0,1.874-1.563,4.373-4.3726,8.4331l-30.5991,43.7119
		c11.2397-0.312,23.418,1.562,33.7217,7.1816c2.1851,1.5625,2.811,3.4375,3.1221,5.3115v13.7383c0,1.873-2.1846,4.0605-4.3706,3.123
		c-18.4233-9.6807-42.4653-10.6172-62.4492,0c-2.1851,1.248-4.373-1.25-4.373-3.123v-13.1162c0-1.8711,0-5.6182,2.188-9.0547
		l35.5962-50.8955h-30.9141C338.8521,230.2539,337.29,229.0039,337.29,226.8188L337.29,226.8188z M454.3818,208.708v18.7358l0,0
		c-13.4248,0-14.0508,18.1089-14.0508,29.3521c0,11.5532-0.3125,35.5967,13.7393,35.5967c0.3115,0,0.3115,0,0.3115,0v18.7334
		c0,0,0,0-0.3115,0c-26.2295,0-40.5923-22.7939-40.5923-51.209c0-28.7271,14.6753-51.209,40.5923-51.209
		C454.3818,208.708,454.3818,208.708,454.3818,208.708L454.3818,208.708z M276.7139,308.9404v-16.5498
		c4.0601-0.9385,7.4951-3.748,9.9932-8.1191c3.4351-6.2446,3.4351-11.8633,3.4351-19.0464v-3.7471
		c-4.6851,0-9.3682,0.312-13.4282,1.2471v-14.3633c4.6851-0.625,9.3691-0.936,13.4282-1.2476v-2.498
		c0-4.3711,0.311-9.3682-2.188-13.1143c-2.1851-3.123-6.5562-4.6841-10.3042-4.6841c-0.311,0-0.625,0-0.937,0V207.771
		c1.25,0,2.499,0,3.749,0c8.7412,0,19.9829,2.499,26.853,9.0552c8.7412,8.1187,8.1162,19.0469,8.1162,30.9121v28.1035
		c0,8.4297,3.4351,12.1758,6.5581,16.5488c1.25,1.5615,1.5605,3.4355,0,4.6836c-3.4351,3.123-9.9932,8.7432-13.7393,11.8672l0,0
		c-1.249,0.9355-2.8101,0.9355-4.3711,0.3105c-5.9331-4.9951-6.8701-7.1807-10.3037-11.8633
		C287.6431,303.6318,282.6479,307.0664,276.7139,308.9404z M276.7139,207.771v19.0469c-6.5581,0.625-11.8638,4.0601-13.4268,10.9292
		c-0.312,1.561-1.561,3.1221-3.1221,3.4351l-17.4873-2.186c-1.5605-0.313-3.1206-1.25-2.4966-3.748
		C243.9277,215.5771,260.4771,208.708,276.7139,207.771L276.7139,207.771z M276.7139,248.3628v14.3633
		c-7.4937,2.188-13.4268,6.8701-13.4268,16.8628c0,7.8057,4.0591,13.1143,10.9277,13.1143c0.938,0,1.563-0.3125,2.499-0.3125
		v16.5508c-3.748,0.9355-7.8047,1.5615-12.8027,1.5615c-14.9883,0-26.853-9.3672-26.853-27.79
		c0-14.6768,7.8081-24.6689,19.0469-29.3511C262.04,250.5498,269.5312,249.3008,276.7139,248.3628L276.7139,248.3628z
		 M40.6548,308.9404v-16.5498c4.0601-0.9385,7.8081-3.748,9.9932-8.1191c3.7461-6.2446,3.4351-11.8633,3.4351-19.0464l0,0v-3.7471
		c-4.6841,0-9.3682,0.312-13.4282,1.2471v-14.3633c4.6851-0.625,9.3682-0.936,13.4282-1.2476v-2.498
		c0-4.3711,0.312-9.3682-2.1851-13.1143c-2.186-3.123-6.2471-4.6841-9.9932-4.6841c-0.625,0-0.936,0-1.25,0V207.771
		c1.25,0,2.499,0,3.749,0c8.7432,0,19.9834,2.499,27.1641,9.0552c8.7432,8.1187,7.8071,19.0469,7.8071,30.9121v28.1035
		c0,8.4297,3.4351,12.1758,6.8701,16.5488c0.936,1.5615,1.25,3.4355-0.314,4.6836c-3.4341,3.123-9.9912,8.7432-13.7383,11.8672l0,0
		c-1.25,0.9355-2.8101,0.9355-4.3711,0.3105c-5.9336-4.9951-6.8696-7.1807-10.3037-11.8633
		C51.584,303.6318,46.5889,307.0664,40.6548,308.9404L40.6548,308.9404z M121.5269,309.251H103.418
		c-1.874-0.3105-3.124-1.5605-3.124-3.1221v-92.1128c0-1.874,1.562-3.4341,3.4351-3.4341h16.5488
		c1.874,0,3.4341,1.5601,3.4341,3.123v12.1777h0.314c4.3711-11.8667,12.4893-17.1748,23.731-17.1748
		c11.2402,0,18.4199,5.3091,23.418,17.1748c4.3711-11.8667,14.0503-17.1748,24.667-17.1748c7.8052,0,15.9243,3.124,20.9194,9.9932
		c5.6216,7.8076,4.6836,19.0469,4.6836,29.0376v58.0796c0,1.874-1.561,3.4346-3.7456,3.4346h-17.7983
		c-1.874-0.3105-3.123-1.5605-3.123-3.4346v-48.7104c0-3.7461,0.313-13.7388-0.625-17.1738
		c-1.249-6.2441-5.3057-8.1182-10.6147-8.1182c-4.373,0-8.7432,2.8101-10.6172,7.4941c-1.8721,4.6841-1.8721,12.4888-1.8721,17.7979
		v48.7104c0,1.874-1.563,3.4346-3.4346,3.4346h-18.1113c-1.5601-0.3105-3.1211-1.5605-3.1211-3.4346v-48.7104
		c0-10.3042,1.561-25.604-10.9287-25.604c-13.1143,0-12.4912,14.9883-12.4912,25.604v48.7104
		C124.9619,307.6904,123.4009,309.251,121.5269,309.251z M40.6548,207.771v19.0469c-6.2437,0.625-11.8638,4.0601-13.4248,10.9292
		c-0.313,1.561-1.249,3.1221-3.123,3.4351l-17.4868-2.1851c-1.248-0.313-3.1221-1.25-2.4971-3.748
		C7.8701,215.5771,24.731,208.708,40.6548,207.771L40.6548,207.771z M40.6548,248.3628v14.3633
		c-7.4937,2.188-13.4248,6.8701-13.4248,16.8628c0,7.8057,4.0601,13.1143,10.9292,13.1143c0.936,0,1.8721-0.3125,2.4971-0.3125
		v16.5508c-3.7461,0.9355-7.8052,1.5615-12.8003,1.5615C12.8672,310.502,1,301.1348,1,282.7119
		c0-14.6768,7.8081-24.6689,19.3608-29.3511C26.292,250.5498,33.4751,249.3008,40.6548,248.3628z"/>
</g>
<g id="Layer_3" display="none">
	<path id="path3_1_" display="inline" fill="#010101" d="M149.814,281.9824c0,21.3242-9.5288,29.0342-25.4067,29.0342h-22.686
		V209.3848h22.686c17.6929,0,22.231,10.437,22.231,27.6782c0,12.7041-4.5381,19.5103-12.248,19.9619
		C143.0068,257.0249,149.814,265.6479,149.814,281.9824L149.814,281.9824z M119.415,262.9238v35.8457h4.5361
		c5.4468,0,6.8057-3.1826,6.8057-18.6025c0-11.3438-1.3589-17.2441-7.2598-17.2441L119.415,262.9238L119.415,262.9238z
		 M119.415,221.1851v29.4917h4.5361c4.5356,0,5.4468-4.5366,5.4468-13.1606c0-11.7959-0.9087-16.3311-6.8081-16.3311H119.415
		L119.415,221.1851z"/>
	<path id="path5_1_" display="inline" fill="#010101" d="M250.083,258.8408c11.3408,3.1763,12.7041,16.79,12.7041,29.0391
		c0,9.5322,0.4517,18.1465,1.8159,23.1357h-18.6001c-0.4551-4.083-1.3608-5.8955-1.3608-15.4307c0-3.6289,0-7.7051,0-12.7002
		c0-8.165-2.7241-14.063-8.6211-15.8789h-0.9067v44.0098h-18.5991V209.3857h27.2197c12.7031,0,21.3262,7.2593,21.3262,25.8604
		C265.0562,251.1279,258.25,257.9351,250.083,258.8408L250.083,258.8408z M235.1089,222.0898v29.4922h5.4453
		c4.5356,0,5.8989-3.1772,5.8989-12.25c0-14.9741-2.7241-17.2422-8.166-17.2422H235.1089L235.1089,222.0898L235.1089,222.0898z"/>
	<path id="path7_1_" display="inline" fill="#010101" d="M295.9092,255.668c0.9058,13.6079,0.9058,17.2402,0.9058,29.4902
		c0,7.71,0,25.8564,0,25.8564h-16.7861V209.3848h16.7861c0,0,7.7148,29.9473,9.5278,36.2993
		c1.8164,6.3491,3.1763,11.3389,4.083,15.877c-0.4536-9.98-0.9067-22.23-0.9067-32.2129c0-7.71,0-19.9634,0-19.9634h16.3359
		v101.6299h-14.9751c0,0-9.0728-31.3066-10.8887-37.6567C298.6309,268.3682,297.2681,262.9238,295.9092,255.668L295.9092,255.668
		L295.9092,255.668z"/>
	<polygon id="polygon9_1_" display="inline" fill="#010101" points="359.8818,295.5879 382.1099,295.5879 382.1099,311.0186 
		342.188,311.0186 342.188,209.3848 379.3921,209.3848 379.3921,224.812 359.8818,224.812 359.8818,252.0342 377.1221,252.0342 
		377.1221,266.1001 359.8818,266.1001 	"/>
	<path id="path11_1_" display="inline" fill="#010101" d="M408.4302,287.4238c0,11.3486,2.7217,13.1611,6.8047,13.1611
		c3.1792,0,5.4429-1.8125,5.4429-13.1611c0-9.9829-6.8027-17.2388-14.0659-26.312c-7.2559-8.1699-14.9697-19.5098-14.9697-29.0376
		c0-15.4272,7.2598-24.0464,21.3247-24.0464c14.0645,0,21.7764,7.71,21.7764,22.687c0,3.1724-0.9062,5.9004-1.3613,8.1641h-14.9717
		c0-1.814,0.4526-4.083,0.4526-7.2578c0-9.5293-1.3608-12.7051-5.4429-12.7051c-4.083,0-4.5352,4.084-4.5352,11.3428
		c0,9.0752,7.2603,16.3364,13.1562,24.0483c8.6211,10.8867,15.4268,19.5107,15.4268,29.9438
		c0,16.3379-6.8076,28.5801-22.6846,28.5801c-13.6123,0-22.687-7.251-22.687-24.9463c0-4.085,0-7.7139,0.9077-10.8916
		l16.3369-0.4541C408.8799,280.6182,408.4302,282.8857,408.4302,287.4238L408.4302,287.4238L408.4302,287.4238z"/>
	<path id="path13_1_" display="inline" fill="#010101" d="M562.2412,255.668c0.9033,13.6079,0.9033,17.2402,0.9033,29.4902
		c0,7.71,0,25.8564,0,25.8564h-16.7881V209.3848h16.7881c0,0,7.7148,29.9473,9.5254,36.2993
		c1.8184,6.3491,3.1738,11.3389,3.6309,15.877c-0.4551-9.98-0.4551-22.23-0.4551-32.2129c0-7.71,0-19.9634,0-19.9634h16.3359
		v101.6299h-14.9707c0,0-9.0771-31.3066-10.8887-37.6567C564.957,268.3682,563.5996,262.9238,562.2412,255.668L562.2412,255.668z"/>
	<path id="path15_1_" display="inline" fill="#010101" d="M653.4316,260.2041c0,43.5566-7.2568,52.625-24.0459,52.625
		c-15.4248,0-23.5898-6.8027-23.5898-52.625c0-44.4663,6.3496-52.1772,23.5898-52.1772
		C647.082,208.0249,653.4316,215.7378,653.4316,260.2041L653.4316,260.2041z M634.3711,260.2041c0-15.8799,0-25.8623-0.4492-33.1221
		c-0.4541-7.2588-1.8184-8.6211-4.5361-8.6211c-2.7256,0-4.083,1.3608-4.5322,8.6211c-0.4531,7.2617-0.4531,17.2422-0.4531,33.1221
		c0,18.603,0,25.8584,0.4531,32.667c0.4492,7.7119,1.8125,8.6221,4.5322,8.6221c3.1797,0,4.084-0.4541,4.5361-8.6221
		C634.3711,285.6113,634.3711,278.8071,634.3711,260.2041L634.3711,260.2041z"/>
	<path id="path17_1_" display="inline" fill="#010101" d="M715.1348,281.9824c0,21.3242-9.5264,29.0342-25.4062,29.0342H667.04
		V209.3848h22.6875c17.6934,0,22.2305,10.437,22.2305,27.6782c0,12.7041-4.5371,19.5103-12.251,19.9619
		C708.3301,257.0249,715.1348,265.6479,715.1348,281.9824L715.1348,281.9824z M684.7363,262.9238v35.8457h4.5381
		c5.4375,0,6.8105-3.1826,6.8105-18.6025c0-11.3438-1.3652-17.2441-7.2617-17.2441L684.7363,262.9238L684.7363,262.9238z
		 M684.7363,221.1851v29.4917h4.5381c4.5283,0,5.4375-4.5366,5.4375-13.1606c0-11.7959-1.3555-16.3311-6.8037-16.3311H684.7363
		L684.7363,221.1851z"/>
	<polygon id="polygon19_1_" display="inline" fill="#010101" points="746.4395,295.5879 767.7656,295.5879 767.7656,311.0186 
		727.8418,311.0186 727.8418,209.3848 746.4395,209.3848 	"/>
	<polygon id="polygon21_1_" display="inline" fill="#010101" points="795.4443,295.5879 817.6738,295.5879 817.6738,311.0186 
		777.7422,311.0186 777.7422,209.3848 814.9531,209.3848 814.9531,224.812 795.4443,224.812 795.4443,252.0342 812.6836,252.0342 
		812.6836,266.1001 795.4443,266.1001 	"/>
	<path id="path23_1_" display="inline" fill="#010101" d="M156.6182,311.0186l14.5166-102.0825h17.6953l17.2432,102.0825h-19.0552
		l-1.814-16.3369h-11.3433l-1.813,16.3369H156.6182L156.6182,311.0186z M175.2212,283.3428h9.0757c0,0-1.3628-11.7959-2.27-19.5098
		c-0.4517-4.5361-2.27-19.5088-2.7236-29.0361c-0.4531,9.9819-1.8164,24.502-2.27,29.0361
		C176.583,271.5449,175.2212,283.3428,175.2212,283.3428L175.2212,283.3428z"/>
	<path id="path25_1_" display="inline" fill="#D05727" d="M525.0332,257.9351c-7.2598,0-12.252,4.5361-15.4268,11.3418
		c-3.1787,6.8071-6.8096,15.4253-9.0771,19.9614c-7.7109-13.6064-13.6074-24.0454-17.2402-33.5693
		c5.8945-3.6289,16.332-8.623,22.6855-14.0659c5.9004-5.4468,8.6182-10.8911,9.9805-16.79
		c1.8184-11.3428-4.5371-21.3228-19.0527-21.3228c-12.25,0-26.7725,9.5259-29.4883,25.4048
		c-1.3564,7.7148,0.4492,18.147,3.625,26.771c-10.8848,7.2568-20.4141,15.4238-23.1328,28.1289
		c-3.1807,21.3232,9.9834,30.8457,24.9531,30.8457c9.9844,0,17.6914-4.5312,24.0479-11.3389
		c4.5303,4.9922,10.4355,11.3389,17.6934,11.3389c5.8984,0,12.248-3.6309,17.2402-9.9766l-2.2695-3.1758
		c-4.5332,4.5312-7.709,6.3477-10.4375,6.3477c-4.9893,0-9.5225-4.5342-14.0635-10.8838c-0.4492-1.3701-0.9053-2.2793-1.3613-3.1865
		c2.7256-5.4385,4.5352-11.3398,7.2588-16.7866c4.5391-9.9819,7.2627-13.6118,11.3506-13.6118
		c7.2549,0,1.3545,11.7979,9.0732,11.7979c3.6299,0,5.4414-2.7202,5.8955-5.897
		C537.7373,265.1919,535.0156,257.9351,525.0332,257.9351L525.0332,257.9351L525.0332,257.9351z M479.6592,226.1748
		c0.9092-7.2598,7.2627-14.9736,16.7881-14.9736c7.2568,0,12.25,5.4448,10.4307,14.0659c-0.4482,3.1748-1.3535,6.353-4.5283,10.438
		c-3.6309,4.0811-15.4277,11.3389-20.874,14.5161C478.749,242.0527,477.8447,234.3418,479.6592,226.1748L479.6592,226.1748z
		 M476.9424,307.8428c-14.0664,0-19.0566-11.7881-17.6982-20.8721c1.8145-11.3398,7.2578-18.1455,14.0605-24.4985
		c4.9951,12.252,11.3486,24.4985,20.4209,37.2075C488.7344,305.5713,484.2021,307.8428,476.9424,307.8428L476.9424,307.8428z"/>
	<path id="path27_1_" display="inline" fill="#FFFFFF" d="M476.0322,222.0898c0,0-9.5254,14.9731,4.084,44.4634
		c10.8896,24.5015,24.0459,38.1147,24.0459,38.1147s-13.1602-18.1465-22.2305-39.9219
		C471.0391,237.9712,476.0322,222.0898,476.0322,222.0898L476.0322,222.0898L476.0322,222.0898z"/>
</g>
<g id="Layer_4">
	<g>
		<polygon fill="#231F20" points="692.6875,332.2988 692.6875,190.9761 665.5645,190.9761 665.5645,200.1621 680.2607,200.1621 
			680.2607,323.1123 665.5645,323.1123 665.5645,332.2988 		"/>
		<polygon fill="#231F20" points="275,332.2988 275,190.9761 302.124,190.9761 302.124,200.1621 287.4268,200.1621 
			287.4268,323.1123 302.124,323.1123 302.124,332.2988 		"/>
		<path fill="#F6921E" d="M338.7559,260.7598h6.2144c6.8428,0,11.9087-1.4619,15.1958-4.3906
			c3.2871-2.9272,4.9312-7.541,4.9312-13.8452v-2.2959c0-0.6328,0-1.1279,0-1.4858c-0.4541-5.2261-2.041-9.0503-4.7554-11.4834
			c-2.7139-2.4297-6.7437-3.647-12.0806-3.647h-9.5054V260.7598L338.7559,260.7598z M324.5708,310.2041v-97.2632h23.3711
			c9.3662,0,16.5449,1.8433,21.5439,5.54c4.999,3.6919,7.8804,7.9902,8.646,12.897c0.7642,4.9102,1.145,8.6689,1.145,11.2783
			c0,8.8315-2.833,15.6289-8.5068,20.4019s-13.7368,7.1548-24.1812,7.1548h-7.833v39.9912H324.5708L324.5708,310.2041z"/>
		<path fill="#F6921E" d="M406.6689,266.5981l20.667-0.0562l-8.7319-32.8018c-0.2739-1.2632-0.522-2.5444-0.748-3.8481
			c-0.229-1.3071-0.4312-2.77-0.6099-4.3921l-0.4111-3.646c0,1.0859-0.082,2.2808-0.252,3.5879
			c-0.1729,1.311-0.3789,2.7339-0.6357,4.2651l-0.4624,2.1431l-0.396,1.895L406.6689,266.5981L406.6689,266.5981z
			 M380.9019,310.2041l27.4189-97.2632h17.0269l27.5527,97.2632l-14.7285,0.0312l-8.8359-33.6562l-24.917-0.0132l-8.9229,33.6372
			h-14.5942V310.2041z"/>
		<path fill="#F6921E" d="M510.9883,215.9111l-2.1611,9.7236c-0.4541-0.2646-1.2646-0.625-2.4365-1.0786
			c-1.168-0.4492-2.8828-0.9673-5.1328-1.5532c-2.2559-0.583-4.7285-0.876-7.4297-0.876c-7.2061,0-12.6064,3.1279-16.21,9.3882
			c-3.6035,6.2588-5.4033,16.188-5.4033,29.7866c0,2.4341,0.0469,4.8594,0.1387,7.292c0.084,2.4331,0.4043,6.3291,0.9443,11.6875
			c0.5391,5.3594,2.6787,10.2227,6.418,14.5898c3.7354,4.3672,8.5703,6.5537,14.5156,6.5537c4.5938,0,9.5947-1.3545,14.9951-4.0576
			l2.0322-1.0771l2.0244,10.126c-1.9814,0.9053-3.332,1.5098-4.0566,1.8262c-0.7178,0.3135-2.7227,0.9912-6.0078,2.0264
			c-3.291,1.0322-7.3643,1.5586-12.2266,1.5586c-10.0869,0-18.1934-3.5371-24.3125-10.6113
			c-6.1279-7.0615-9.1875-17.1748-9.1875-30.3228c0-19.7212,2.9736-34.5132,8.9131-44.374
			c5.9463-9.8599,14.4561-14.792,25.5283-14.792c2.0742,0,3.9209,0.0908,5.5391,0.27c1.624,0.1812,3.5586,0.5859,5.8125,1.2197
			l4.0537,1.2144l1.8877,0.6729L510.9883,215.9111L510.9883,215.9111z"/>
		<path fill="#F6921E" d="M526.5166,310.2041v-97.2632h13.917v36.875v3.1079v3.2461l0.3818-1.1021l0.6387-1.6489
			c0.5137-1.2842,1.0264-2.29,1.5391-3.0249l26.5049-37.5361l15.3926,0.083l-32.0322,45.251l37.0127,52.0112l-16.8984,0.0098
			l-29.4443-41.6089c-0.9893-1.5298-1.8438-3.2021-2.5518-5.0059l-0.541-1.624v1.8931v1.8916v3.7822v40.6631H526.5166
			L526.5166,310.2041z"/>
		<polygon fill="#F6921E" points="588.9248,222.3999 588.9248,212.9409 650.1201,212.9409 650.1201,222.5322 626.4824,224.2881 
			626.4824,310.2041 612.4287,310.2041 612.4287,224.4229 		"/>
		<path fill="#231F20" d="M330.9741,350.4766c0.9287,0,1.7798-0.1934,2.5928-0.543c0.813-0.3486,1.5103-0.8115,2.1289-1.3936
			c0.5811-0.5801,1.084-1.3154,1.4321-2.1289c0.3491-0.8135,0.5029-1.6641,0.5029-2.5547c0-0.8916-0.1548-1.7422-0.5029-2.5557
			c-0.3481-0.8115-0.8521-1.5098-1.4321-2.1289c-0.6187-0.5811-1.3159-1.084-2.1289-1.4326
			c-0.812-0.3486-1.6641-0.5029-2.5928-0.5029h-6.3101c-0.3481,0-0.6201,0.1152-0.8511,0.3477
			c-0.2329,0.2715-0.3491,0.543-0.3491,0.8916v22.2959c0,0.3506,0.1162,0.6201,0.3491,0.8525
			c0.231,0.2314,0.5029,0.3486,0.8511,0.3486c0.3491,0,0.6191-0.1152,0.8521-0.3486c0.2319-0.2314,0.3477-0.502,0.3477-0.8525
			v-10.2959h5.1104V350.4766z M325.8643,348.0752v-8.4385h5.1099c0.5801,0,1.1221,0.1162,1.626,0.3105
			c0.5029,0.2314,0.9668,0.543,1.354,0.9297c0.3867,0.3877,0.6958,0.8516,0.9287,1.3545c0.1934,0.5039,0.3091,1.0449,0.3091,1.626
			c0,0.5781-0.1157,1.1221-0.3091,1.626c-0.2329,0.5029-0.542,0.9678-0.9287,1.3535c-0.3882,0.3877-0.8521,0.6973-1.354,0.8926
			c-0.5039,0.2305-1.0459,0.3467-1.626,0.3467h-5.1099V348.0752z"/>
		<path fill="#231F20" d="M358.1089,356.708c0.4263,1.0459,1.0449,1.9736,1.8193,2.749c0.7739,0.7734,1.7026,1.3926,2.7476,1.8193
			c1.0454,0.4639,2.1294,0.6953,3.3291,0.6953c1.2012,0,2.3232-0.2314,3.3682-0.6953c1.0449-0.4277,1.936-1.0459,2.71-1.8193
			c0.7739-0.7754,1.394-1.7031,1.8579-2.749c0.4653-1.0449,0.6973-2.1289,0.6973-3.3291v-14.8652
			c0-0.2705-0.1162-0.5801-0.3101-0.8506c-0.1934-0.2715-0.5029-0.4258-0.8521-0.4258c-0.3481,0-0.6582,0.1152-0.8901,0.3867
			c-0.2319,0.2705-0.3491,0.5801-0.3491,0.8525v14.9023c0,0.8525-0.1548,1.665-0.5029,2.4004
			c-0.3477,0.7334-0.7739,1.3936-1.355,1.9346c-0.5801,0.5811-1.2378,1.0068-1.9741,1.3555
			c-0.7349,0.3486-1.5488,0.5039-2.3999,0.5039c-0.8521-0.001-1.665-0.1553-2.3999-0.5039
			c-0.7739-0.3496-1.4321-0.7744-1.9741-1.3555c-0.5811-0.541-1.0059-1.2002-1.3159-1.9346
			c-0.3491-0.7354-0.5029-1.5488-0.5029-2.4004v-14.8652c0-0.3467-0.1172-0.6172-0.3101-0.8896
			c-0.1938-0.2715-0.5029-0.3867-0.8521-0.3867c-0.3477,0-0.6577,0.1152-0.8901,0.3867c-0.2319,0.2705-0.3477,0.5801-0.3477,0.8525
			v14.9023C357.4131,354.5791,357.645,355.6631,358.1089,356.708L358.1089,356.708L358.1089,356.708z"/>
		<path fill="#231F20" d="M408.3169,340.876c-0.3491-0.7354-0.7739-1.3535-1.3159-1.8975c-0.542-0.54-1.1611-0.9668-1.897-1.2754
			c-0.7349-0.3105-1.5103-0.4648-2.3218-0.4648h-6.8911c-0.3481,0-0.6191,0.1152-0.8511,0.3477
			c-0.2319,0.2334-0.3491,0.5039-0.3491,0.8535v22.335c0,0.3496,0.1162,0.6191,0.3491,0.8516
			c0.2319,0.2324,0.5029,0.3486,0.8511,0.3486h6.8911c1.0449,0,2.0127-0.1934,2.9419-0.6182
			c0.8896-0.3887,1.7026-0.9307,2.3989-1.626c0.6577-0.6582,1.1997-1.4727,1.5869-2.4004c0.3872-0.8896,0.5801-1.8584,0.5801-2.9033
			c0-1.4326-0.3491-2.709-1.0059-3.8711c-0.6963-1.1211-1.6265-2.0127-2.748-2.6709c0.6577-0.5801,1.1997-1.2363,1.625-2.0508
			c0.4268-0.8125,0.6196-1.666,0.6196-2.5947C408.7812,342.4238,408.626,341.6113,408.3169,340.876L408.3169,340.876
			L408.3169,340.876z M407.5029,356.3984c-0.271,0.6182-0.6577,1.1611-1.1221,1.626c-0.4648,0.4648-1.0068,0.8516-1.625,1.123
			c-0.6201,0.2705-1.2778,0.4258-1.9751,0.4258l-5.6899-0.001v-10.2969h5.6899c0.6973,0,1.354,0.1162,1.9751,0.3877
			c0.6191,0.2705,1.1611,0.6582,1.625,1.123c0.4639,0.4639,0.8511,1.0059,1.1221,1.625c0.271,0.6582,0.3882,1.3164,0.3882,2.0127
			S407.7749,355.7793,407.5029,356.3984L407.5029,356.3984L407.5029,356.3984z M397.0908,339.6367h5.6904
			c0.5029,0,0.9678,0.0771,1.3926,0.2715c0.4263,0.1924,0.813,0.4639,1.1611,0.7725c0.3101,0.3496,0.542,0.7363,0.7358,1.1621
			c0.1943,0.4258,0.271,0.8916,0.271,1.3936c0,0.5049-0.0767,0.9678-0.271,1.3945c-0.1929,0.4258-0.4258,0.8125-0.7358,1.1221
			c-0.3481,0.3486-0.7349,0.6191-1.1611,0.8135c-0.4248,0.1924-0.8896,0.3096-1.3926,0.3096h-5.6904V339.6367L397.0908,339.6367z"/>
		<path fill="#231F20" d="M429.917,360.7725c0,0.3496,0.1162,0.6191,0.3477,0.8516c0.2334,0.2324,0.5029,0.3486,0.8525,0.3486
			h11.0332c0.3486,0,0.6191-0.1152,0.8506-0.3486c0.2324-0.2314,0.3486-0.502,0.3486-0.8516s-0.1152-0.6191-0.3486-0.8516
			c-0.2314-0.2314-0.502-0.3486-0.8506-0.3486l-9.833-0.001v-21.1357c0-0.3486-0.1162-0.6182-0.3496-0.8525
			c-0.2314-0.2314-0.5029-0.3477-0.8516-0.3477c-0.3496,0-0.6191,0.1152-0.8525,0.3477c-0.2314,0.2334-0.3477,0.5039-0.3477,0.8525
			v22.3369H429.917z"/>
		<path fill="#231F20" d="M463.207,360.7725c0,0.3496,0.1162,0.6191,0.3477,0.8516c0.2324,0.2324,0.5039,0.3486,0.8535,0.3486
			c0.3467,0,0.6182-0.1152,0.8506-0.3486c0.2334-0.2314,0.3496-0.502,0.3496-0.8516v-22.335c0-0.3496-0.1152-0.6191-0.3496-0.8535
			c-0.2314-0.2305-0.5039-0.3477-0.8506-0.3477c-0.3496,0-0.6201,0.1152-0.8535,0.3477c-0.2305,0.2334-0.3477,0.5039-0.3477,0.8535
			V360.7725L463.207,360.7725z"/>
		<path fill="#231F20" d="M496.498,361.3926c0.9648-0.3486,1.8164-0.8906,2.5527-1.5488s1.3164-1.4326,1.7422-2.3213
			c0.4258-0.8916,0.6572-1.8584,0.6572-2.9033s-0.1533-1.9375-0.4629-2.6719c-0.3496-0.7344-0.7754-1.3945-1.3545-1.9746
			c-0.582-0.5801-1.2793-1.0449-2.0918-1.4707c-0.8125-0.4268-1.7031-0.8145-2.6709-1.1621
			c-0.502-0.1924-1.083-0.3877-1.7812-0.6191c-0.6953-0.2314-1.3535-0.5029-2.0117-0.8125c-0.6582-0.3105-1.2002-0.6562-1.627-1.082
			c-0.4629-0.4268-0.6963-0.8926-0.6963-1.3965c0-0.7334,0.1553-1.3145,0.4648-1.8174c0.3105-0.4648,0.6973-0.8525,1.2002-1.1221
			c0.4639-0.2715,0.9678-0.5049,1.5479-0.6191c0.5801-0.1172,1.1221-0.1943,1.627-0.1943c0.3486,0,0.7354,0,1.1602,0.0381
			c0.4268,0.0391,0.8535,0.1562,1.2783,0.3115c0.4248,0.1533,0.8125,0.3867,1.2373,0.6562c0.4268,0.3105,0.7744,0.7363,1.084,1.2393
			c0.1924,0.2715,0.4268,0.4639,0.7734,0.5801c0.3486,0.1172,0.6582,0.04,0.9678-0.1533c0.3105-0.1934,0.5039-0.4658,0.543-0.8916
			c0.0391-0.3867-0.0391-0.7354-0.2324-1.0059c-0.4629-0.6582-0.9678-1.1602-1.5088-1.5869
			c-0.5811-0.4258-1.1621-0.7354-1.7412-0.9678c-0.582-0.2324-1.2012-0.3887-1.7803-0.5039
			c-0.6211-0.0771-1.2012-0.1162-1.7812-0.1162c-0.8525,0-1.7031,0.1162-2.5557,0.3877c-0.8916,0.2705-1.6631,0.6963-2.3604,1.2002
			c-0.6963,0.542-1.2764,1.1992-1.7051,1.9355c-0.4238,0.7744-0.6562,1.6641-0.6562,2.6309c0,0.8535,0.2324,1.5889,0.6973,2.2461
			s1.0439,1.2393,1.7793,1.7412c0.6963,0.5039,1.4707,0.8926,2.3604,1.2393c0.8525,0.3486,1.666,0.6582,2.4395,0.8906
			c0.7744,0.2715,1.5088,0.542,2.166,0.8525c0.6602,0.3096,1.2393,0.6572,1.7422,1.0459c0.5039,0.3867,0.8906,0.8506,1.1611,1.3535
			c0.2715,0.502,0.3877,1.1221,0.3877,1.8193c0,0.6963-0.1533,1.3535-0.4648,1.9346c-0.3076,0.6201-0.6953,1.1611-1.1992,1.5879
			s-1.123,0.7744-1.7803,1.0459c-0.6582,0.2705-1.3535,0.3877-2.0518,0.3877c-0.4258-0.001-0.9297-0.0781-1.4707-0.1943
			c-0.582-0.1152-1.123-0.2705-1.665-0.542c-0.542-0.2305-1.0439-0.542-1.4707-0.8906c-0.4648-0.3467-0.8125-0.7354-1.0459-1.1992
			c-0.1943-0.3096-0.4258-0.5039-0.7354-0.6191c-0.3477-0.0771-0.6572-0.0391-0.9668,0.1543
			c-0.3105,0.1943-0.5039,0.4258-0.582,0.7354c-0.1162,0.3486-0.0752,0.6572,0.1172,0.9678c0.3086,0.5811,0.7734,1.123,1.3535,1.626
			s1.2002,0.8906,1.9365,1.2383c0.6963,0.3486,1.4316,0.6182,2.2441,0.8125c0.7734,0.1934,1.5098,0.3096,2.2461,0.3096
			C494.5625,361.9727,495.5283,361.7783,496.498,361.3926L496.498,361.3926L496.498,361.3926z"/>
		<path fill="#231F20" d="M521.3486,360.7725c0,0.3496,0.1162,0.6191,0.3486,0.8516c0.2334,0.2324,0.5049,0.3486,0.8525,0.3486
			c0.3496,0,0.6201-0.1152,0.8525-0.3486c0.2314-0.2314,0.3477-0.502,0.3477-0.8516v-9.0586h12.3486v9.0586
			c0,0.3496,0.1172,0.6191,0.3496,0.8516s0.5039,0.3486,0.8516,0.3486c0.3506,0,0.6191-0.1152,0.8525-0.3486
			c0.2324-0.2314,0.3477-0.502,0.3477-0.8516v-22.335c0-0.3496-0.1143-0.6191-0.3477-0.8535
			c-0.2324-0.2305-0.502-0.3477-0.8525-0.3477c-0.3477,0-0.6182,0.1152-0.8516,0.3477c-0.2314,0.2334-0.3496,0.5039-0.3496,0.8535
			v10.877H523.75v-10.877c0-0.3496-0.1152-0.6191-0.3477-0.8535c-0.2314-0.2305-0.5029-0.3477-0.8525-0.3477
			c-0.3477,0-0.6182,0.1152-0.8525,0.3477c-0.2314,0.2334-0.3486,0.5039-0.3486,0.8535V360.7725L521.3486,360.7725z"/>
		<path fill="#231F20" d="M558.8965,360.7725c0,0.3496,0.1152,0.6191,0.3477,0.8516s0.5039,0.3486,0.8525,0.3486
			c0.3496,0,0.6182-0.1152,0.8535-0.3486c0.2305-0.2314,0.3477-0.502,0.3477-0.8516v-22.335c0-0.3496-0.1162-0.6191-0.3477-0.8535
			c-0.2344-0.2305-0.5039-0.3477-0.8535-0.3477c-0.3486,0-0.6182,0.1152-0.8525,0.3477c-0.2314,0.2334-0.3477,0.5039-0.3477,0.8535
			V360.7725L558.8965,360.7725z"/>
		<path fill="#231F20" d="M581.7363,360.7725c0,0.3496,0.1133,0.6191,0.3477,0.8516c0.2314,0.2324,0.5029,0.3486,0.8516,0.3486
			s0.6182-0.1152,0.8535-0.3486c0.2305-0.2314,0.3477-0.502,0.3477-0.8516v-18.3496l13.2373,18.7354
			c0.1553,0.1934,0.3115,0.3877,0.5049,0.543c0.1533,0.1914,0.3848,0.2705,0.6572,0.2705c0.3486,0,0.6191-0.1152,0.8506-0.3486
			c0.2334-0.2314,0.3516-0.502,0.3516-0.8516v-22.3359c0-0.3486-0.1172-0.6182-0.3516-0.8525
			c-0.2305-0.2314-0.502-0.3477-0.8506-0.3477s-0.6191,0.1152-0.8525,0.3477c-0.2314,0.2334-0.3467,0.5039-0.3467,0.8525v18.3105
			l-13.3174-18.8516c-0.1533-0.1934-0.3105-0.3887-0.4248-0.5039c-0.1553-0.1162-0.3877-0.1543-0.6592-0.1543
			c-0.3486,0-0.6191,0.1152-0.8516,0.3477c-0.2324,0.2334-0.3477,0.5039-0.3477,0.8535V360.7725L581.7363,360.7725z"/>
		<path fill="#231F20" d="M640.96,344.3594c0.3506,0.0391,0.6201-0.0381,0.8535-0.2314c0.2705-0.2334,0.4268-0.5039,0.4648-0.8125
			c0.0391-0.3105-0.0781-0.6191-0.2715-0.8916c-1.123-1.5479-2.5166-2.7871-4.2588-3.7158
			c-1.7432-0.9287-3.6787-1.3936-5.7285-1.3936c-1.7031,0-3.291,0.3096-4.8027,0.9678c-1.5078,0.6582-2.7871,1.5098-3.9062,2.6328
			c-1.123,1.1211-1.9775,2.4375-2.6348,3.9482c-0.6572,1.5088-0.9678,3.0967-0.9678,4.7998c0.001,1.7031,0.3105,3.291,0.9678,4.7988
			c0.6582,1.5107,1.5117,2.7881,2.6348,3.9102c1.1191,1.123,2.3984,1.9756,3.9062,2.6328c1.5117,0.6582,3.0996,0.9678,4.8027,0.9678
			c1.4707,0,2.8623-0.2314,4.2188-0.7344c1.3555-0.5029,2.5547-1.1602,3.6396-2.0527c1.0449-0.8516,1.9746-1.8965,2.709-3.0967
			c0.7354-1.2002,1.2383-2.4775,1.5078-3.8701c0.0781-0.3877,0-0.7354-0.1924-1.085c-0.1914-0.3086-0.501-0.4648-0.9277-0.4648
			h-7.0068c-0.3486,0-0.6201,0.1172-0.8525,0.3486c-0.2314,0.2324-0.3486,0.5049-0.3486,0.8535s0.1152,0.6191,0.3486,0.8506
			c0.2314,0.2334,0.5039,0.3496,0.8525,0.3496h5.3799c-0.3486,0.9668-0.8516,1.8184-1.4326,2.6328
			c-0.6191,0.8115-1.3154,1.4707-2.1299,2.0518c-0.8125,0.5801-1.7021,1.0059-2.6699,1.3154
			c-0.9668,0.3486-2.0127,0.5039-3.0957,0.5039c-1.3555-0.001-2.6729-0.2725-3.8721-0.7744
			c-1.2002-0.5039-2.2441-1.2373-3.1357-2.1289c-0.8906-0.8906-1.627-1.9355-2.1289-3.1357
			c-0.5029-1.2002-0.7734-2.5166-0.7734-3.8711c0-1.3535,0.2705-2.6699,0.7734-3.8711c0.502-1.2002,1.2383-2.2842,2.1289-3.1738
			c0.8916-0.8916,1.9355-1.627,3.1357-2.1289c1.1992-0.5049,2.5166-0.7754,3.8721-0.7754c1.3535,0,2.748,0.3115,4.1416,0.9678
			c1.3545,0.6592,2.6699,1.7031,3.8701,3.1377C640.3027,344.165,640.6133,344.3213,640.96,344.3594L640.96,344.3594L640.96,344.3594
			z"/>
		<path fill="none" stroke="#231F20" stroke-width="1.8422" stroke-miterlimit="2.6131" d="M330.9741,350.4766
			c0.9287,0,1.7798-0.1934,2.5928-0.543c0.813-0.3486,1.5103-0.8115,2.1289-1.3936c0.5811-0.5801,1.084-1.3154,1.4321-2.1289
			c0.3491-0.8135,0.5029-1.6641,0.5029-2.5547c0-0.8916-0.1548-1.7422-0.5029-2.5557c-0.3481-0.8115-0.8521-1.5098-1.4321-2.1289
			c-0.6187-0.5811-1.3159-1.084-2.1289-1.4326c-0.812-0.3486-1.6641-0.5029-2.5928-0.5029h-6.3101
			c-0.3481,0-0.6201,0.1152-0.8511,0.3477c-0.2329,0.2715-0.3491,0.543-0.3491,0.8916v22.2959c0,0.3506,0.1162,0.6201,0.3491,0.8525
			c0.231,0.2314,0.5029,0.3486,0.8511,0.3486c0.3491,0,0.6191-0.1152,0.8521-0.3486c0.2319-0.2314,0.3477-0.502,0.3477-0.8525
			v-10.2959h5.1104V350.4766z M325.8643,348.0752v-8.4385h5.1099c0.5801,0,1.1221,0.1162,1.626,0.3105
			c0.5029,0.2314,0.9668,0.543,1.354,0.9297c0.3867,0.3877,0.6958,0.8516,0.9287,1.3545c0.1934,0.5039,0.3091,1.0449,0.3091,1.626
			c0,0.5781-0.1157,1.1221-0.3091,1.626c-0.2329,0.5029-0.542,0.9678-0.9287,1.3535c-0.3882,0.3877-0.8521,0.6973-1.354,0.8926
			c-0.5039,0.2305-1.0459,0.3467-1.626,0.3467h-5.1099V348.0752z M358.1089,356.708c0.4263,1.0459,1.0449,1.9736,1.8193,2.749
			c0.7739,0.7734,1.7026,1.3926,2.7476,1.8193c1.0454,0.4639,2.1294,0.6953,3.3291,0.6953c1.2012,0,2.3232-0.2314,3.3682-0.6953
			c1.0449-0.4277,1.936-1.0459,2.71-1.8193c0.7739-0.7754,1.394-1.7031,1.8579-2.749c0.4653-1.0449,0.6973-2.1289,0.6973-3.3291
			v-14.8652c0-0.2705-0.1162-0.5801-0.3101-0.8506c-0.1934-0.2715-0.5029-0.4258-0.8521-0.4258
			c-0.3481,0-0.6582,0.1152-0.8901,0.3867c-0.2319,0.2705-0.3491,0.5801-0.3491,0.8525v14.9023c0,0.8525-0.1548,1.665-0.5029,2.4004
			c-0.3477,0.7334-0.7739,1.3936-1.355,1.9346c-0.5801,0.5811-1.2378,1.0068-1.9741,1.3555
			c-0.7349,0.3486-1.5488,0.5039-2.3999,0.5039c-0.8521-0.001-1.665-0.1553-2.3999-0.5039
			c-0.7739-0.3496-1.4321-0.7744-1.9741-1.3555c-0.5811-0.541-1.0059-1.2002-1.3159-1.9346
			c-0.3491-0.7354-0.5029-1.5488-0.5029-2.4004v-14.8652c0-0.3467-0.1172-0.6172-0.3101-0.8896
			c-0.1938-0.2715-0.5029-0.3867-0.8521-0.3867c-0.3477,0-0.6577,0.1152-0.8901,0.3867c-0.2319,0.2705-0.3477,0.5801-0.3477,0.8525
			v14.9023C357.4131,354.5791,357.645,355.6631,358.1089,356.708L358.1089,356.708L358.1089,356.708z M408.3169,340.876
			c-0.3491-0.7354-0.7739-1.3535-1.3159-1.8975c-0.542-0.54-1.1611-0.9668-1.897-1.2754c-0.7349-0.3105-1.5103-0.4648-2.3218-0.4648
			h-6.8901c-0.3491,0-0.6201,0.1152-0.8521,0.3477c-0.2319,0.2334-0.3491,0.5039-0.3491,0.8535v22.335
			c0,0.3496,0.1172,0.6191,0.3491,0.8516s0.5029,0.3486,0.8521,0.3486h6.8901c1.0449,0,2.0127-0.1934,2.9419-0.6182
			c0.8896-0.3887,1.7026-0.9307,2.3989-1.626c0.6577-0.6582,1.1997-1.4727,1.5869-2.4004c0.3872-0.8896,0.5801-1.8584,0.5801-2.9033
			c0-1.4326-0.3481-2.709-1.0059-3.8711c-0.6963-1.1211-1.6265-2.0127-2.748-2.6709c0.6577-0.5801,1.1997-1.2363,1.626-2.0508
			c0.4258-0.8145,0.6187-1.666,0.6187-2.5947C408.7812,342.4238,408.626,341.6113,408.3169,340.876L408.3169,340.876
			L408.3169,340.876z M407.5039,356.3984c-0.271,0.6182-0.6577,1.1611-1.123,1.626c-0.4648,0.4648-1.0068,0.8516-1.625,1.123
			c-0.6187,0.2705-1.2778,0.4258-1.9746,0.4258l-5.6904-0.001v-10.2969h5.6904c0.6968,0,1.355,0.1162,1.9746,0.3877
			c0.6191,0.2705,1.1611,0.6582,1.625,1.123c0.4644,0.4639,0.8521,1.0059,1.123,1.625c0.271,0.6582,0.3872,1.3164,0.3872,2.0127
			S407.7749,355.7793,407.5039,356.3984L407.5039,356.3984L407.5039,356.3984z M397.0908,339.6367h5.6904
			c0.5029,0,0.9678,0.0771,1.3926,0.2715c0.4263,0.1924,0.813,0.4639,1.1621,0.7725c0.3101,0.3496,0.542,0.7363,0.7349,1.1621
			c0.1943,0.4258,0.271,0.8916,0.271,1.3936c0,0.5049-0.0767,0.9678-0.271,1.3945c-0.1929,0.4258-0.4258,0.8125-0.7349,1.1221
			c-0.3491,0.3486-0.7358,0.6191-1.1621,0.8135c-0.4248,0.1924-0.8896,0.3096-1.3926,0.3096h-5.6904V339.6367L397.0908,339.6367z
			 M429.917,360.7725c0,0.3496,0.1162,0.6191,0.3477,0.8516c0.2324,0.2324,0.5029,0.3486,0.8525,0.3486h11.0332
			c0.3477,0,0.6191-0.1152,0.8506-0.3486c0.2324-0.2314,0.3486-0.502,0.3486-0.8516s-0.1152-0.6191-0.3486-0.8516
			c-0.2314-0.2314-0.5029-0.3486-0.8506-0.3486l-9.833-0.001v-21.1357c0-0.3486-0.1162-0.6182-0.3496-0.8525
			c-0.2314-0.2314-0.5029-0.3477-0.8516-0.3477c-0.3496,0-0.6191,0.1152-0.8525,0.3477c-0.2314,0.2334-0.3486,0.5039-0.3486,0.8525
			L429.917,360.7725L429.917,360.7725z M463.207,360.7725c0,0.3496,0.1162,0.6191,0.3486,0.8516
			c0.2314,0.2324,0.5029,0.3486,0.8525,0.3486c0.3477,0,0.6191-0.1152,0.8506-0.3486c0.2334-0.2314,0.3506-0.502,0.3506-0.8516
			v-22.335c0-0.3496-0.1162-0.6191-0.3506-0.8535c-0.2305-0.2305-0.5029-0.3477-0.8506-0.3477
			c-0.3496,0-0.6201,0.1152-0.8525,0.3477c-0.2314,0.2334-0.3486,0.5039-0.3486,0.8535V360.7725L463.207,360.7725z
			 M496.4951,361.3926c0.9678-0.3486,1.8203-0.8906,2.5557-1.5488c0.7363-0.6582,1.3164-1.4326,1.7422-2.3213
			c0.4258-0.8916,0.6572-1.8584,0.6572-2.9033s-0.1533-1.9375-0.4639-2.6719c-0.3486-0.7344-0.7744-1.3945-1.3545-1.9746
			c-0.582-0.5801-1.2783-1.0449-2.0918-1.4707c-0.8115-0.4268-1.7031-0.8145-2.6709-1.1621
			c-0.502-0.1924-1.084-0.3877-1.7812-0.6191c-0.6953-0.2314-1.3535-0.5029-2.0117-0.8125c-0.6582-0.3105-1.2012-0.6562-1.627-1.082
			c-0.4629-0.4268-0.6963-0.8926-0.6963-1.3965c0-0.7334,0.1553-1.3145,0.4648-1.8174c0.3105-0.4648,0.6973-0.8525,1.2002-1.1221
			c0.4639-0.2715,0.9678-0.5049,1.5479-0.6191c0.5801-0.1172,1.1221-0.1943,1.627-0.1943c0.3486,0,0.7334,0,1.1602,0.0381
			c0.4268,0.0391,0.8525,0.1562,1.2783,0.3115c0.4248,0.1533,0.8125,0.3867,1.2363,0.6562c0.4277,0.3105,0.7754,0.7363,1.084,1.2393
			c0.1934,0.2715,0.4277,0.4639,0.7744,0.5801c0.3486,0.1172,0.6582,0.04,0.9678-0.1533c0.3105-0.1934,0.5039-0.4658,0.543-0.8916
			c0.0391-0.3867-0.0391-0.7354-0.2324-1.0059c-0.4629-0.6582-0.9668-1.1602-1.5117-1.5869
			c-0.5781-0.4258-1.1592-0.7354-1.7402-0.9678c-0.5801-0.2324-1.1992-0.3887-1.7812-0.5039
			c-0.6182-0.0771-1.1982-0.1162-1.7783-0.1162c-0.8525,0-1.7051,0.1162-2.5557,0.3877c-0.8906,0.2705-1.6641,0.6963-2.3604,1.2002
			c-0.6963,0.542-1.2783,1.1992-1.7051,1.9355c-0.4258,0.7744-0.6572,1.6641-0.6572,2.6309c0,0.8535,0.2314,1.5889,0.6982,2.2461
			c0.4639,0.6572,1.0439,1.2393,1.7793,1.7412c0.6963,0.5039,1.4707,0.8926,2.3604,1.2393c0.8525,0.3486,1.665,0.6582,2.4395,0.8906
			c0.7744,0.2715,1.5098,0.542,2.166,0.8525c0.6582,0.3096,1.2393,0.6572,1.7422,1.0459c0.5039,0.3867,0.8906,0.8506,1.1611,1.3535
			c0.2715,0.502,0.3877,1.1221,0.3877,1.8193c0,0.6963-0.1562,1.3535-0.4648,1.9346c-0.3096,0.6201-0.6953,1.1611-1.1992,1.5879
			s-1.123,0.7744-1.7812,1.0459c-0.6572,0.2705-1.3535,0.3877-2.0508,0.3877c-0.4258-0.001-0.9297-0.0781-1.4717-0.1943
			c-0.5811-0.1152-1.123-0.2705-1.6641-0.542c-0.543-0.2305-1.0449-0.542-1.4707-0.8906c-0.4648-0.3467-0.8125-0.7354-1.0459-1.1992
			c-0.1943-0.3096-0.4268-0.5039-0.7354-0.6191c-0.3477-0.0771-0.6582-0.0391-0.9688,0.1543
			c-0.3086,0.1943-0.502,0.4258-0.5801,0.7354c-0.1162,0.3486-0.0781,0.6572,0.1162,0.9678c0.3096,0.5811,0.7734,1.123,1.3545,1.626
			c0.5801,0.5029,1.2002,0.8906,1.9365,1.2383c0.6963,0.3486,1.4316,0.6182,2.2441,0.8125
			c0.7734,0.1934,1.5098,0.3096,2.2432,0.3096C494.5625,361.9727,495.5283,361.7783,496.4951,361.3926L496.4951,361.3926
			L496.4951,361.3926z M521.3486,360.7725c0,0.3496,0.1143,0.6191,0.3486,0.8516c0.2305,0.2324,0.5029,0.3486,0.8506,0.3486
			c0.3496,0,0.6201-0.1152,0.8525-0.3486c0.2314-0.2314,0.3496-0.502,0.3496-0.8516v-9.0586h12.3477v9.0586
			c0,0.3496,0.1152,0.6191,0.3496,0.8516c0.2314,0.2324,0.5049,0.3486,0.8525,0.3486c0.3496,0,0.6191-0.1152,0.8516-0.3486
			c0.2324-0.2314,0.3486-0.502,0.3486-0.8516v-22.335c0-0.3496-0.1152-0.6191-0.3486-0.8535
			c-0.2314-0.2305-0.502-0.3477-0.8516-0.3477c-0.3477,0-0.6201,0.1152-0.8525,0.3477c-0.2334,0.2334-0.3496,0.5039-0.3496,0.8535
			v10.877H523.75v-10.877c0-0.3496-0.1172-0.6191-0.3496-0.8535c-0.2314-0.2305-0.5029-0.3477-0.8525-0.3477
			c-0.3477,0-0.6191,0.1152-0.8506,0.3477c-0.2314,0.2334-0.3486,0.5039-0.3486,0.8535V360.7725L521.3486,360.7725z
			 M558.8965,360.7725c0,0.3496,0.1152,0.6191,0.3477,0.8516c0.2314,0.2324,0.5039,0.3486,0.8525,0.3486
			s0.6182-0.1152,0.8535-0.3486c0.2305-0.2314,0.3477-0.502,0.3477-0.8516v-22.335c0-0.3496-0.1162-0.6191-0.3477-0.8535
			c-0.2344-0.2305-0.5049-0.3477-0.8535-0.3477s-0.6201,0.1152-0.8525,0.3477c-0.2314,0.2334-0.3477,0.5039-0.3477,0.8535V360.7725
			L558.8965,360.7725z M581.7334,360.7725c0,0.3496,0.1162,0.6191,0.3477,0.8516c0.2344,0.2324,0.5049,0.3486,0.8525,0.3486
			c0.3496,0,0.6201-0.1152,0.8525-0.3486c0.2314-0.2314,0.3477-0.502,0.3477-0.8516v-18.3496l13.2393,18.7354
			c0.1562,0.1934,0.3096,0.3877,0.5029,0.543c0.1562,0.1914,0.3877,0.2705,0.6592,0.2705c0.3486,0,0.6201-0.1152,0.8516-0.3486
			c0.2314-0.2314,0.3486-0.502,0.3486-0.8516v-22.3359c0-0.3486-0.1162-0.6182-0.3486-0.8525
			c-0.2305-0.2314-0.5029-0.3477-0.8516-0.3477c-0.3477,0-0.6182,0.1152-0.8535,0.3477c-0.2295,0.2334-0.3477,0.5039-0.3477,0.8525
			v18.3105l-13.3164-18.8516c-0.1543-0.1934-0.3086-0.3887-0.4258-0.5039c-0.1523-0.1162-0.3877-0.1543-0.6582-0.1543
			c-0.3477,0-0.6172,0.1152-0.8525,0.3477c-0.2305,0.2334-0.3486,0.5039-0.3486,0.8535v22.335H581.7334z M640.96,344.3594
			c0.3477,0.0391,0.6182-0.0381,0.8525-0.2314c0.2705-0.2334,0.4258-0.5039,0.4629-0.8125c0.04-0.3105-0.0752-0.6191-0.2705-0.8916
			c-1.123-1.5479-2.5146-2.7871-4.2568-3.7158c-1.7432-0.9287-3.6787-1.3936-5.7314-1.3936c-1.7021,0-3.29,0.3096-4.7988,0.9678
			c-1.5107,0.6582-2.7871,1.5098-3.9102,2.6328c-1.123,1.1211-1.9736,2.4375-2.6318,3.9482
			c-0.6582,1.5088-0.9688,3.0967-0.9688,4.7998s0.3105,3.291,0.9688,4.7988c0.6582,1.5107,1.5088,2.7881,2.6318,3.9102
			c1.123,1.123,2.3994,1.9756,3.9102,2.6328c1.5107,0.6582,3.0967,0.9678,4.7988,0.9678c1.4727,0,2.8662-0.2314,4.2217-0.7344
			c1.3545-0.5029,2.5537-1.1602,3.6377-2.0527c1.0459-0.8516,1.9756-1.8965,2.7109-3.0967
			c0.7363-1.2002,1.2383-2.4775,1.5088-3.8701c0.0781-0.3877,0-0.7354-0.1924-1.085c-0.1924-0.3086-0.5049-0.4648-0.9307-0.4648
			h-7.0039c-0.3506,0-0.6211,0.1172-0.8535,0.3486c-0.2314,0.2324-0.3486,0.5049-0.3486,0.8535s0.1162,0.6191,0.3486,0.8506
			c0.2314,0.2334,0.5029,0.3496,0.8535,0.3496h5.3779c-0.3477,0.9668-0.8516,1.8184-1.4316,2.6328
			c-0.6182,0.8115-1.3154,1.4707-2.1289,2.0518c-0.8125,0.5801-1.7031,1.0059-2.6709,1.3154
			c-0.9678,0.3486-2.0127,0.5039-3.0986,0.5039c-1.3535-0.001-2.6699-0.2725-3.8691-0.7744
			c-1.2002-0.5039-2.2451-1.2373-3.1348-2.1289c-0.8916-0.8906-1.6279-1.9355-2.1299-3.1357
			c-0.5039-1.2002-0.7744-2.5166-0.7744-3.8711c0-1.3535,0.2715-2.6699,0.7744-3.8711c0.502-1.2002,1.2383-2.2842,2.1299-3.1738
			c0.8887-0.8916,1.9346-1.627,3.1348-2.1289c1.1992-0.5049,2.5156-0.7754,3.8691-0.7754c1.3545,0,2.75,0.3115,4.1436,0.9678
			c1.3545,0.6592,2.6709,1.7031,3.8721,3.1377C640.3018,344.165,640.6104,344.3213,640.96,344.3594L640.96,344.3594L640.96,344.3594
			z"/>
	</g>
</g>
</svg>
