<?xml version="1.0" encoding="utf-8"?>
<!-- Generator: Adobe Illustrator 16.0.4, SVG Export Plug-In . SVG Version: 6.00 Build 0)  -->
<!DOCTYPE svg PUBLIC "-//W3C//DTD SVG 1.1//EN" "http://www.w3.org/Graphics/SVG/1.1/DTD/svg11.dtd">
<svg version="1.1" id="Layer_1" xmlns="http://www.w3.org/2000/svg" xmlns:xlink="http://www.w3.org/1999/xlink" x="0px" y="0px"
	 width="960px" height="560px" viewBox="0 0 960 560" enable-background="new 0 0 960 560" xml:space="preserve">
<g id="Layer_1_1_">
	<path display="none" fill="#F58220" d="M374.793,350.301c-4.217,3.241-8.755,6.161-13.293,8.753v-13.616
		c2.592-0.973,5.51-2.27,8.104-3.24C375.44,339.602,380.629,346.086,374.793,350.301L374.793,350.301z M405.593,327.605
		c0-2.596-0.649-4.538-1.297-5.513c-2.917-3.565-24.315-6.808-42.796-1.298v10.051c11.348-0.972,24.639-1.295,27.882,2.92
		c4.539,5.511-5.187,29.502-9.401,39.878c-1.297,3.241,1.62,4.538,4.538,2.271c14.591-12.32,20.749-34.691,21.075-46.362
		L405.593,327.605L405.593,327.605z M361.5,359.054c-34.042,20.427-78.136,31.125-116.394,31.125
		c-61.602,0-116.717-22.694-158.541-60.627c-3.566-2.918-0.649-7.133,3.566-4.864c45.067,26.263,100.831,42.147,158.541,42.147
		c36.312,0,75.542-6.808,112.827-21.397L361.5,359.054L361.5,359.054z M361.5,320.796c-5.189,1.623-9.727,3.892-13.942,6.811
		c-3.241,2.27-2.592,5.187,0.648,4.862c3.566-0.647,8.104-0.974,13.293-1.622L361.5,320.796L361.5,320.796z"/>
	<path display="none" d="M950.271,230.341v-1.621c4.538,0,8.104-3.566,8.104-8.104c0-4.54-3.889-8.106-8.104-8.106v-1.621l0,0
		c5.188,0,9.729,4.215,9.729,9.727C960,225.803,955.46,230.341,950.271,230.341L950.271,230.341L950.271,230.341z M950.271,221.588
		h0.323c0.649,0,0.976,0.323,0.976,0.972c0,0.325,0.322,2.917,0.647,3.566h2.271c-0.326-0.649-0.649-1.944-0.649-2.918
		c-0.325-1.297-0.325-2.269-1.945-2.592c0.975-0.325,2.27-0.651,2.27-2.594c0-2.918-2.592-2.918-3.89-2.918l0,0v1.621l0,0
		c0.648,0,1.62,0,1.62,1.621c0,0.648-0.322,1.62-1.62,1.62l0,0v1.622H950.271z M950.271,210.889v1.621l0,0
		c-4.537,0-8.43,3.566-8.43,8.106c0,4.539,3.893,8.104,8.43,8.104l0,0v1.621c-5.512,0-10.05-4.215-10.05-9.725
		C940.223,215.104,944.761,210.889,950.271,210.889L950.271,210.889z M950.271,215.104h-3.892v11.022l0,0h2.271v-4.538h1.619v-1.623
		h-1.619v-3.241h1.619L950.271,215.104L950.271,215.104z M759.31,315.609v-13.294c8.431-0.323,15.239-5.511,19.454-14.266
		c3.566-8.104,4.215-17.506,4.215-26.262c0-9.725-0.974-19.775-5.512-28.205c-3.892-7.133-11.023-11.673-18.157-11.996V208.62l0,0
		h0.648h0.975c25.937,0,38.904,26.262,38.904,53.495C799.837,290.32,785.571,315.286,759.31,315.609L759.31,315.609z
		 M813.453,313.663c-1.943-0.323-3.566-1.62-3.566-3.566v-95.642c0.325-1.623,1.623-2.917,3.566-3.243h6.81
		c1.946,0,3.243,1.621,3.566,3.243v13.94c4.863-11.022,13.942-19.775,25.29-19.775h0.972h0.648c11.996,0,21.073,9.076,24.314,22.046
		c5.188-12.645,14.914-22.046,27.882-22.046h0.648h0.649c9.077,0,17.831,5.835,22.37,14.914c4.214,8.428,4.214,19.775,4.214,29.179
		v57.384c0,1.946-1.62,3.243-3.566,3.566h-8.104c-1.619-0.323-3.239-1.295-3.564-3.24v-57.71c0-6.81,0.325-14.266-2.271-20.426
		c-2.918-6.484-8.43-10.375-14.266-10.699c-6.483,0.323-12.321,5.187-16.211,11.671c-5.187,8.106-4.863,15.562-4.863,25.29v52.198
		c-0.322,1.297-1.621,2.594-3.565,2.917h-8.104c-1.945-0.323-3.565-1.62-3.565-3.566v-61.274c0-5.512-0.325-12.32-2.918-17.183
		c-2.92-5.835-8.431-9.727-13.942-10.05c-6.16,0.323-11.996,4.863-15.562,10.05c-4.537,6.809-5.513,14.914-5.513,23.344v55.115
		c0,1.946-1.295,3.243-3.241,3.566h-8.107V313.663z M759.31,208.62v12.968h-0.322c-8.106,0.323-15.562,5.835-19.452,14.588
		c-3.243,7.458-4.217,17.183-4.217,25.613c0,9.404,1.297,20.104,5.188,28.207c3.566,7.133,10.699,12.319,18.48,12.319h0.322v13.294
		c-0.322,0-0.647,0-0.647,0h-0.972h-0.648c-26.585,0-38.258-26.91-38.258-53.82C718.783,233.259,732.725,208.943,759.31,208.62
		L759.31,208.62z M470.759,315.609v-19.452c13.942-0.325,14.591-20.426,14.591-32.422c0-8.104-0.324-17.832-2.918-25.613
		c-1.944-6.484-5.835-9.079-11.673-9.402v-19.454c27.235,0.325,42.149,23.993,42.149,54.146
		C512.908,292.591,496.374,315.286,470.759,315.609L470.759,315.609z M674.367,301.992c11.67-0.322,18.154-9.401,20.749-22.046
		c0.325-1.297,1.62-2.595,3.241-2.595h7.782c1.943,0,3.566,1.623,3.566,3.243c-3.566,20.749-16.211,35.016-34.368,35.016h-0.648
		h-0.973c-26.261,0-37.607-26.262-37.607-53.172c0-26.584,11.67-53.818,37.932-53.818h0.648h0.648
		c18.479,0,31.448,14.265,34.368,35.338c0,1.297-1.623,2.917-3.243,2.917h-8.431c-1.62-0.323-2.592-1.62-2.917-3.241
		c-1.946-11.996-8.753-21.398-20.102-21.723c-17.832,0.648-23.021,22.695-23.021,39.555C651.995,278,656.21,301.344,674.367,301.992
		L674.367,301.992z M633.84,305.882c0-4.863-4.215-8.753-9.078-8.753c-5.188,0-9.401,3.89-9.401,8.753
		c0,4.864,4.215,8.756,9.401,8.756C629.625,314.638,633.84,310.746,633.84,305.882L633.84,305.882z M548.895,313.663h-18.479
		c-1.943-0.323-3.566-1.62-3.566-3.566v-95.642c0.326-1.946,1.623-3.243,3.566-3.243h17.509c1.62,0,2.918,1.297,3.243,2.918v14.59
		h0.323c5.187-13.293,12.645-19.454,25.611-19.454c8.105,0,16.535,2.92,21.725,11.35c4.861,7.779,4.861,20.424,4.861,29.826v59.981
		c-0.323,1.62-1.62,3.24-3.566,3.24h-18.804c-1.62-0.323-3.242-1.62-3.242-3.24v-51.551c0-10.699,1.297-25.936-11.671-25.936
		c-4.538,0-8.753,2.917-11.024,7.781c-2.593,5.835-2.918,11.67-2.918,18.155v51.225
		C552.461,312.043,550.841,313.663,548.895,313.663z M349.179,228.072v-13.617c0-1.946,1.623-3.566,3.566-3.566h61.278
		c1.944,0,3.566,1.621,3.566,3.566v11.671c0,1.946-1.623,4.54-4.541,8.755l-31.771,45.388c11.671-0.323,24.316,1.624,35.015,7.458
		c2.269,1.621,2.918,3.566,3.241,5.514v14.265c0,1.943-2.269,4.215-4.538,3.241c-19.129-10.051-44.093-11.022-64.843,0
		c-2.269,1.297-4.54-1.298-4.54-3.241v-13.618c0-1.943,0-5.836,2.271-9.402l36.96-52.845h-32.099
		C350.801,231.638,349.179,230.341,349.179,228.072L349.179,228.072z M470.759,209.266v19.454l0,0
		c-13.938,0-14.589,18.804-14.589,30.477c0,11.996-0.323,36.96,14.266,36.96c0.323,0,0.323,0,0.323,0v19.452c0,0,0,0-0.323,0
		c-27.232,0-42.146-23.668-42.146-53.172c0-29.828,15.237-53.171,42.146-53.171C470.759,209.266,470.759,209.266,470.759,209.266
		L470.759,209.266z M286.282,313.34v-17.183c4.215-0.974,7.781-3.892,10.376-8.431c3.566-6.483,3.566-12.318,3.566-19.777v-3.889
		c-4.864,0-9.727,0.323-13.942,1.295v-14.914c4.864-0.648,9.728-0.972,13.942-1.295v-2.595c0-4.538,0.323-9.727-2.271-13.616
		c-2.269-3.243-6.807-4.864-10.699-4.864c-0.323,0-0.649,0-0.972,0v-19.777c1.297,0,2.595,0,3.892,0
		c9.076,0,20.749,2.594,27.882,9.401c9.076,8.43,8.428,19.778,8.428,32.097v29.181c0,8.753,3.566,12.643,6.81,17.183
		c1.297,1.62,1.62,3.565,0,4.86c-3.566,3.243-10.376,9.078-14.266,12.321l0,0c-1.297,0.973-2.917,0.973-4.538,0.323
		c-6.161-5.188-7.133-7.455-10.699-12.319C297.629,307.828,292.443,311.395,286.282,313.34z M286.282,208.294v19.777
		c-6.809,0.648-12.319,4.215-13.942,11.348c-0.323,1.621-1.621,3.241-3.241,3.566l-18.157-2.269
		c-1.621-0.326-3.241-1.297-2.592-3.892C252.239,216.399,269.422,209.266,286.282,208.294L286.282,208.294z M286.282,250.441v14.914
		c-7.781,2.271-13.942,7.133-13.942,17.508c0,8.104,4.215,13.617,11.348,13.617c0.974,0,1.623-0.323,2.594-0.323v17.183
		c-3.892,0.973-8.104,1.621-13.293,1.621c-15.562,0-27.882-9.726-27.882-28.854c0-15.24,8.107-25.616,19.777-30.478
		C271.045,252.713,278.824,251.416,286.282,250.441L286.282,250.441z M41.175,313.34v-17.183c4.215-0.974,8.107-3.892,10.376-8.431
		c3.89-6.483,3.566-12.318,3.566-19.777l0,0v-3.889c-4.864,0-9.728,0.323-13.942,1.295v-14.914
		c4.864-0.648,9.727-0.972,13.942-1.295v-2.595c0-4.538,0.323-9.727-2.269-13.616c-2.27-3.243-6.486-4.864-10.376-4.864
		c-0.648,0-0.972,0-1.297,0v-19.777c1.297,0,2.595,0,3.892,0c9.078,0,20.749,2.594,28.205,9.401
		c9.078,8.43,8.106,19.778,8.106,32.097v29.181c0,8.753,3.566,12.643,7.133,17.183c0.972,1.62,1.297,3.565-0.326,4.86
		c-3.566,3.243-10.374,9.078-14.265,12.321l0,0c-1.297,0.973-2.917,0.973-4.538,0.323c-6.161-5.188-7.133-7.455-10.699-12.319
		C52.523,307.828,47.336,311.395,41.175,313.34L41.175,313.34z M125.146,313.663h-18.803c-1.946-0.323-3.243-1.62-3.243-3.24
		v-95.645c0-1.946,1.623-3.566,3.566-3.566h17.183c1.946,0,3.566,1.621,3.566,3.243V227.1h0.326
		c4.538-12.322,12.968-17.834,24.641-17.834c11.671,0,19.126,5.512,24.315,17.834c4.538-12.322,14.588-17.834,25.613-17.834
		c8.104,0,16.535,3.243,21.721,10.376c5.838,8.106,4.864,19.777,4.864,30.151v60.304c0,1.946-1.621,3.566-3.89,3.566h-18.48
		c-1.946-0.323-3.243-1.62-3.243-3.566V259.52c0-3.89,0.325-14.265-0.649-17.832c-1.297-6.484-5.51-8.43-11.022-8.43
		c-4.541,0-9.079,2.917-11.024,7.781c-1.944,4.863-1.944,12.968-1.944,18.48v50.577c0,1.946-1.623,3.566-3.566,3.566h-18.806
		c-1.62-0.323-3.241-1.62-3.241-3.566V259.52c0-10.699,1.621-26.584-11.348-26.584c-13.617,0-12.97,15.562-12.97,26.584v50.577
		C128.713,312.043,127.093,313.663,125.146,313.663z M41.175,208.294v19.777c-6.484,0.648-12.319,4.215-13.94,11.348
		c-0.325,1.621-1.297,3.241-3.243,3.566l-18.157-2.269c-1.295-0.326-3.241-1.297-2.592-3.892
		C7.133,216.399,24.641,209.266,41.175,208.294L41.175,208.294z M41.175,250.441v14.914c-7.781,2.271-13.94,7.133-13.94,17.508
		c0,8.104,4.215,13.617,11.348,13.617c0.972,0,1.944-0.323,2.592-0.323v17.183c-3.889,0.973-8.104,1.621-13.291,1.621
		C12.322,314.961,0,305.235,0,286.107c0-15.24,8.107-25.616,20.103-30.478C26.262,252.713,33.72,251.416,41.175,250.441z"/>
	<path id="path3" display="none" fill="#010101" d="M69.823,306.111c0,28.425-12.7,38.7-33.865,38.7H5.721V209.348h30.237
		c23.583,0,29.632,13.911,29.632,36.892c0,16.932-6.048,26.004-16.325,26.607C60.75,272.847,69.823,284.34,69.823,306.111
		L69.823,306.111z M29.305,280.709v47.778h6.046c7.26,0,9.072-4.241,9.072-24.795c0-15.12-1.812-22.983-9.676-22.983H29.305
		L29.305,280.709z M29.305,225.075v39.309h6.046c6.046,0,7.26-6.047,7.26-17.542c0-15.723-1.211-21.768-9.074-21.768L29.305,225.075
		L29.305,225.075z"/>
	<path id="path5" display="none" fill="#010101" d="M203.469,275.267c15.116,4.233,16.933,22.377,16.933,38.705
		c0,12.706,0.603,24.188,2.421,30.837h-24.791c-0.607-5.441-1.814-7.859-1.814-20.566c0-4.837,0-10.271,0-16.928
		c0-10.883-3.63-18.744-11.491-21.166h-1.209v58.66h-24.791v-135.46h36.281c16.932,0,28.425,9.676,28.425,34.469
		C223.427,264.986,214.355,274.058,203.469,275.267L203.469,275.267z M183.512,226.282v39.309h7.258
		c6.046,0,7.863-4.235,7.863-16.328c0-19.958-3.63-22.981-10.884-22.981H183.512L183.512,226.282L183.512,226.282z"/>
	<path id="path7" display="none" fill="#010101" d="M264.55,271.037c1.207,18.139,1.207,22.979,1.207,39.307
		c0,10.276,0,34.467,0,34.467h-22.374V209.348h22.374c0,0,10.284,39.916,12.7,48.383c2.421,8.463,4.233,15.114,5.442,21.163
		c-0.604-13.302-1.209-29.63-1.209-42.937c0-10.277,0-26.609,0-26.609h21.773v135.46h-19.958c0,0-12.093-41.728-14.514-50.191
		C268.178,287.965,266.361,280.709,264.55,271.037L264.55,271.037L264.55,271.037z"/>
	<polygon id="polygon9" display="none" fill="#010101" points="349.818,324.246 379.446,324.246 379.446,344.812 326.235,344.812 
		326.235,209.348 375.823,209.348 375.823,229.91 349.818,229.91 349.818,266.193 372.797,266.193 372.797,284.941 349.818,284.941 
			"/>
	<path id="path11" display="none" fill="#010101" d="M414.526,313.364c0,15.123,3.628,17.542,9.07,17.542
		c4.236,0,7.255-2.419,7.255-17.542c0-13.308-9.066-22.979-18.748-35.072c-9.672-10.89-19.953-26.004-19.953-38.704
		c0-20.562,9.676-32.051,28.423-32.051c18.746,0,29.024,10.277,29.024,30.239c0,4.228-1.207,7.865-1.813,10.881h-19.955
		c0-2.418,0.604-5.442,0.604-9.674c0-12.702-1.813-16.935-7.256-16.935c-5.442,0-6.044,5.444-6.044,15.119
		c0,12.095,9.676,21.774,17.535,32.053c11.491,14.512,20.562,26.006,20.562,39.911c0,21.776-9.074,38.095-30.236,38.095
		c-18.144,0-30.239-9.665-30.239-33.251c0-5.443,0-10.28,1.209-14.518l21.776-0.605
		C415.127,304.293,414.526,307.315,414.526,313.364L414.526,313.364L414.526,313.364z"/>
	<path id="path13" display="none" fill="#010101" d="M619.539,271.037c1.203,18.139,1.203,22.979,1.203,39.307
		c0,10.276,0,34.467,0,34.467h-22.376V209.348h22.376c0,0,10.283,39.916,12.7,48.383c2.423,8.463,4.229,15.114,4.839,21.163
		c-0.606-13.302-0.606-29.63-0.606-42.937c0-10.277,0-26.609,0-26.609h21.773v135.46h-19.953c0,0-12.101-41.728-14.514-50.191
		C623.158,287.965,621.349,280.709,619.539,271.037L619.539,271.037z"/>
	<path id="path15" display="none" fill="#010101" d="M741.085,277.083c0,58.055-9.673,70.143-32.051,70.143
		c-20.56,0-31.442-9.066-31.442-70.143c0-59.269,8.463-69.545,31.442-69.545C732.622,207.536,741.085,217.815,741.085,277.083
		L741.085,277.083z M715.679,277.083c0-21.167,0-34.472-0.599-44.148c-0.604-9.675-2.423-11.491-6.046-11.491
		c-3.633,0-5.442,1.814-6.04,11.491c-0.607,9.679-0.607,22.981-0.607,44.148c0,24.794,0,34.467,0.607,43.542
		c0.598,10.278,2.414,11.492,6.04,11.492c4.235,0,5.442-0.606,6.046-11.492C715.679,310.948,715.679,301.878,715.679,277.083
		L715.679,277.083z"/>
	<path id="path17" display="none" fill="#010101" d="M823.328,306.111c0,28.425-12.7,38.7-33.865,38.7h-30.241V209.348h30.241
		c23.584,0,29.632,13.911,29.632,36.892c0,16.932-6.048,26.004-16.329,26.607C814.258,272.847,823.328,284.34,823.328,306.111
		L823.328,306.111z M782.81,280.709v47.778h6.05c7.251,0,9.078-4.241,9.078-24.795c0-15.12-1.82-22.983-9.68-22.983H782.81
		L782.81,280.709z M782.81,225.075v39.309h6.05c6.038,0,7.251-6.047,7.251-17.542c0-15.723-1.811-21.768-9.069-21.768
		L782.81,225.075L782.81,225.075z"/>
	<polygon id="polygon19" display="none" fill="#010101" points="865.053,324.246 893.479,324.246 893.479,344.812 840.265,344.812 
		840.265,209.348 865.053,209.348 	"/>
	<polygon id="polygon21" display="none" fill="#010101" points="930.37,324.246 960,324.246 960,344.812 906.775,344.812 
		906.775,209.348 956.374,209.348 956.374,229.91 930.37,229.91 930.37,266.193 953.349,266.193 953.349,284.941 930.37,284.941 	
		"/>
	<path id="path23" display="none" fill="#010101" d="M78.892,344.812l19.349-136.065h23.585l22.983,136.065h-25.397l-2.419-21.776
		h-15.118l-2.417,21.776H78.892L78.892,344.812z M103.687,307.925h12.098c0,0-1.816-15.724-3.025-26.005
		c-0.603-6.046-3.025-26.003-3.63-38.701c-0.604,13.305-2.421,32.658-3.025,38.701C105.503,292.199,103.687,307.925,103.687,307.925
		L103.687,307.925z"/>
	<path id="path25" display="none" fill="#D05727" d="M569.945,274.058c-9.678,0-16.33,6.046-20.562,15.118
		c-4.233,9.072-9.074,20.56-12.098,26.605c-10.278-18.136-18.139-32.049-22.98-44.744c7.857-4.837,21.771-11.493,30.238-18.749
		c7.863-7.26,11.486-14.516,13.303-22.379c2.423-15.118-6.049-28.42-25.396-28.42c-16.327,0-35.686,12.698-39.305,33.862
		c-1.808,10.284,0.599,24.188,4.832,35.683c-14.509,9.672-27.209,20.558-30.834,37.493c-4.236,28.421,13.31,41.112,33.261,41.112
		c13.311,0,23.583-6.042,32.053-15.112c6.04,6.652,13.909,15.112,23.586,15.112c7.862,0,16.325-4.839,22.979-13.298l-3.024-4.231
		c-6.042,6.04-10.276,8.461-13.909,8.461c-6.651,0-12.695-6.044-18.748-14.507c-0.599-1.827-1.207-3.039-1.813-4.248
		c3.633-7.249,6.045-15.112,9.675-22.372c6.051-13.306,9.679-18.144,15.127-18.144c9.67,0,1.808,15.725,12.096,15.725
		c4.837,0,7.253-3.625,7.855-7.859C586.878,283.732,583.25,274.058,569.945,274.058L569.945,274.058L569.945,274.058z
		 M509.467,231.726c1.212-9.677,9.681-19.958,22.377-19.958c9.672,0,16.327,7.258,13.902,18.749
		c-0.598,4.232-1.805,8.467-6.035,13.912c-4.84,5.439-20.564,15.114-27.823,19.349C508.254,252.891,507.049,242.612,509.467,231.726
		L509.467,231.726z M505.846,340.58c-18.748,0-25.396-15.714-23.59-27.82c2.421-15.114,9.675-24.188,18.742-32.653
		c6.657,16.331,15.125,32.653,27.22,49.595C521.562,337.553,515.521,340.58,505.846,340.58L505.846,340.58z"/>
	<path id="path27" display="none" fill="#FFFFFF" d="M504.632,226.282c0,0-12.694,19.958,5.444,59.265
		c14.514,32.657,32.051,50.803,32.051,50.803s-17.541-24.188-29.632-53.211C497.977,247.449,504.632,226.282,504.632,226.282
		L504.632,226.282L504.632,226.282z"/>
	<g>
		<g>
			<path fill="#010101" d="M221.224,228.819c0-17.887-36.765-30.028-48.583-3.445c-9.19-20.681-38.242-19.993-46.155,0.165
				l0.006-10.559c0-1.598-1.464-3.065-3.065-3.065h-16.495c-1.603,0-3.063,1.467-3.063,3.065v89.23c0,1.601,1.46,3.067,3.063,3.067
				h17.728c1.605,0,3.019-1.468,3.019-3.067v-56.582c0-6.387,2.695-13.597,9.461-15.085c7.44-1.656,13.507,2.458,13.507,11.053
				l-0.007,60.614c0,1.601,1.46,3.067,3.065,3.067h18.027c1.603,0,3.065-1.468,3.065-3.067l0.002-60.119
				c0-13.634,22.682-17.155,22.682,0v60.119c0,1.601,1.462,3.067,3.065,3.067h17.614c1.603,0,3.063-1.468,3.063-3.067
				L221.224,228.819L221.224,228.819z"/>
			<path fill="#010101" d="M397.524,215.128c0-1.599-1.462-3.054-3.063-3.054h-58.316c-0.807,0-1.609,0.341-2.177,0.906
				c-0.565,0.576-0.82,1.37-0.82,2.174v12.401c0,1.585,1.548,3.012,3.14,3.012h30.654l-34.927,51.134
				c-1.996,2.92-1.651,4.734-1.651,5.338l0.031,14.226c0,3.053,1.132,4.413,4.628,2.935c21.356-9.021,44.111-9.562,61.263,0.699
				c1.403,0.849,3.1-0.066,3.1-2.461l0.004-15.975c0-1.037-0.561-2.045-1.432-2.583c-9.909-6.251-22.51-7.918-34.735-7.731
				l32.647-45.381c1.565-2.179,1.655-4.505,1.655-5.136L397.524,215.128z"/>
			<path fill="#010101" d="M461.179,259.718c0,17.293-0.622,31.308-13.645,31.308c-12.396,0-13.637-14.015-13.637-31.308
				s1.034-31.521,13.637-31.318C459.729,228.602,461.179,242.425,461.179,259.718z M487.421,259.406
				c-0.014-28.449-16.713-50.069-39.887-49.805c-23.3,0.272-39.914,22.134-39.881,50.012c0.031,28.571,16.972,50.435,40.298,49.804
				C471.166,308.784,487.434,287.039,487.421,259.406z"/>
			<path fill="#010101" d="M572.238,235.435c0-14.146-8.562-25.834-28.607-25.215c-9.299,0.282-16.548,7.357-20.573,17.361v-12.858
				c0-1.609-1.465-3.065-3.064-3.065h-17.11c-1.603,0-3.063,1.456-3.063,3.065v89.567c0,1.604,1.462,3.057,3.063,3.057h17.895
				c1.604,0,3.066-1.453,3.066-3.057v-56.256c0-8.382,7.178-15.453,13.794-15.706c5.46-0.203,10.925,5.04,10.925,10.958v61.003
				c0,1.604,1.457,3.057,3.059,3.057h17.561c1.604,0,3.063-1.453,3.063-3.057L572.238,235.435z"/>
			<path fill="#010101" d="M288.215,261.035v11.603c0,8.999-5.972,16.661-10.904,18.144c-9.727,2.929-16.042-4.623-15.8-12.682
				c0.299-10.18,9.252-16.389,16.813-16.673L288.215,261.035z M312.299,233.538c0-15.048-13.021-24.634-38.251-23.746
				c-15.402,0.537-30.054,6.264-33.832,24.878c-0.172,0.833,0.024,1.733,0.519,2.419c0.499,0.684,1.291,1.139,2.135,1.235
				l15.708,1.801c1.506,0.163,3.047-0.954,3.351-2.434c1.133-5.864,5.581-10.205,12.12-10.205c9.74,0,13.955,5.015,13.955,11.655
				v8.703l-19.41,1.478c-16.418,1.251-31.694,11.957-32.016,32.462c-0.292,18.878,12.245,27.875,29.359,27
				c10.191-0.536,19.081-4.893,25.817-12.396l9.69,10.781c0.545,0.604,1.346,0.98,2.161,1.009c0.818,0.026,1.643-0.28,2.234-0.847
				l12.607-12.049c1.06-1.021,1.225-2.825,0.372-4.008l-4.641-6.106c-0.939-1.235-1.878-6.75-1.878-9.881V233.538L312.299,233.538z"
				/>
			<path fill="#010101" d="M58.741,261.021v11.592c0,8.995-5.968,16.663-10.901,18.137c-9.727,2.934-16.04-4.623-15.8-12.682
				c0.299-10.176,9.257-16.372,16.812-16.67L58.741,261.021z M82.826,233.509c0-15.046-13.021-24.632-38.247-23.746
				c-15.404,0.541-30.061,6.266-33.836,24.892c-0.172,0.82,0.024,1.717,0.521,2.408c0.497,0.682,1.291,1.156,2.128,1.249
				l15.714,1.786c1.504,0.178,3.048-0.939,3.349-2.432c1.135-5.866,5.587-10.191,12.124-10.191c9.734,0,13.951,5.002,13.951,11.642
				v8.716l-19.41,1.464c-16.414,1.251-31.69,11.957-32.013,32.46c-0.295,18.895,12.242,27.892,29.355,27
				c10.195-0.521,19.083-4.881,25.819-12.396l9.692,10.785c0.543,0.603,1.344,0.979,2.162,1.021c0.815,0.026,1.64-0.284,2.231-0.849
				l12.612-12.06c1.058-1.011,1.223-2.828,0.365-4.012l-4.635-6.091c-0.946-1.251-1.882-6.763-1.882-9.896V233.509z"/>
		</g>
		<g>
			<path fill="#010101" d="M600.334,300.649c0-4.761-3.856-8.62-8.615-8.62c-4.76,0-8.616,3.859-8.616,8.62
				c0,4.76,3.856,8.604,8.616,8.604C596.479,309.255,600.334,305.409,600.334,300.649z"/>
			<path fill="#010101" d="M668.721,244.107c0.521,0,1.04-0.218,1.398-0.603c0.354-0.38,0.545-0.917,0.51-1.44
				c-1.284-17.963-12.683-32.864-33.592-32.464c-25.213,0.473-34.591,27.675-34.925,48.771c-0.36,22.834,7.646,49.593,34.925,51.044
				c19.579,1.035,32.715-15.864,33.618-33.751c0.021-0.512-0.167-1.035-0.518-1.412c-0.357-0.376-0.863-0.635-1.381-0.635h-8.946
				c-0.916,0-1.771,0.688-1.908,1.605c-1.687,11.428-10.334,21.674-19.21,21.793c-16.121,0.201-21.868-22.331-22.112-37.825
				c-0.205-13.014,5.785-36.776,21.492-36.993c11.625-0.143,18.36,9.015,19.842,20.254c0.121,0.899,0.976,1.653,1.895,1.653h8.912
				V244.107z"/>
			<path fill="#010101" d="M776.479,300.649c0-4.761-3.856-8.62-8.614-8.62c-4.761,0-8.615,3.859-8.615,8.62
				c0,4.76,3.854,8.604,8.615,8.604C772.621,309.255,776.479,305.409,776.479,300.649z"/>
			<path fill="#010101" d="M739.592,259.531c0,20.934-6.636,37.902-22.326,37.902c-15.484-0.992-22.324-16.97-22.324-37.902
				c0-20.938,7.241-38.122,22.324-37.919C732.146,221.812,739.592,238.595,739.592,259.531z M755.479,259.423
				c0-27.66-13.271-49.876-38.115-50.074c-24.638,0.198-37.705,21.822-37.705,49.48c-0.205,30.764,11.262,49.269,37.406,50.478
				C739.789,309.51,755.479,290.001,755.479,259.423z"/>
			<path fill="#010101" d="M851.019,213.677c0-0.996-0.913-1.909-1.917-1.909h-10.049c-1.005,0-1.915,0.913-1.915,1.909
				l-0.002,56.408c0,5.23-5.027,24.335-20.714,26.556c-13.186,1.858-17.557-13.283-17.557-22.733v-60.229
				c0-0.996-0.915-1.909-1.916-1.909h-10.597c-1.004,0-1.913,0.913-1.913,1.909l0.002,62.443c0,17.495,9.424,33.632,27.35,33.79
				c11.805,0.097,20.979-6.585,26.239-16.295v11.847c0,1.01,0.907,1.924,1.913,1.924h9.162c1,0,1.912-0.914,1.912-1.924
				L851.019,213.677L851.019,213.677z"/>
			<path fill="#010101" d="M931.461,216.408c1.481-1.939,3.018-4.248-0.398-4.248l-10.754-0.016c-0.57,0-1.13,0.295-1.483,0.737
				l-36.234,46.608v-79.587c0-1.012-0.91-1.926-1.913-1.926h-10.45c-1.005,0-1.92,0.915-1.92,1.926v125.6
				c0,1.009,0.915,1.926,1.92,1.926h10.594c1.003,0,1.915-0.917,1.915-1.926v-26.743c0-0.431,0.144-0.847,0.396-1.183l16.554-21.527
				l22.823,50.262c0.303,0.658,1.014,1.117,1.741,1.117h11.402c0.646,0,1.278-0.352,1.627-0.902
				c0.341-0.553,0.376-1.277,0.095-1.854l-28.435-58.937L931.461,216.408z"/>
		</g>
		<g>
			<path fill="#010101" d="M953.589,217.927c0,0.255-0.058,0.484-0.148,0.684c-0.105,0.217-0.259,0.404-0.466,0.565
				c-0.203,0.147-0.473,0.284-0.783,0.363c-0.312,0.097-0.681,0.123-1.11,0.123h-1.583v-3.47h1.365c0.32,0,0.578,0.013,0.785,0.026
				c0.194,0.013,0.37,0.053,0.531,0.08c0.508,0.125,0.868,0.325,1.084,0.606C953.475,217.173,953.589,217.524,953.589,217.927z
				 M956.04,225.158c0-0.039-0.024-0.094-0.046-0.173c-0.026-0.079-0.084-0.213-0.165-0.402l-1.093-2.271
				c-0.142-0.255-0.271-0.486-0.388-0.699c-0.137-0.202-0.264-0.391-0.404-0.556c-0.135-0.145-0.294-0.279-0.465-0.4
				c-0.159-0.121-0.341-0.2-0.538-0.281c0.344-0.11,0.674-0.244,0.973-0.392c0.288-0.147,0.541-0.332,0.75-0.552
				c0.206-0.202,0.357-0.444,0.473-0.712c0.116-0.281,0.178-0.591,0.178-0.939c0-0.354-0.071-0.672-0.187-0.967
				c-0.128-0.299-0.317-0.554-0.555-0.783c-0.258-0.229-0.559-0.416-0.914-0.565c-0.374-0.147-0.8-0.257-1.264-0.336
				c-0.159-0.013-0.341-0.013-0.554-0.035c-0.207-0.016-0.473-0.029-0.773-0.029h-2.6c-0.15,0-0.294,0.051-0.413,0.117
				c-0.132,0.097-0.188,0.244-0.188,0.446v9.531c0,0.042,0.014,0.084,0.034,0.11c0.022,0.04,0.061,0.063,0.131,0.081
				c0.06,0.011,0.134,0.024,0.253,0.038c0.102,0.015,0.229,0.015,0.396,0.015c0.161,0,0.286,0,0.388-0.015
				c0.104-0.013,0.186-0.026,0.244-0.038c0.06-0.018,0.104-0.042,0.139-0.081c0.021-0.026,0.047-0.068,0.047-0.11v-4.382h1.088
				c0.369,0,0.68,0.04,0.948,0.147c0.264,0.097,0.493,0.215,0.691,0.389c0.195,0.178,0.371,0.363,0.511,0.591
				c0.139,0.233,0.273,0.484,0.412,0.752l1.122,2.436c0.021,0.066,0.058,0.108,0.093,0.15c0.037,0.05,0.08,0.09,0.148,0.107
				c0.062,0.024,0.139,0.024,0.242,0.053c0.104,0,0.246,0,0.409,0c0.183,0,0.343,0,0.457,0c0.104-0.028,0.187-0.028,0.269-0.053
				c0.057-0.018,0.092-0.042,0.114-0.081C956.027,225.242,956.04,225.2,956.04,225.158z"/>
			<path fill="#010101" d="M949.051,227.043c-3.633-1.451-5.399-5.567-3.944-9.2c1.446-3.628,5.569-5.389,9.192-3.938
				c3.628,1.451,5.395,5.565,3.942,9.197C956.792,226.73,952.674,228.496,949.051,227.043z M960,220.479
				c0-1.264-0.29-2.511-0.836-3.641c-0.736-1.521-1.95-2.812-3.425-3.632c-2.858-1.598-6.688-1.317-9.232,0.739
				c-2.435,1.966-3.688,5.354-2.949,8.408c0.395,1.585,1.217,3.089,2.424,4.206c2.312,2.098,5.843,2.836,8.737,1.669
				c2.352-0.97,4.248-2.999,4.951-5.449C959.886,222.027,960,221.249,960,220.479z"/>
		</g>
	</g>
	<g>
		<g>
			<path fill="#FCB129" d="M363.763,361.292c-3.588,8.579,5.151,2.986,6.229,2.003c11.794-10.675,20.47-42.714,15.129-47.615
				c-6.73-6.153-37.99-6.102-51.839,4.012c-5.785,4.233-2.544,5.055,3.564,4.679c10.673-0.673,20.27-1.372,28.478-0.673
				c7.783,0.673,8.225,4.463,6.225,12.678C369.229,345.921,367.769,351.729,363.763,361.292z"/>
			<path fill="#FCB129" d="M350.955,335.488c-80.634,32.93-173.67,28.357-250.206-11.994c-1.055-0.55-4.804-2.705-9.078-4.84
				c-3.338-1.669-3.969-1.119-4.512-0.523c-0.75,0.805-0.468,2.271,0.721,3.345c44.942,40.487,98.973,59.959,157.963,57.404
				c45.034-1.962,86.994-18.474,111.022-36.048c3.544-2.597,4.815-5.97,3.34-7.558C358.692,333.647,354.699,333.958,350.955,335.488
				z"/>
		</g>
	</g>
</g>
<g id="Layer_2">
	<path fill="#F58220" d="M361.959,344.537c-4.062,3.12-8.433,5.933-12.803,8.43v-13.115c2.497-0.936,5.307-2.185,7.806-3.119
		C362.581,334.232,367.579,340.478,361.959,344.537L361.959,344.537z M391.621,322.679c0-2.499-0.625-4.37-1.249-5.309
		c-2.81-3.437-23.418-6.558-41.216-1.25v9.679c10.929-0.935,23.729-1.246,26.853,2.813c4.371,5.307-4.995,28.413-9.055,38.405
		c-1.25,3.121,1.56,4.37,4.371,2.186c14.052-11.864,19.983-33.411,20.296-44.65V322.679z M349.156,352.967
		c-32.786,19.672-75.251,29.977-112.097,29.977c-59.327,0-112.408-21.857-152.688-58.391c-3.435-2.81-0.625-6.869,3.434-4.685
		c43.404,25.293,97.109,40.593,152.689,40.593c34.972,0,72.753-6.558,108.662-20.609V352.967L349.156,352.967z M349.156,316.12
		c-4.997,1.562-9.368,3.748-13.427,6.559c-3.122,2.187-2.497,4.995,0.625,4.685c3.435-0.624,7.806-0.938,12.803-1.563
		L349.156,316.12L349.156,316.12z"/>
	<path d="M916.195,229.004v-1.561c4.37,0,7.805-3.435,7.805-7.805c0-4.373-3.745-7.808-7.805-7.808v-1.561l0,0
		c4.995,0,9.367,4.06,9.367,9.368C925.562,224.634,921.19,229.004,916.195,229.004L916.195,229.004L916.195,229.004z
		 M916.195,220.574h0.311c0.625,0,0.938,0.312,0.938,0.937c0,0.313,0.312,2.81,0.625,3.434h2.186
		c-0.312-0.624-0.625-1.872-0.625-2.81c-0.312-1.249-0.312-2.185-1.873-2.496c0.938-0.313,2.186-0.627,2.186-2.5
		c0-2.809-2.497-2.809-3.746-2.809l0,0v1.561l0,0c0.625,0,1.562,0,1.562,1.561c0,0.625-0.312,1.561-1.562,1.561l0,0L916.195,220.574
		L916.195,220.574z M916.195,210.271v1.561l0,0c-4.371,0-8.119,3.435-8.119,7.808c0,4.37,3.748,7.805,8.119,7.805l0,0v1.561
		c-5.31,0-9.681-4.06-9.681-9.366C906.516,214.33,910.887,210.271,916.195,210.271L916.195,210.271z M916.195,214.33h-3.748v10.615
		l0,0h2.188v-4.371h1.562v-1.562h-1.562v-3.121h1.562L916.195,214.33L916.195,214.33z M732.28,311.126v-12.803
		c8.119-0.312,14.678-5.308,18.736-13.738c3.436-7.807,4.06-16.861,4.06-25.293c0-9.366-0.938-19.045-5.31-27.164
		c-3.747-6.869-10.616-11.242-17.486-11.554v-12.489l0,0h0.626h0.938c24.979,0,37.469,25.292,37.469,51.52
		C771.312,286.77,757.573,310.812,732.28,311.126L732.28,311.126z M784.426,309.251c-1.871-0.311-3.435-1.561-3.435-3.435v-92.111
		c0.312-1.563,1.562-2.81,3.435-3.123h6.56c1.874,0,3.123,1.56,3.435,3.123v13.425c4.685-10.615,13.428-19.045,24.356-19.045h0.936
		h0.625c11.553,0,20.296,8.741,23.417,21.233c4.996-12.179,14.364-21.233,26.854-21.233h0.624h0.626
		c8.742,0,17.173,5.62,21.545,14.363c4.057,8.117,4.057,19.045,4.057,28.102v55.267c0,1.874-1.56,3.124-3.434,3.435h-7.807
		c-1.561-0.311-3.121-1.247-3.434-3.122V250.55c0-6.558,0.312-13.739-2.187-19.672c-2.812-6.245-8.119-9.993-13.738-10.304
		c-6.244,0.312-11.867,4.996-15.613,11.24c-4.994,7.807-4.683,14.988-4.683,24.356v50.272c-0.312,1.248-1.562,2.498-3.437,2.809
		h-7.806c-1.874-0.311-3.436-1.561-3.436-3.435v-59.015c0-5.309-0.312-11.865-2.81-16.548c-2.812-5.62-8.119-9.368-13.429-9.68
		c-5.934,0.312-11.553,4.685-14.987,9.68c-4.369,6.558-5.31,14.363-5.31,22.481v53.082c0,1.874-1.247,3.124-3.12,3.435H784.426
		L784.426,309.251z M732.28,208.085v12.489h-0.312c-7.808,0.312-14.987,5.62-18.733,14.05c-3.123,7.183-4.062,16.549-4.062,24.668
		c0,9.057,1.248,19.36,4.996,27.165c3.437,6.87,10.305,11.866,17.799,11.866h0.312v12.803c-0.312,0-0.624,0-0.624,0h-0.937h-0.625
		c-25.604,0-36.845-25.917-36.845-51.834C693.251,231.814,706.678,208.396,732.28,208.085L732.28,208.085z M454.382,311.126v-18.733
		c13.428-0.313,14.052-19.672,14.052-31.227c0-7.805-0.312-17.173-2.811-24.667c-1.874-6.245-5.62-8.744-11.242-9.055v-18.736
		c26.229,0.313,40.593,23.107,40.593,52.147C494.975,288.957,479.051,310.812,454.382,311.126L454.382,311.126z M650.474,298.011
		c11.239-0.312,17.484-9.054,19.983-21.232c0.312-1.25,1.561-2.498,3.122-2.498h7.496c1.871,0,3.434,1.562,3.434,3.123
		c-3.434,19.983-15.61,33.723-33.099,33.723h-0.625h-0.938c-25.292,0-36.22-25.293-36.22-51.209
		c0-25.604,11.238-51.832,36.531-51.832h0.625h0.625c17.797,0,30.287,13.739,33.099,34.033c0,1.25-1.562,2.81-3.123,2.81h-8.119
		c-1.561-0.311-2.496-1.561-2.81-3.122c-1.875-11.553-8.43-20.607-19.358-20.921c-17.174,0.625-22.17,21.857-22.17,38.095
		C628.929,274.905,632.987,297.387,650.474,298.011L650.474,298.011z M611.443,301.757c0-4.684-4.061-8.43-8.744-8.43
		c-4.995,0-9.056,3.746-9.056,8.43c0,4.687,4.061,8.433,9.056,8.433C607.384,310.188,611.443,306.442,611.443,301.757
		L611.443,301.757z M529.634,309.251h-17.799c-1.871-0.311-3.435-1.561-3.435-3.435v-92.111c0.312-1.874,1.562-3.123,3.435-3.123
		h16.862c1.561,0,2.811,1.249,3.124,2.81v14.052h0.311c4.995-12.803,12.178-18.736,24.667-18.736
		c7.807,0,15.925,2.812,20.922,10.931c4.683,7.492,4.683,19.67,4.683,28.725v57.766c-0.312,1.562-1.562,3.122-3.436,3.122h-18.109
		c-1.561-0.311-3.121-1.561-3.121-3.122v-49.647c0-10.304,1.248-24.979-11.241-24.979c-4.37,0-8.43,2.81-10.617,7.494
		c-2.496,5.62-2.811,11.24-2.811,17.485v49.334C533.067,307.69,531.508,309.251,529.634,309.251z M337.29,226.819v-13.114
		c0-1.874,1.562-3.435,3.434-3.435h59.017c1.872,0,3.435,1.561,3.435,3.435v11.24c0,1.874-1.563,4.373-4.373,8.433l-30.599,43.712
		c11.24-0.312,23.418,1.562,33.722,7.182c2.185,1.562,2.811,3.437,3.122,5.311v13.738c0,1.873-2.185,4.061-4.371,3.123
		c-18.423-9.68-42.465-10.617-62.449,0c-2.185,1.248-4.373-1.25-4.373-3.123v-13.116c0-1.871,0-5.618,2.188-9.054l35.596-50.896
		h-30.914C338.852,230.254,337.29,229.004,337.29,226.819L337.29,226.819z M454.382,208.708v18.736l0,0
		c-13.425,0-14.051,18.109-14.051,29.352c0,11.553-0.312,35.597,13.739,35.597c0.312,0,0.312,0,0.312,0v18.733c0,0,0,0-0.312,0
		c-26.229,0-40.592-22.794-40.592-51.209c0-28.727,14.675-51.209,40.592-51.209C454.382,208.708,454.382,208.708,454.382,208.708
		L454.382,208.708z M276.714,308.94v-16.55c4.06-0.938,7.495-3.748,9.993-8.119c3.435-6.244,3.435-11.863,3.435-19.046v-3.747
		c-4.685,0-9.368,0.312-13.428,1.247v-14.363c4.685-0.625,9.369-0.936,13.428-1.248v-2.498c0-4.371,0.311-9.368-2.188-13.114
		c-2.185-3.123-6.556-4.684-10.304-4.684c-0.311,0-0.625,0-0.937,0v-19.047c1.25,0,2.499,0,3.749,0
		c8.741,0,19.983,2.499,26.853,9.055c8.741,8.119,8.116,19.047,8.116,30.912v28.104c0,8.43,3.435,12.176,6.558,16.549
		c1.25,1.561,1.561,3.435,0,4.683c-3.435,3.123-9.993,8.743-13.739,11.867l0,0c-1.249,0.936-2.81,0.936-4.371,0.311
		c-5.933-4.995-6.87-7.181-10.304-11.864C287.643,303.632,282.648,307.066,276.714,308.94z M276.714,207.771v19.047
		c-6.558,0.625-11.864,4.06-13.427,10.929c-0.312,1.561-1.561,3.122-3.122,3.435l-17.487-2.186c-1.561-0.313-3.121-1.25-2.497-3.748
		C243.928,215.577,260.477,208.708,276.714,207.771L276.714,207.771z M276.714,248.363v14.363
		c-7.494,2.188-13.427,6.87-13.427,16.863c0,7.806,4.059,13.114,10.928,13.114c0.938,0,1.563-0.312,2.499-0.312v16.55
		c-3.748,0.936-7.805,1.562-12.803,1.562c-14.988,0-26.853-9.367-26.853-27.79c0-14.677,7.808-24.669,19.047-29.351
		C262.04,250.55,269.531,249.301,276.714,248.363L276.714,248.363z M40.655,308.94v-16.55c4.06-0.938,7.808-3.748,9.993-8.119
		c3.746-6.244,3.435-11.863,3.435-19.046l0,0v-3.747c-4.684,0-9.368,0.312-13.428,1.247v-14.363
		c4.685-0.625,9.368-0.936,13.428-1.248v-2.498c0-4.371,0.312-9.368-2.185-13.114c-2.186-3.123-6.247-4.684-9.993-4.684
		c-0.625,0-0.936,0-1.25,0v-19.047c1.25,0,2.499,0,3.749,0c8.743,0,19.983,2.499,27.164,9.055
		c8.743,8.119,7.807,19.047,7.807,30.912v28.104c0,8.43,3.435,12.176,6.87,16.549c0.936,1.561,1.25,3.435-0.314,4.683
		c-3.434,3.123-9.991,8.743-13.738,11.867l0,0c-1.25,0.936-2.81,0.936-4.371,0.311c-5.934-4.995-6.87-7.181-10.304-11.864
		C51.584,303.632,46.589,307.066,40.655,308.94L40.655,308.94z M121.527,309.251h-18.109c-1.874-0.311-3.124-1.561-3.124-3.122
		v-92.113c0-1.874,1.562-3.434,3.435-3.434h16.549c1.874,0,3.434,1.56,3.434,3.123v12.178h0.314
		c4.371-11.867,12.489-17.175,23.731-17.175c11.24,0,18.42,5.309,23.418,17.175c4.371-11.867,14.05-17.175,24.667-17.175
		c7.805,0,15.924,3.124,20.919,9.993c5.622,7.808,4.684,19.047,4.684,29.038v58.079c0,1.874-1.561,3.435-3.746,3.435h-17.798
		c-1.874-0.311-3.123-1.561-3.123-3.435v-48.71c0-3.746,0.313-13.739-0.625-17.174c-1.249-6.244-5.306-8.118-10.615-8.118
		c-4.373,0-8.743,2.81-10.617,7.494c-1.872,4.684-1.872,12.489-1.872,17.798v48.71c0,1.874-1.563,3.435-3.435,3.435h-18.111
		c-1.56-0.311-3.121-1.561-3.121-3.435v-48.71c0-10.304,1.561-25.604-10.929-25.604c-13.114,0-12.491,14.988-12.491,25.604v48.71
		C124.962,307.69,123.401,309.251,121.527,309.251z M40.655,207.771v19.047c-6.244,0.625-11.864,4.06-13.425,10.929
		c-0.313,1.561-1.249,3.122-3.123,3.435L6.62,238.997c-1.248-0.313-3.122-1.25-2.497-3.748
		C7.87,215.577,24.731,208.708,40.655,207.771L40.655,207.771z M40.655,248.363v14.363c-7.494,2.188-13.425,6.87-13.425,16.863
		c0,7.806,4.06,13.114,10.929,13.114c0.936,0,1.872-0.312,2.497-0.312v16.55c-3.746,0.936-7.805,1.562-12.8,1.562
		C12.867,310.502,1,301.135,1,282.712c0-14.677,7.808-24.669,19.361-29.351C26.292,250.55,33.475,249.301,40.655,248.363z"/>
</g>
<g id="Layer_3">
	<path id="path3_1_" fill="#010101" d="M149.814,281.982c0,21.325-9.529,29.035-25.407,29.035h-22.686V209.385h22.686
		c17.693,0,22.231,10.437,22.231,27.678c0,12.704-4.538,19.51-12.248,19.962C143.007,257.025,149.814,265.648,149.814,281.982
		L149.814,281.982z M119.415,262.924v35.846h4.536c5.447,0,6.806-3.183,6.806-18.603c0-11.344-1.359-17.244-7.26-17.244
		L119.415,262.924L119.415,262.924z M119.415,221.185v29.492h4.536c4.536,0,5.447-4.537,5.447-13.161
		c0-11.796-0.909-16.331-6.808-16.331H119.415L119.415,221.185z"/>
	<path id="path5_1_" fill="#010101" d="M250.083,258.841c11.341,3.176,12.704,16.79,12.704,29.039
		c0,9.532,0.452,18.146,1.816,23.136h-18.6c-0.455-4.083-1.361-5.896-1.361-15.431c0-3.629,0-7.705,0-12.7
		c0-8.165-2.724-14.063-8.621-15.879h-0.907v44.01h-18.599v-101.63h27.22c12.703,0,21.326,7.259,21.326,25.86
		C265.056,251.128,258.25,257.935,250.083,258.841L250.083,258.841z M235.109,222.09v29.492h5.445c4.536,0,5.899-3.177,5.899-12.25
		c0-14.974-2.724-17.242-8.166-17.242H235.109L235.109,222.09L235.109,222.09z"/>
	<path id="path7_1_" fill="#010101" d="M295.909,255.668c0.906,13.608,0.906,17.24,0.906,29.49c0,7.71,0,25.857,0,25.857h-16.786
		V209.385h16.786c0,0,7.715,29.947,9.528,36.299c1.816,6.349,3.176,11.339,4.083,15.877c-0.454-9.98-0.907-22.23-0.907-32.213
		c0-7.71,0-19.963,0-19.963h16.336v101.63H310.88c0,0-9.073-31.307-10.889-37.657C298.631,268.368,297.268,262.924,295.909,255.668
		L295.909,255.668L295.909,255.668z"/>
	<polygon id="polygon9_1_" fill="#010101" points="359.882,295.588 382.11,295.588 382.11,311.019 342.188,311.019 342.188,209.385 
		379.392,209.385 379.392,224.812 359.882,224.812 359.882,252.034 377.122,252.034 377.122,266.1 359.882,266.1 	"/>
	<path id="path11_1_" fill="#010101" d="M408.43,287.424c0,11.348,2.722,13.161,6.805,13.161c3.179,0,5.443-1.813,5.443-13.161
		c0-9.983-6.803-17.239-14.066-26.312c-7.256-8.17-14.97-19.51-14.97-29.038c0-15.427,7.26-24.046,21.325-24.046
		c14.064,0,21.776,7.71,21.776,22.687c0,3.172-0.906,5.9-1.361,8.164H418.41c0-1.814,0.453-4.083,0.453-7.258
		c0-9.529-1.361-12.705-5.443-12.705c-4.083,0-4.535,4.084-4.535,11.343c0,9.075,7.26,16.336,13.156,24.048
		c8.621,10.887,15.427,19.511,15.427,29.944c0,16.338-6.808,28.58-22.685,28.58c-13.612,0-22.687-7.251-22.687-24.946
		c0-4.085,0-7.714,0.908-10.892l16.337-0.454C408.88,280.618,408.43,282.886,408.43,287.424L408.43,287.424L408.43,287.424z"/>
	<path id="path13_1_" fill="#010101" d="M562.241,255.668c0.903,13.608,0.903,17.24,0.903,29.49c0,7.71,0,25.857,0,25.857h-16.788
		V209.385h16.788c0,0,7.715,29.947,9.526,36.299c1.818,6.349,3.174,11.339,3.631,15.877c-0.455-9.98-0.455-22.23-0.455-32.213
		c0-7.71,0-19.963,0-19.963h16.336v101.63h-14.971c0,0-9.077-31.307-10.889-37.657C564.957,268.368,563.6,262.924,562.241,255.668
		L562.241,255.668z"/>
	<path id="path15_1_" fill="#010101" d="M653.432,260.204c0,43.557-7.257,52.625-24.046,52.625c-15.425,0-23.59-6.803-23.59-52.625
		c0-44.466,6.35-52.177,23.59-52.177C647.082,208.025,653.432,215.738,653.432,260.204L653.432,260.204z M634.371,260.204
		c0-15.88,0-25.862-0.449-33.122c-0.454-7.259-1.818-8.621-4.536-8.621c-2.726,0-4.083,1.361-4.532,8.621
		c-0.454,7.262-0.454,17.242-0.454,33.122c0,18.603,0,25.858,0.454,32.667c0.449,7.712,1.812,8.622,4.532,8.622
		c3.179,0,4.084-0.454,4.536-8.622C634.371,285.611,634.371,278.807,634.371,260.204L634.371,260.204z"/>
	<path id="path17_1_" fill="#010101" d="M715.135,281.982c0,21.325-9.527,29.035-25.406,29.035H667.04V209.385h22.688
		c17.693,0,22.23,10.437,22.23,27.678c0,12.704-4.537,19.51-12.251,19.962C708.33,257.025,715.135,265.648,715.135,281.982
		L715.135,281.982z M684.736,262.924v35.846h4.538c5.438,0,6.811-3.183,6.811-18.603c0-11.344-1.365-17.244-7.262-17.244
		L684.736,262.924L684.736,262.924z M684.736,221.185v29.492h4.538c4.529,0,5.438-4.537,5.438-13.161
		c0-11.796-1.356-16.331-6.804-16.331H684.736L684.736,221.185z"/>
	<polygon id="polygon19_1_" fill="#010101" points="746.439,295.588 767.766,295.588 767.766,311.019 727.842,311.019 
		727.842,209.385 746.439,209.385 	"/>
	<polygon id="polygon21_1_" fill="#010101" points="795.444,295.588 817.674,295.588 817.674,311.019 777.742,311.019 
		777.742,209.385 814.953,209.385 814.953,224.812 795.444,224.812 795.444,252.034 812.684,252.034 812.684,266.1 795.444,266.1 	
		"/>
	<path id="path23_1_" fill="#010101" d="M156.618,311.019l14.517-102.083h17.695l17.243,102.083h-19.055l-1.814-16.337h-11.343
		l-1.813,16.337H156.618L156.618,311.019z M175.221,283.343h9.076c0,0-1.363-11.796-2.27-19.51
		c-0.452-4.536-2.27-19.509-2.724-29.036c-0.453,9.982-1.816,24.502-2.27,29.036C176.583,271.545,175.221,283.343,175.221,283.343
		L175.221,283.343z"/>
	<path id="path25_1_" fill="#D05727" d="M525.033,257.935c-7.26,0-12.252,4.536-15.427,11.342
		c-3.178,6.807-6.809,15.425-9.077,19.961c-7.711-13.606-13.607-24.045-17.24-33.569c5.895-3.629,16.332-8.623,22.686-14.066
		c5.9-5.447,8.618-10.891,9.98-16.79c1.818-11.343-4.537-21.323-19.053-21.323c-12.25,0-26.772,9.526-29.488,25.405
		c-1.356,7.715,0.449,18.147,3.625,26.771c-10.885,7.257-20.414,15.424-23.133,28.129c-3.18,21.323,9.984,30.846,24.953,30.846
		c9.985,0,17.692-4.532,24.048-11.339c4.53,4.992,10.436,11.339,17.694,11.339c5.898,0,12.248-3.631,17.24-9.977l-2.27-3.176
		c-4.533,4.531-7.709,6.348-10.437,6.348c-4.989,0-9.523-4.534-14.064-10.884c-0.449-1.37-0.905-2.279-1.361-3.187
		c2.726-5.438,4.535-11.339,7.259-16.786c4.539-9.982,7.263-13.612,11.35-13.612c7.255,0,1.355,11.798,9.074,11.798
		c3.63,0,5.441-2.72,5.895-5.897C537.737,265.192,535.016,257.935,525.033,257.935L525.033,257.935L525.033,257.935z
		 M479.659,226.175c0.909-7.26,7.263-14.974,16.788-14.974c7.257,0,12.25,5.445,10.431,14.066
		c-0.448,3.175-1.354,6.353-4.528,10.438c-3.631,4.081-15.428,11.339-20.874,14.516
		C478.749,242.053,477.845,234.342,479.659,226.175L479.659,226.175z M476.942,307.843c-14.066,0-19.056-11.788-17.698-20.872
		c1.815-11.34,7.258-18.146,14.061-24.499c4.995,12.252,11.348,24.499,20.421,37.208
		C488.734,305.571,484.202,307.843,476.942,307.843L476.942,307.843z"/>
	<path id="path27_1_" fill="#FFFFFF" d="M476.032,222.09c0,0-9.525,14.973,4.084,44.463c10.89,24.501,24.046,38.115,24.046,38.115
		s-13.16-18.146-22.23-39.922C471.039,237.971,476.032,222.09,476.032,222.09L476.032,222.09L476.032,222.09z"/>
</g>
<g id="Layer_4">
	<g>
		<polygon fill-rule="evenodd" clip-rule="evenodd" fill="#231F20" points="692.688,332.299 692.688,190.976 665.564,190.976 
			665.564,200.162 680.261,200.162 680.261,323.112 665.564,323.112 665.564,332.299 692.688,332.299 		"/>
		<polygon fill-rule="evenodd" clip-rule="evenodd" fill="#231F20" points="275,332.299 275,190.976 302.124,190.976 
			302.124,200.162 287.427,200.162 287.427,323.112 302.124,323.112 302.124,332.299 275,332.299 		"/>
		<path fill-rule="evenodd" clip-rule="evenodd" fill="#F6921E" d="M338.756,260.76h6.214c6.843,0,11.909-1.462,15.196-4.391
			c3.287-2.927,4.931-7.541,4.931-13.845v-2.296c0-0.633,0-1.128,0-1.486c-0.454-5.226-2.041-9.05-4.755-11.483
			c-2.714-2.43-6.744-3.647-12.081-3.647h-9.505V260.76L338.756,260.76z M324.571,310.204v-97.263h23.371
			c9.366,0,16.545,1.843,21.544,5.54c4.999,3.692,7.88,7.99,8.646,12.897c0.764,4.91,1.145,8.669,1.145,11.278
			c0,8.832-2.833,15.629-8.507,20.402s-13.737,7.155-24.181,7.155h-7.833v39.991H324.571L324.571,310.204z"/>
		<path fill-rule="evenodd" clip-rule="evenodd" fill="#F6921E" d="M406.669,266.598l20.667-0.056l-8.732-32.802
			c-0.274-1.263-0.522-2.544-0.748-3.848c-0.229-1.307-0.431-2.77-0.61-4.392l-0.411-3.646c0,1.086-0.082,2.281-0.252,3.588
			c-0.173,1.311-0.379,2.734-0.636,4.265l-0.462,2.143l-0.396,1.895L406.669,266.598L406.669,266.598z M380.902,310.204
			l27.419-97.263h17.027l27.552,97.263l-14.728,0.031l-8.836-33.656l-24.917-0.013l-8.923,33.637H380.902L380.902,310.204z"/>
		<path fill-rule="evenodd" clip-rule="evenodd" fill="#F6921E" d="M510.988,215.911l-2.161,9.724
			c-0.454-0.265-1.265-0.625-2.436-1.079c-1.168-0.449-2.883-0.967-5.133-1.553c-2.256-0.583-4.729-0.876-7.43-0.876
			c-7.206,0-12.606,3.128-16.21,9.388c-3.603,6.259-5.403,16.188-5.403,29.787c0,2.434,0.047,4.859,0.138,7.292
			c0.085,2.433,0.405,6.329,0.945,11.687c0.539,5.359,2.678,10.223,6.418,14.59c3.735,4.367,8.57,6.554,14.515,6.554
			c4.594,0,9.595-1.355,14.996-4.058l2.032-1.077l2.024,10.126c-1.981,0.905-3.332,1.51-4.057,1.826
			c-0.717,0.314-2.722,0.991-6.007,2.027c-3.291,1.032-7.365,1.558-12.227,1.558c-10.087,0-18.193-3.537-24.312-10.611
			c-6.128-7.062-9.188-17.175-9.188-30.323c0-19.721,2.974-34.513,8.913-44.374c5.947-9.86,14.456-14.792,25.529-14.792
			c2.074,0,3.92,0.091,5.539,0.27c1.624,0.181,3.558,0.586,5.812,1.22l4.054,1.214l1.888,0.673L510.988,215.911L510.988,215.911z"/>
		<path fill-rule="evenodd" clip-rule="evenodd" fill="#F6921E" d="M526.517,310.204v-97.263h13.917v36.875v3.108v3.246l0.381-1.102
			l0.639-1.649c0.514-1.284,1.027-2.29,1.539-3.025l26.505-37.536l15.393,0.083l-32.033,45.251l37.013,52.011l-16.898,0.01
			l-29.445-41.609c-0.989-1.53-1.843-3.202-2.551-5.006l-0.541-1.624v1.893v1.892v3.782v40.663H526.517L526.517,310.204z"/>
		<polygon fill-rule="evenodd" clip-rule="evenodd" fill="#F6921E" points="588.925,222.4 588.925,212.941 650.12,212.941 
			650.12,222.532 626.482,224.288 626.482,310.204 612.429,310.204 612.429,224.423 588.925,222.4 		"/>
		<path fill-rule="evenodd" clip-rule="evenodd" fill="#231F20" d="M330.974,350.477c0.929,0,1.78-0.194,2.593-0.543
			c0.813-0.349,1.51-0.812,2.129-1.394c0.581-0.58,1.084-1.315,1.432-2.129c0.349-0.813,0.503-1.664,0.503-2.555
			s-0.155-1.742-0.503-2.555c-0.348-0.812-0.852-1.51-1.432-2.129c-0.619-0.581-1.316-1.084-2.129-1.433
			c-0.812-0.348-1.664-0.503-2.593-0.503h-6.31c-0.348,0-0.62,0.116-0.851,0.348c-0.233,0.271-0.349,0.543-0.349,0.892v22.296
			c0,0.35,0.116,0.62,0.349,0.852c0.231,0.232,0.503,0.349,0.851,0.349c0.349,0,0.619-0.116,0.852-0.349
			c0.232-0.231,0.348-0.502,0.348-0.852v-10.296H330.974L330.974,350.477z M325.864,348.075v-8.438h5.11
			c0.58,0,1.122,0.116,1.626,0.31c0.503,0.232,0.967,0.543,1.354,0.93c0.387,0.388,0.696,0.851,0.929,1.354
			c0.193,0.504,0.309,1.045,0.309,1.626c0,0.579-0.116,1.122-0.309,1.626c-0.233,0.503-0.542,0.968-0.929,1.354
			c-0.388,0.388-0.852,0.697-1.354,0.892c-0.504,0.231-1.046,0.347-1.626,0.347H325.864L325.864,348.075z"/>
		<path fill-rule="evenodd" clip-rule="evenodd" fill="#231F20" d="M358.109,356.708c0.426,1.046,1.045,1.974,1.819,2.749
			c0.774,0.773,1.703,1.393,2.748,1.819c1.045,0.464,2.129,0.696,3.329,0.696c1.201,0,2.323-0.232,3.368-0.696
			c1.045-0.427,1.936-1.046,2.71-1.819c0.774-0.775,1.394-1.703,1.858-2.749c0.465-1.045,0.697-2.129,0.697-3.329v-14.865
			c0-0.271-0.116-0.58-0.31-0.851c-0.193-0.271-0.503-0.426-0.852-0.426c-0.348,0-0.658,0.116-0.89,0.387
			c-0.232,0.271-0.349,0.58-0.349,0.853v14.902c0,0.852-0.155,1.665-0.503,2.4c-0.348,0.734-0.774,1.394-1.355,1.935
			c-0.58,0.581-1.238,1.007-1.974,1.355c-0.735,0.349-1.549,0.504-2.4,0.504c-0.852-0.001-1.665-0.155-2.4-0.504
			c-0.774-0.349-1.432-0.774-1.974-1.355c-0.581-0.541-1.006-1.2-1.316-1.935c-0.349-0.735-0.503-1.549-0.503-2.4v-14.865
			c0-0.347-0.117-0.618-0.31-0.89c-0.194-0.271-0.503-0.387-0.852-0.387c-0.348,0-0.658,0.116-0.89,0.387
			c-0.232,0.271-0.348,0.58-0.348,0.853v14.902C357.413,354.579,357.645,355.663,358.109,356.708L358.109,356.708L358.109,356.708z"
			/>
		<path fill-rule="evenodd" clip-rule="evenodd" fill="#231F20" d="M408.317,340.876c-0.349-0.735-0.774-1.354-1.316-1.897
			c-0.542-0.541-1.161-0.967-1.897-1.276c-0.735-0.31-1.51-0.465-2.322-0.465h-6.891c-0.348,0-0.619,0.116-0.851,0.348
			c-0.232,0.233-0.349,0.504-0.349,0.853v22.335c0,0.35,0.116,0.62,0.349,0.852c0.232,0.232,0.503,0.349,0.851,0.349h6.891
			c1.045,0,2.013-0.194,2.942-0.619c0.89-0.388,1.703-0.93,2.399-1.626c0.658-0.658,1.2-1.472,1.587-2.4
			c0.387-0.89,0.58-1.858,0.58-2.903c0-1.433-0.349-2.709-1.006-3.871c-0.696-1.121-1.626-2.013-2.748-2.671
			c0.658-0.58,1.2-1.237,1.625-2.051c0.427-0.813,0.62-1.666,0.62-2.595C408.781,342.424,408.626,341.611,408.317,340.876
			L408.317,340.876L408.317,340.876z M407.503,356.398c-0.271,0.619-0.658,1.162-1.122,1.626c-0.465,0.465-1.007,0.852-1.625,1.123
			c-0.62,0.271-1.278,0.426-1.975,0.426l-5.69-0.001v-10.297h5.69c0.697,0,1.354,0.117,1.975,0.388
			c0.619,0.271,1.161,0.658,1.625,1.123c0.464,0.464,0.851,1.006,1.122,1.625c0.271,0.658,0.388,1.317,0.388,2.013
			C407.891,355.12,407.775,355.779,407.503,356.398L407.503,356.398L407.503,356.398z M397.091,339.637h5.69
			c0.503,0,0.968,0.077,1.393,0.271c0.426,0.193,0.813,0.464,1.161,0.773c0.31,0.349,0.542,0.736,0.736,1.162
			c0.194,0.426,0.271,0.891,0.271,1.393c0,0.505-0.077,0.968-0.271,1.395c-0.193,0.426-0.426,0.812-0.736,1.122
			c-0.348,0.349-0.735,0.619-1.161,0.813c-0.425,0.193-0.89,0.31-1.393,0.31h-5.69V339.637L397.091,339.637z"/>
		<path fill-rule="evenodd" clip-rule="evenodd" fill="#231F20" d="M429.917,360.772c0,0.35,0.116,0.62,0.348,0.852
			c0.233,0.232,0.503,0.349,0.852,0.349h11.033c0.349,0,0.62-0.116,0.851-0.349c0.232-0.231,0.349-0.502,0.349-0.852
			c0-0.349-0.116-0.619-0.349-0.851c-0.231-0.232-0.502-0.349-0.851-0.349l-9.833-0.001v-21.135c0-0.349-0.116-0.619-0.349-0.853
			c-0.232-0.231-0.503-0.348-0.852-0.348c-0.349,0-0.619,0.116-0.852,0.348c-0.232,0.233-0.348,0.504-0.348,0.853V360.772
			L429.917,360.772z"/>
		<path fill-rule="evenodd" clip-rule="evenodd" fill="#231F20" d="M463.207,360.772c0,0.35,0.116,0.62,0.348,0.852
			c0.232,0.232,0.504,0.349,0.853,0.349c0.347,0,0.618-0.116,0.851-0.349c0.233-0.231,0.349-0.502,0.349-0.852v-22.335
			c0-0.349-0.115-0.619-0.349-0.853c-0.232-0.231-0.504-0.348-0.851-0.348c-0.349,0-0.62,0.116-0.853,0.348
			c-0.231,0.233-0.348,0.504-0.348,0.853V360.772L463.207,360.772z"/>
		<path fill-rule="evenodd" clip-rule="evenodd" fill="#231F20" d="M496.498,361.393c0.965-0.349,1.817-0.891,2.553-1.549
			s1.316-1.433,1.742-2.322c0.426-0.891,0.657-1.858,0.657-2.903s-0.153-1.937-0.463-2.672c-0.349-0.734-0.775-1.394-1.354-1.974
			c-0.582-0.58-1.279-1.045-2.092-1.471c-0.812-0.427-1.703-0.814-2.671-1.162c-0.502-0.193-1.083-0.388-1.781-0.619
			c-0.695-0.232-1.354-0.503-2.012-0.813c-0.658-0.31-1.2-0.656-1.627-1.082c-0.463-0.427-0.696-0.892-0.696-1.396
			c0-0.734,0.155-1.315,0.465-1.818c0.31-0.465,0.697-0.852,1.2-1.122c0.464-0.271,0.968-0.505,1.548-0.619
			c0.58-0.117,1.122-0.194,1.627-0.194c0.348,0,0.735,0,1.16,0.038c0.427,0.039,0.853,0.156,1.278,0.311
			c0.425,0.154,0.813,0.387,1.238,0.657c0.426,0.31,0.774,0.736,1.083,1.239c0.193,0.271,0.427,0.464,0.774,0.58
			c0.349,0.117,0.658,0.04,0.968-0.153c0.31-0.194,0.504-0.466,0.543-0.892c0.039-0.387-0.039-0.735-0.233-1.006
			c-0.463-0.658-0.967-1.16-1.508-1.587c-0.582-0.426-1.163-0.735-1.742-0.968c-0.582-0.232-1.201-0.388-1.78-0.503
			c-0.621-0.078-1.201-0.117-1.781-0.117c-0.853,0-1.703,0.117-2.556,0.388c-0.891,0.271-1.663,0.696-2.36,1.2
			c-0.697,0.542-1.277,1.199-1.705,1.936c-0.424,0.774-0.657,1.664-0.657,2.631c0,0.853,0.233,1.588,0.698,2.246
			c0.464,0.657,1.044,1.239,1.779,1.741c0.696,0.504,1.471,0.892,2.36,1.239c0.853,0.349,1.666,0.658,2.44,0.891
			c0.774,0.271,1.509,0.542,2.166,0.852c0.66,0.31,1.239,0.658,1.742,1.046c0.504,0.387,0.891,0.851,1.161,1.354
			c0.272,0.502,0.388,1.122,0.388,1.819c0,0.696-0.153,1.354-0.465,1.935c-0.308,0.62-0.695,1.161-1.199,1.588
			c-0.504,0.426-1.123,0.774-1.78,1.045c-0.659,0.271-1.354,0.388-2.052,0.388c-0.426-0.001-0.93-0.078-1.471-0.194
			c-0.582-0.115-1.123-0.271-1.665-0.542c-0.542-0.231-1.044-0.542-1.471-0.891c-0.465-0.347-0.812-0.735-1.046-1.199
			c-0.194-0.31-0.425-0.504-0.735-0.619c-0.348-0.077-0.657-0.039-0.967,0.154c-0.31,0.194-0.504,0.426-0.582,0.735
			c-0.116,0.349-0.075,0.658,0.117,0.968c0.309,0.581,0.774,1.123,1.354,1.626s1.2,0.891,1.936,1.238
			c0.697,0.349,1.432,0.619,2.245,0.813c0.773,0.193,1.509,0.31,2.246,0.31C494.562,361.973,495.528,361.778,496.498,361.393
			L496.498,361.393L496.498,361.393z"/>
		<path fill-rule="evenodd" clip-rule="evenodd" fill="#231F20" d="M521.349,360.772c0,0.35,0.116,0.62,0.348,0.852
			c0.234,0.232,0.505,0.349,0.853,0.349c0.349,0,0.62-0.116,0.852-0.349c0.232-0.231,0.348-0.502,0.348-0.852v-9.058h12.349v9.058
			c0,0.35,0.117,0.62,0.349,0.852c0.233,0.232,0.504,0.349,0.852,0.349c0.35,0,0.619-0.116,0.852-0.349
			c0.233-0.231,0.348-0.502,0.348-0.852v-22.335c0-0.349-0.114-0.619-0.348-0.853c-0.232-0.231-0.502-0.348-0.852-0.348
			c-0.348,0-0.618,0.116-0.852,0.348c-0.231,0.233-0.349,0.504-0.349,0.853v10.877h-12.349v-10.877c0-0.349-0.115-0.619-0.348-0.853
			c-0.231-0.231-0.503-0.348-0.852-0.348c-0.348,0-0.618,0.116-0.853,0.348c-0.231,0.233-0.348,0.504-0.348,0.853V360.772
			L521.349,360.772z"/>
		<path fill-rule="evenodd" clip-rule="evenodd" fill="#231F20" d="M558.896,360.772c0,0.35,0.116,0.62,0.348,0.852
			c0.233,0.232,0.504,0.349,0.853,0.349s0.618-0.116,0.853-0.349c0.231-0.231,0.348-0.502,0.348-0.852v-22.335
			c0-0.349-0.116-0.619-0.348-0.853c-0.234-0.231-0.504-0.348-0.853-0.348s-0.619,0.116-0.853,0.348
			c-0.231,0.233-0.348,0.504-0.348,0.853V360.772L558.896,360.772z"/>
		<path fill-rule="evenodd" clip-rule="evenodd" fill="#231F20" d="M581.736,360.772c0,0.35,0.114,0.62,0.348,0.852
			c0.231,0.232,0.503,0.349,0.851,0.349c0.349,0,0.619-0.116,0.854-0.349c0.23-0.231,0.348-0.502,0.348-0.852v-18.349l13.237,18.735
			c0.155,0.194,0.311,0.388,0.505,0.543c0.153,0.192,0.385,0.271,0.657,0.271c0.349,0,0.619-0.116,0.851-0.349
			c0.233-0.231,0.351-0.502,0.351-0.852v-22.335c0-0.349-0.117-0.619-0.351-0.853c-0.231-0.231-0.502-0.348-0.851-0.348
			s-0.619,0.116-0.852,0.348c-0.232,0.233-0.347,0.504-0.347,0.853v18.31l-13.318-18.852c-0.153-0.193-0.31-0.388-0.424-0.503
			c-0.156-0.117-0.388-0.155-0.66-0.155c-0.348,0-0.619,0.116-0.851,0.348c-0.233,0.233-0.348,0.504-0.348,0.853V360.772
			L581.736,360.772z"/>
		<path fill-rule="evenodd" clip-rule="evenodd" fill="#231F20" d="M640.96,344.359c0.351,0.039,0.62-0.038,0.853-0.231
			c0.271-0.233,0.427-0.504,0.465-0.813c0.039-0.31-0.078-0.619-0.271-0.891c-1.123-1.548-2.517-2.787-4.259-3.716
			c-1.743-0.929-3.679-1.394-5.729-1.394c-1.703,0-3.291,0.31-4.802,0.968c-1.508,0.658-2.787,1.51-3.907,2.633
			c-1.123,1.121-1.977,2.438-2.634,3.948c-0.658,1.509-0.968,3.097-0.968,4.8c0.001,1.703,0.31,3.291,0.968,4.799
			c0.658,1.511,1.511,2.788,2.634,3.91c1.12,1.123,2.399,1.976,3.907,2.633c1.511,0.658,3.099,0.968,4.802,0.968
			c1.471,0,2.863-0.232,4.219-0.735s2.555-1.16,3.64-2.052c1.045-0.852,1.974-1.897,2.709-3.097c0.735-1.2,1.238-2.478,1.508-3.87
			c0.078-0.388,0-0.736-0.193-1.085c-0.191-0.309-0.501-0.465-0.927-0.465h-7.007c-0.349,0-0.62,0.117-0.853,0.349
			c-0.231,0.232-0.348,0.504-0.348,0.853s0.115,0.619,0.348,0.851c0.232,0.233,0.504,0.349,0.853,0.349h5.38
			c-0.349,0.967-0.852,1.819-1.433,2.633c-0.619,0.812-1.315,1.471-2.13,2.052c-0.812,0.58-1.702,1.006-2.67,1.315
			c-0.967,0.349-2.013,0.504-3.096,0.504c-1.355-0.001-2.672-0.272-3.872-0.774c-1.2-0.504-2.244-1.238-3.135-2.129
			s-1.627-1.936-2.129-3.136c-0.503-1.2-0.774-2.517-0.774-3.871s0.271-2.67,0.774-3.871c0.502-1.2,1.238-2.284,2.129-3.174
			c0.891-0.892,1.935-1.627,3.135-2.129c1.2-0.505,2.517-0.775,3.872-0.775c1.354,0,2.748,0.311,4.142,0.968
			c1.354,0.659,2.67,1.703,3.87,3.137C640.303,344.165,640.613,344.321,640.96,344.359L640.96,344.359L640.96,344.359z"/>
		<path fill="none" stroke="#231F20" stroke-width="1.8422" stroke-miterlimit="2.6131" d="M330.974,350.477
			c0.929,0,1.78-0.194,2.593-0.543c0.813-0.349,1.51-0.812,2.129-1.394c0.581-0.58,1.084-1.315,1.432-2.129
			c0.349-0.813,0.503-1.664,0.503-2.555s-0.155-1.742-0.503-2.555c-0.348-0.812-0.852-1.51-1.432-2.129
			c-0.619-0.581-1.316-1.084-2.129-1.433c-0.812-0.348-1.664-0.503-2.593-0.503h-6.31c-0.348,0-0.62,0.116-0.851,0.348
			c-0.233,0.271-0.349,0.543-0.349,0.892v22.296c0,0.35,0.116,0.62,0.349,0.852c0.231,0.232,0.503,0.349,0.851,0.349
			c0.349,0,0.619-0.116,0.852-0.349c0.232-0.231,0.348-0.502,0.348-0.852v-10.296H330.974L330.974,350.477z M325.864,348.075v-8.438
			h5.11c0.58,0,1.122,0.116,1.626,0.31c0.503,0.232,0.967,0.543,1.354,0.93c0.387,0.388,0.696,0.851,0.929,1.354
			c0.193,0.504,0.309,1.045,0.309,1.626c0,0.579-0.116,1.122-0.309,1.626c-0.233,0.503-0.542,0.968-0.929,1.354
			c-0.388,0.388-0.852,0.697-1.354,0.892c-0.504,0.231-1.046,0.347-1.626,0.347H325.864L325.864,348.075z M358.109,356.708
			c0.426,1.046,1.045,1.974,1.819,2.749c0.774,0.773,1.703,1.393,2.748,1.819c1.045,0.464,2.129,0.696,3.329,0.696
			c1.201,0,2.323-0.232,3.368-0.696c1.045-0.427,1.936-1.046,2.71-1.819c0.774-0.775,1.394-1.703,1.858-2.749
			c0.465-1.045,0.697-2.129,0.697-3.329v-14.865c0-0.271-0.116-0.58-0.31-0.851c-0.193-0.271-0.503-0.426-0.852-0.426
			c-0.348,0-0.658,0.116-0.89,0.387c-0.232,0.271-0.349,0.58-0.349,0.853v14.902c0,0.852-0.155,1.665-0.503,2.4
			c-0.348,0.734-0.774,1.394-1.355,1.935c-0.58,0.581-1.238,1.007-1.974,1.355c-0.735,0.349-1.549,0.504-2.4,0.504
			c-0.852-0.001-1.665-0.155-2.4-0.504c-0.774-0.349-1.432-0.774-1.974-1.355c-0.581-0.541-1.006-1.2-1.316-1.935
			c-0.349-0.735-0.503-1.549-0.503-2.4v-14.865c0-0.347-0.117-0.618-0.31-0.89c-0.194-0.271-0.503-0.387-0.852-0.387
			c-0.348,0-0.658,0.116-0.89,0.387c-0.232,0.271-0.348,0.58-0.348,0.853v14.902C357.413,354.579,357.645,355.663,358.109,356.708
			L358.109,356.708L358.109,356.708z M408.317,340.876c-0.349-0.735-0.774-1.354-1.316-1.897c-0.542-0.541-1.161-0.967-1.897-1.276
			c-0.735-0.31-1.51-0.465-2.322-0.465h-6.89c-0.349,0-0.62,0.116-0.852,0.348c-0.232,0.233-0.349,0.504-0.349,0.853l0,22.335
			c0,0.35,0.117,0.62,0.349,0.852c0.232,0.232,0.503,0.349,0.852,0.349h6.89c1.045,0,2.013-0.194,2.942-0.619
			c0.89-0.388,1.703-0.93,2.399-1.626c0.658-0.658,1.2-1.472,1.587-2.4c0.387-0.89,0.58-1.858,0.58-2.903
			c0-1.433-0.348-2.709-1.006-3.871c-0.696-1.121-1.626-2.013-2.748-2.671c0.658-0.58,1.2-1.237,1.626-2.051
			s0.619-1.666,0.619-2.595C408.781,342.424,408.626,341.611,408.317,340.876L408.317,340.876L408.317,340.876z M407.504,356.398
			c-0.271,0.619-0.658,1.162-1.123,1.626c-0.465,0.465-1.007,0.852-1.625,1.123c-0.619,0.271-1.278,0.426-1.975,0.426l-5.69-0.001
			v-10.297h5.69c0.697,0,1.355,0.117,1.975,0.388c0.619,0.271,1.161,0.658,1.625,1.123c0.464,0.464,0.852,1.006,1.123,1.625
			c0.271,0.658,0.387,1.317,0.387,2.013C407.891,355.12,407.775,355.779,407.504,356.398L407.504,356.398L407.504,356.398z
			 M397.091,339.637h5.69c0.503,0,0.968,0.077,1.393,0.271c0.426,0.193,0.813,0.464,1.162,0.773c0.31,0.349,0.542,0.736,0.735,1.162
			c0.194,0.426,0.271,0.891,0.271,1.393c0,0.505-0.077,0.968-0.271,1.395c-0.193,0.426-0.426,0.812-0.735,1.122
			c-0.349,0.349-0.736,0.619-1.162,0.813c-0.425,0.193-0.89,0.31-1.393,0.31h-5.69V339.637L397.091,339.637z M429.917,360.772
			c0,0.35,0.116,0.62,0.348,0.852c0.232,0.232,0.503,0.349,0.852,0.349h11.033c0.348,0,0.62-0.116,0.851-0.349
			c0.232-0.231,0.349-0.502,0.349-0.852c0-0.349-0.116-0.619-0.349-0.851c-0.231-0.232-0.503-0.349-0.851-0.349l-9.833-0.001
			v-21.135c0-0.349-0.116-0.619-0.349-0.853c-0.232-0.231-0.503-0.348-0.852-0.348c-0.349,0-0.619,0.116-0.852,0.348
			c-0.232,0.233-0.349,0.504-0.349,0.853L429.917,360.772L429.917,360.772z M463.207,360.772c0,0.35,0.116,0.62,0.349,0.852
			c0.231,0.232,0.503,0.349,0.852,0.349c0.348,0,0.619-0.116,0.851-0.349c0.233-0.231,0.35-0.502,0.35-0.852v-22.335
			c0-0.349-0.116-0.619-0.35-0.853c-0.231-0.231-0.503-0.348-0.851-0.348c-0.349,0-0.62,0.116-0.852,0.348
			c-0.232,0.233-0.349,0.504-0.349,0.853V360.772L463.207,360.772z M496.495,361.393c0.968-0.349,1.82-0.891,2.556-1.549
			s1.316-1.433,1.742-2.322c0.426-0.891,0.657-1.858,0.657-2.903s-0.153-1.937-0.464-2.672c-0.348-0.734-0.774-1.394-1.354-1.974
			c-0.582-0.58-1.279-1.045-2.092-1.471c-0.812-0.427-1.703-0.814-2.671-1.162c-0.502-0.193-1.084-0.388-1.781-0.619
			c-0.695-0.232-1.354-0.503-2.012-0.813c-0.658-0.31-1.201-0.656-1.627-1.082c-0.463-0.427-0.696-0.892-0.696-1.396
			c0-0.734,0.155-1.315,0.465-1.818c0.31-0.465,0.697-0.852,1.2-1.122c0.464-0.271,0.968-0.505,1.548-0.619
			c0.58-0.117,1.122-0.194,1.627-0.194c0.348,0,0.733,0,1.16,0.038c0.427,0.039,0.852,0.156,1.278,0.311
			c0.425,0.154,0.813,0.387,1.237,0.657c0.427,0.31,0.775,0.736,1.084,1.239c0.193,0.271,0.427,0.464,0.774,0.58
			c0.349,0.117,0.658,0.04,0.968-0.153c0.31-0.194,0.504-0.466,0.543-0.892c0.039-0.387-0.039-0.735-0.233-1.006
			c-0.463-0.658-0.967-1.16-1.511-1.587c-0.579-0.426-1.16-0.735-1.741-0.968c-0.58-0.232-1.199-0.388-1.781-0.503
			c-0.618-0.078-1.198-0.117-1.778-0.117c-0.853,0-1.705,0.117-2.556,0.388c-0.891,0.271-1.664,0.696-2.36,1.2
			c-0.697,0.542-1.279,1.199-1.705,1.936c-0.426,0.774-0.658,1.664-0.658,2.631c0,0.853,0.232,1.588,0.699,2.246
			c0.463,0.657,1.044,1.239,1.779,1.741c0.696,0.504,1.471,0.892,2.36,1.239c0.853,0.349,1.665,0.658,2.44,0.891
			c0.774,0.271,1.509,0.542,2.166,0.852c0.658,0.31,1.239,0.658,1.742,1.046c0.504,0.387,0.891,0.851,1.161,1.354
			c0.272,0.502,0.388,1.122,0.388,1.819c0,0.696-0.156,1.354-0.465,1.935c-0.31,0.62-0.695,1.161-1.199,1.588
			c-0.504,0.426-1.123,0.774-1.781,1.045c-0.658,0.271-1.354,0.388-2.051,0.388c-0.426-0.001-0.93-0.078-1.472-0.194
			c-0.581-0.115-1.123-0.271-1.664-0.542c-0.543-0.231-1.045-0.542-1.471-0.891c-0.465-0.347-0.812-0.735-1.046-1.199
			c-0.194-0.31-0.426-0.504-0.735-0.619c-0.348-0.077-0.658-0.039-0.969,0.154c-0.308,0.194-0.502,0.426-0.58,0.735
			c-0.116,0.349-0.078,0.658,0.116,0.968c0.31,0.581,0.774,1.123,1.355,1.626c0.58,0.503,1.2,0.891,1.936,1.238
			c0.697,0.349,1.432,0.619,2.245,0.813c0.773,0.193,1.509,0.31,2.243,0.31C494.562,361.973,495.528,361.778,496.495,361.393
			L496.495,361.393L496.495,361.393z M521.349,360.772c0,0.35,0.114,0.62,0.348,0.852c0.231,0.232,0.503,0.349,0.851,0.349
			c0.349,0,0.62-0.116,0.852-0.349c0.232-0.231,0.35-0.502,0.35-0.852v-9.058h12.348v9.058c0,0.35,0.115,0.62,0.349,0.852
			c0.232,0.232,0.505,0.349,0.853,0.349c0.349,0,0.619-0.116,0.851-0.349c0.233-0.231,0.349-0.502,0.349-0.852v-22.335
			c0-0.349-0.115-0.619-0.349-0.853c-0.231-0.231-0.502-0.348-0.851-0.348c-0.348,0-0.62,0.116-0.853,0.348
			c-0.233,0.233-0.349,0.504-0.349,0.853v10.877h-12.348v-10.877c0-0.349-0.117-0.619-0.35-0.853
			c-0.231-0.231-0.503-0.348-0.852-0.348c-0.348,0-0.619,0.116-0.851,0.348c-0.231,0.233-0.348,0.504-0.348,0.853V360.772
			L521.349,360.772z M558.896,360.772c0,0.35,0.116,0.62,0.348,0.852c0.232,0.232,0.504,0.349,0.853,0.349
			c0.348,0,0.618-0.116,0.853-0.349c0.231-0.231,0.348-0.502,0.348-0.852v-22.335c0-0.349-0.116-0.619-0.348-0.853
			c-0.234-0.231-0.505-0.348-0.853-0.348c-0.349,0-0.62,0.116-0.853,0.348c-0.231,0.233-0.348,0.504-0.348,0.853V360.772
			L558.896,360.772z M581.733,360.772c0,0.35,0.117,0.62,0.348,0.852c0.234,0.232,0.505,0.349,0.853,0.349
			c0.349,0,0.62-0.116,0.852-0.349c0.232-0.231,0.348-0.502,0.348-0.852v-18.349l13.239,18.735c0.156,0.194,0.31,0.388,0.503,0.543
			c0.156,0.192,0.388,0.271,0.659,0.271c0.349,0,0.62-0.116,0.852-0.349c0.231-0.231,0.348-0.502,0.348-0.852v-22.335
			c0-0.349-0.116-0.619-0.348-0.853c-0.231-0.231-0.503-0.348-0.852-0.348c-0.348,0-0.618,0.116-0.853,0.348
			c-0.23,0.233-0.348,0.504-0.348,0.853v18.31l-13.316-18.852c-0.155-0.193-0.309-0.388-0.426-0.503
			c-0.153-0.117-0.388-0.155-0.658-0.155c-0.348,0-0.618,0.116-0.853,0.348c-0.23,0.233-0.348,0.504-0.348,0.853V360.772
			L581.733,360.772z M640.96,344.359c0.348,0.039,0.618-0.038,0.852-0.231c0.271-0.233,0.426-0.504,0.463-0.813
			c0.04-0.31-0.075-0.619-0.27-0.891c-1.123-1.548-2.515-2.787-4.257-3.716c-1.743-0.929-3.679-1.394-5.731-1.394
			c-1.702,0-3.29,0.31-4.799,0.968c-1.511,0.658-2.787,1.51-3.91,2.633c-1.123,1.121-1.974,2.438-2.632,3.948
			c-0.658,1.509-0.969,3.097-0.969,4.8s0.311,3.291,0.969,4.799c0.658,1.511,1.509,2.788,2.632,3.91
			c1.123,1.123,2.399,1.976,3.91,2.633c1.511,0.658,3.096,0.968,4.799,0.968c1.472,0,2.866-0.232,4.221-0.735
			s2.554-1.16,3.638-2.052c1.046-0.852,1.976-1.897,2.711-3.097c0.736-1.2,1.238-2.478,1.509-3.87c0.078-0.388,0-0.736-0.193-1.085
			c-0.192-0.309-0.504-0.465-0.93-0.465h-7.004c-0.351,0-0.621,0.117-0.854,0.349c-0.231,0.232-0.348,0.504-0.348,0.853
			s0.116,0.619,0.348,0.851c0.232,0.233,0.503,0.349,0.854,0.349h5.378c-0.348,0.967-0.852,1.819-1.432,2.633
			c-0.618,0.812-1.315,1.471-2.129,2.052c-0.812,0.58-1.703,1.006-2.671,1.315c-0.967,0.349-2.012,0.504-3.098,0.504
			c-1.354-0.001-2.67-0.272-3.869-0.774c-1.201-0.504-2.246-1.238-3.135-2.129c-0.892-0.891-1.628-1.936-2.13-3.136
			c-0.504-1.2-0.774-2.517-0.774-3.871s0.271-2.67,0.774-3.871c0.502-1.2,1.238-2.284,2.13-3.174
			c0.889-0.892,1.934-1.627,3.135-2.129c1.199-0.505,2.515-0.775,3.869-0.775s2.75,0.311,4.143,0.968
			c1.355,0.659,2.671,1.703,3.872,3.137C640.302,344.165,640.61,344.321,640.96,344.359L640.96,344.359L640.96,344.359z"/>
	</g>
</g>
</svg>
